<?xml version="1.0"?>
<svg width="800" height="600" xmlns="http://www.w3.org/2000/svg" xmlns:svg="http://www.w3.org/2000/svg" preserveAspectRatio="xMidYMid meet" version="1.0">
 <title>test</title>
 <defs>
  <g id="svg_1"/>
  <clipPath id="086f482ba8">
   <path clip-rule="nonzero" d="m149.21,246.97l570.79,0l0,133.85l-570.79,0l0,-133.85zm0,0" id="svg_2"/>
  </clipPath>
  <clipPath id="9382c6a4cd">
   <path clip-rule="nonzero" d="m187.46,246.97l494.29,0c21.13,0 38.25,17.12 38.25,38.25l0,57.35c0,21.12 -17.12,38.25 -38.25,38.25l-494.29,0c-21.12,0 -38.25,-17.13 -38.25,-38.25l0,-57.35c0,-21.13 17.13,-38.25 38.25,-38.25zm0,0" id="svg_3"/>
  </clipPath>
  <clipPath id="91df28e3d4">
   <path clip-rule="nonzero" d="m149.21,421.06l570.79,0l0,133.85l-570.79,0l0,-133.85zm0,0" id="svg_4"/>
  </clipPath>
  <clipPath id="f5520bb969">
   <path clip-rule="nonzero" d="m187.46,421.06l494.29,0c21.13,0 38.25,17.13 38.25,38.25l0,57.35c0,21.13 -17.12,38.25 -38.25,38.25l-494.29,0c-21.12,0 -38.25,-17.12 -38.25,-38.25l0,-57.35c0,-21.12 17.13,-38.25 38.25,-38.25zm0,0" id="svg_5"/>
  </clipPath>
  <clipPath id="985ae40cfc">
   <path clip-rule="nonzero" d="m149.21,595.15l570.79,0l0,133.85l-570.79,0l0,-133.85zm0,0" id="svg_6"/>
  </clipPath>
  <clipPath id="17bedc2f0e">
   <path clip-rule="nonzero" d="m187.46,595.15l494.29,0c21.13,0 38.25,17.13 38.25,38.25l0,57.35c0,21.13 -17.12,38.25 -38.25,38.25l-494.29,0c-21.12,0 -38.25,-17.12 -38.25,-38.25l0,-57.35c0,-21.12 17.13,-38.25 38.25,-38.25zm0,0" id="svg_7"/>
  </clipPath>
 </defs>
 <g class="layer">
  <title>Layer 1</title>
  <path d="m1264.18,349.02c-15.2,-30.69 -45.59,-47.27 -64.43,-57.56c-81.45,-44.45 -192.41,-32.62 -266.16,8.84c-72.79,40.91 -136.24,137.79 -109.64,243.05c26.69,105.67 106.82,156.02 185.41,167.54c124.79,18.29 253.42,-60.94 259.16,-89.83c1.77,-8.91 1.3,-16.8 1.3,-16.8c-2.21,-20.85 -19.36,-33.23 -23.35,-80.75c-7.35,-87.43 44.38,-120.65 17.71,-174.49" fill="#caddff" fill-rule="nonzero" id="svg_10"/>
  <path d="m1088.14,537.88l1.01,-265.79c0.01,-3.57 2.9,-6.48 6.46,-6.49l169.74,-0.77c3.55,-0.01 6.42,2.87 6.4,6.44l-1,265.79c-0.01,3.57 -2.9,6.48 -6.45,6.49l-169.75,0.77c-3.55,0.02 -6.42,-2.86 -6.41,-6.44" fill="#99b9ff" fill-rule="nonzero" id="svg_11"/>
  <path d="m1074.14,527.67l0.92,-243.95c0.01,-3.57 2.9,-6.48 6.45,-6.5l169.75,-0.76c3.55,-0.02 6.42,2.86 6.4,6.44l-0.92,243.95c-0.01,3.57 -2.9,6.48 -6.45,6.5l-169.75,0.76c-3.55,0.02 -6.42,-2.86 -6.4,-6.44" fill="#ffffff" fill-rule="nonzero" id="svg_12"/>
  <path d="m1066.95,526.58l0.92,-243.95c0.01,-3.58 2.9,-6.48 6.45,-6.5l169.75,-0.77c3.55,-0.01 6.42,2.87 6.41,6.44l-0.93,243.96c-0.01,3.57 -2.9,6.47 -6.45,6.49l-169.75,0.77c-3.55,0.02 -6.42,-2.87 -6.4,-6.44" fill="#caddff" fill-rule="nonzero" id="svg_13"/>
  <path d="m1057.48,543.16l1.04,-276.07c0.02,-3.57 2.91,-6.48 6.46,-6.49l169.74,-0.77c3.55,-0.01 6.42,2.87 6.41,6.44l-1.04,276.07c-0.02,3.57 -2.91,6.48 -6.46,6.49l-169.74,0.77c-3.56,0.02 -6.43,-2.87 -6.41,-6.44" fill="#5479f7" fill-rule="nonzero" id="svg_14"/>
  <path d="m1004.38,587.75c0.72,-0.41 1.45,-0.79 2.19,-1.16c6.5,-3.26 13.53,-5.68 20.37,-8.16c25.31,-9.2 51.39,-15.96 77.18,-23.63c9.13,-2.71 18.26,-5.39 27.43,-7.89c35.36,-74.14 98.93,-209.19 93,-209.19l-343.96,-13.28c-8.18,0 -14.85,6.66 -14.85,14.84l0,240.18c0,8.18 6.67,14.84 14.85,14.84l124.29,-8.42l-0.5,1.87" fill="#000000" fill-rule="nonzero" id="svg_15"/>
  <path d="m1106.62,563.66l-87.7,0l-24.88,90.86l137.47,0l-24.89,-90.86" fill="#ffffff" fill-rule="nonzero" id="svg_16"/>
  <path d="m995.11,653.69l135.32,0l-24.43,-89.21l-86.46,0l-24.43,89.21zm136.39,1.65l-137.46,0c-0.26,0 -0.5,-0.13 -0.66,-0.33c-0.15,-0.21 -0.2,-0.47 -0.14,-0.71l24.89,-90.85c0.09,-0.36 0.42,-0.61 0.79,-0.61l87.7,0c0.37,0 0.7,0.25 0.79,0.61l24.89,90.85c0.06,0.24 0.01,0.5 -0.14,0.71c-0.16,0.2 -0.4,0.33 -0.66,0.33" fill="#000000" fill-rule="nonzero" id="svg_17"/>
  <path d="m1251.47,339.3c0,-7.73 -6.27,-14 -14,-14l-350.08,0c-7.73,0 -13.99,6.27 -13.99,14l0,240.19c0,7.73 6.26,14 13.99,14l350.08,0c7.73,0 14,-6.27 14,-14l0,-240.19" fill="#ffffff" fill-rule="nonzero" id="svg_18"/>
  <path d="m1146.43,645.21l-167.32,0c-4.81,0 -8.71,3.67 -8.71,8.48c0,4.81 3.9,8.49 8.71,8.49l167.32,0c4.81,0 8.71,-3.68 8.71,-8.49c0,-4.81 -3.9,-8.48 -8.71,-8.48" fill="#ffffff" fill-rule="nonzero" id="svg_19"/>
  <path d="m979.11,646.03c-4.43,0 -7.89,3.37 -7.89,7.66c0,4.3 3.46,7.67 7.89,7.67l167.32,0c4.43,0 7.89,-3.37 7.89,-7.67c0,-4.29 -3.46,-7.66 -7.89,-7.66l-167.32,0zm167.32,16.97l-167.32,0c-5.35,0 -9.53,-4.09 -9.53,-9.31c0,-5.22 4.18,-9.3 9.53,-9.3l167.32,0c5.35,0 9.53,4.08 9.53,9.3c0,5.22 -4.18,9.31 -9.53,9.31" fill="#000000" fill-rule="nonzero" id="svg_20"/>
  <path d="m1251.19,475.54c-0.45,0 -0.82,-0.36 -0.82,-0.82l0,-135.14c0,-7.27 -5.91,-13.18 -13.17,-13.18l-25.13,0c-0.45,0 -0.82,-0.36 -0.82,-0.82c0,-0.45 0.37,-0.82 0.82,-0.82l25.13,0c8.17,0 14.82,6.65 14.82,14.82l0,135.14c0,0.46 -0.37,0.82 -0.83,0.82" fill="#000000" fill-rule="nonzero" id="svg_21"/>
  <path d="m1128.91,594.58l-241.79,0c-8.17,0 -14.82,-6.65 -14.82,-14.82l0,-240.18c0,-8.17 6.65,-14.82 14.82,-14.82l14.73,0c0.45,0 0.82,0.37 0.82,0.82c0,0.46 -0.37,0.82 -0.82,0.82l-14.73,0c-7.26,0 -13.17,5.91 -13.17,13.18l0,240.18c0,7.27 5.91,13.18 13.17,13.18l241.79,0c0.46,0 0.82,0.37 0.82,0.82c0,0.45 -0.36,0.82 -0.82,0.82" fill="#000000" fill-rule="nonzero" id="svg_22"/>
  <path d="m1239.43,344.86c0,-3.85 -3.11,-6.97 -6.96,-6.97l-339.53,0c-3.84,0 -6.96,3.12 -6.96,6.97l0,229.63c0,3.84 3.12,6.96 6.96,6.96l339.53,0c3.85,0 6.96,-3.12 6.96,-6.96l0,-229.63" fill="#caddff" fill-rule="nonzero" id="svg_23"/>
  <path d="m952.74,574.33l0.05,-58.01l-20.93,0l-0.05,58.01l20.93,0" fill="#99b9ff" fill-rule="nonzero" id="svg_24"/>
  <path d="m977.82,574.33l0.56,-79.9l-20.92,0l-0.56,79.9l20.92,0" fill="#99b9ff" fill-rule="nonzero" id="svg_25"/>
  <path d="m1002.91,574.33l0.39,-73.88l-20.93,0l-0.39,73.88l20.93,0" fill="#99b9ff" fill-rule="nonzero" id="svg_26"/>
  <path d="m1027.99,574.33l0.73,-101.25l-20.93,0l-0.72,101.25l20.92,0" fill="#99b9ff" fill-rule="nonzero" id="svg_27"/>
  <path d="m1053.08,574.33l0.7,-127.52l-20.92,0l-0.7,127.52l20.92,0" fill="#99b9ff" fill-rule="nonzero" id="svg_28"/>
  <path d="m1078.16,574.33l1.24,-119.86l-20.92,0l-1.24,119.86l20.92,0" fill="#99b9ff" fill-rule="nonzero" id="svg_29"/>
  <path d="m1103.72,574.33l1.58,-139.56l-20.92,0l-1.58,139.56l20.92,0" fill="#99b9ff" fill-rule="nonzero" id="svg_30"/>
  <path d="m1129.28,574.33l2.12,-146.13l-20.92,0l-2.12,146.13l20.92,0" fill="#99b9ff" fill-rule="nonzero" id="svg_31"/>
  <path d="m1154.84,574.33l1.35,-107.27l-20.92,0l-1.36,107.27l20.93,0" fill="#99b9ff" fill-rule="nonzero" id="svg_32"/>
  <path d="m1180.4,574.33l1.85,-83.74l-20.93,0l-1.84,83.74l20.92,0" fill="#99b9ff" fill-rule="nonzero" id="svg_33"/>
  <path d="m1205.96,574.33l1.04,-72.79l-20.92,0l-1.04,72.79l20.92,0" fill="#99b9ff" fill-rule="nonzero" id="svg_34"/>
  <path d="m1231.52,574.33l1.16,-75.53l-20.93,0l-1.15,75.53l20.92,0" fill="#99b9ff" fill-rule="nonzero" id="svg_35"/>
  <path d="m1068.54,443.03c-0.2,0 -0.39,-0.07 -0.54,-0.21l-15.61,-13.78c-0.34,-0.3 -0.37,-0.82 -0.07,-1.16c0.3,-0.34 0.82,-0.37 1.16,-0.07l14.99,13.24l36.44,-41.46c0.14,-0.16 0.34,-0.26 0.56,-0.27c0.23,-0.02 0.44,0.06 0.6,0.2l19.63,17.34l23.23,-26.44c0.3,-0.34 0.82,-0.38 1.16,-0.08c0.35,0.3 0.38,0.82 0.08,1.16l-23.78,27.06c-0.15,0.16 -0.35,0.26 -0.57,0.28c-0.22,0.01 -0.43,-0.06 -0.59,-0.21l-19.63,-17.34l-36.44,41.46c-0.15,0.16 -0.35,0.27 -0.57,0.28c-0.02,0 -0.04,0 -0.05,0" fill="#000000" fill-rule="nonzero" id="svg_36"/>
  <path d="m933.87,504.92c-0.19,0 -0.39,-0.06 -0.54,-0.2c-0.34,-0.3 -0.38,-0.82 -0.08,-1.16l31.61,-35.95c0.14,-0.17 0.34,-0.27 0.56,-0.28c0.22,-0.01 0.44,0.06 0.6,0.21l21.37,18.87l51.03,-58.05c0.3,-0.34 0.82,-0.38 1.16,-0.07c0.34,0.29 0.37,0.81 0.07,1.16l-51.58,58.66c-0.14,0.17 -0.34,0.27 -0.56,0.28c-0.21,0.02 -0.43,-0.06 -0.59,-0.2l-21.37,-18.88l-31.07,35.33c-0.16,0.19 -0.38,0.28 -0.61,0.28" fill="#000000" fill-rule="nonzero" id="svg_37"/>
  <path d="m961.95,468.15c-0.25,-1.94 1.14,-3.51 3.08,-3.51c1.95,0 3.72,1.57 3.97,3.51c0.24,1.94 -1.14,3.5 -3.08,3.5c-1.95,0 -3.72,-1.56 -3.97,-3.5" fill="#5479f7" fill-rule="nonzero" id="svg_38"/>
  <path d="m965.03,463c-1.42,0 -2.69,0.56 -3.59,1.58c-0.9,1.03 -1.3,2.37 -1.12,3.78c0.35,2.77 2.81,4.93 5.6,4.93c1.42,0 2.69,-0.56 3.59,-1.58c0.9,-1.01 1.29,-2.35 1.12,-3.77c-0.36,-2.77 -2.81,-4.94 -5.6,-4.94zm0,1.64c1.95,0 3.72,1.57 3.97,3.51c0.24,1.94 -1.14,3.5 -3.08,3.5c-1.95,0 -3.72,-1.56 -3.97,-3.5c-0.25,-1.94 1.14,-3.51 3.08,-3.51" fill="#000000" fill-rule="nonzero" id="svg_39"/>
  <path d="m1065.11,442.07c-0.25,-1.94 1.13,-3.51 3.08,-3.51c1.94,0 3.72,1.57 3.97,3.51c0.24,1.93 -1.14,3.5 -3.09,3.5c-1.94,0 -3.72,-1.57 -3.96,-3.5" fill="#99b9ff" fill-rule="nonzero" id="svg_40"/>
  <path d="m1068.19,436.92c-1.42,0 -2.7,0.56 -3.59,1.58c-0.9,1.02 -1.3,2.36 -1.12,3.77c0.35,2.77 2.81,4.94 5.59,4.94c1.42,0 2.7,-0.56 3.59,-1.58c0.9,-1.02 1.3,-2.36 1.12,-3.77c-0.35,-2.77 -2.81,-4.94 -5.59,-4.94zm0,1.64c1.94,0 3.72,1.57 3.97,3.51c0.24,1.93 -1.14,3.5 -3.09,3.5c-1.94,0 -3.72,-1.57 -3.96,-3.5c-0.25,-1.94 1.13,-3.51 3.08,-3.51" fill="#000000" fill-rule="nonzero" id="svg_41"/>
  <path d="m1102.32,399.74c-0.25,-1.94 1.13,-3.51 3.07,-3.51c1.95,0 3.73,1.57 3.97,3.51c0.25,1.93 -1.13,3.5 -3.08,3.5c-1.94,0 -3.72,-1.57 -3.96,-3.5" fill="#5479f7" fill-rule="nonzero" id="svg_42"/>
  <path d="m1105.39,394.59c-1.41,0 -2.69,0.56 -3.59,1.58c-0.89,1.02 -1.29,2.36 -1.11,3.78c0.35,2.76 2.81,4.93 5.59,4.93c1.42,0 2.7,-0.56 3.6,-1.58c0.89,-1.02 1.29,-2.36 1.11,-3.77c-0.35,-2.77 -2.81,-4.94 -5.6,-4.94zm0,1.64c1.95,0 3.73,1.57 3.97,3.51c0.25,1.93 -1.13,3.5 -3.08,3.5c-1.94,0 -3.72,-1.57 -3.96,-3.5c-0.25,-1.94 1.13,-3.51 3.07,-3.51" fill="#000000" fill-rule="nonzero" id="svg_43"/>
  <path d="m1122.71,417.75c-0.24,-1.93 1.13,-3.5 3.08,-3.5c1.95,0 3.73,1.57 3.97,3.5c0.24,1.94 -1.13,3.51 -3.08,3.51c-1.95,0 -3.72,-1.57 -3.97,-3.51" fill="#99b9ff" fill-rule="nonzero" id="svg_44"/>
  <path d="m1125.79,412.61c-1.41,0 -2.69,0.56 -3.59,1.58c-0.9,1.02 -1.29,2.36 -1.12,3.77c0.35,2.77 2.81,4.94 5.6,4.94c1.42,0 2.69,-0.56 3.59,-1.58c0.9,-1.02 1.3,-2.36 1.12,-3.77c-0.35,-2.77 -2.81,-4.94 -5.6,-4.94zm0,1.64c1.95,0 3.73,1.57 3.97,3.5c0.24,1.94 -1.13,3.51 -3.08,3.51c-1.95,0 -3.72,-1.57 -3.97,-3.51c-0.24,-1.93 1.13,-3.5 3.08,-3.5" fill="#000000" fill-rule="nonzero" id="svg_45"/>
  <path d="m1145.35,392c-0.24,-1.94 1.14,-3.51 3.08,-3.51c1.95,0 3.73,1.57 3.97,3.51c0.24,1.93 -1.13,3.5 -3.08,3.5c-1.95,0 -3.73,-1.57 -3.97,-3.5" fill="#99b9ff" fill-rule="nonzero" id="svg_46"/>
  <path d="m1148.43,386.85c-1.42,0 -2.69,0.56 -3.59,1.58c-0.9,1.02 -1.3,2.36 -1.12,3.77c0.35,2.78 2.81,4.94 5.6,4.94c1.41,0 2.69,-0.55 3.59,-1.57c0.9,-1.03 1.29,-2.37 1.12,-3.78c-0.35,-2.77 -2.81,-4.94 -5.6,-4.94zm0,1.65c1.95,0 3.72,1.57 3.97,3.5c0.24,1.93 -1.14,3.5 -3.08,3.5c-1.95,0 -3.73,-1.57 -3.97,-3.5c-0.24,-1.93 1.13,-3.5 3.08,-3.5" fill="#000000" fill-rule="nonzero" id="svg_47"/>
  <path d="m984.21,487.16c-0.25,-1.93 1.14,-3.5 3.08,-3.5c1.95,0 3.73,1.57 3.97,3.5c0.24,1.94 -1.13,3.51 -3.08,3.51c-1.95,0 -3.72,-1.57 -3.97,-3.51" fill="#99b9ff" fill-rule="nonzero" id="svg_48"/>
  <path d="m987.29,482.02c-1.41,0 -2.69,0.56 -3.59,1.58c-0.9,1.02 -1.3,2.36 -1.12,3.77c0.35,2.77 2.81,4.94 5.6,4.94c1.42,0 2.69,-0.56 3.59,-1.58c0.9,-1.02 1.3,-2.36 1.12,-3.77c-0.35,-2.77 -2.81,-4.94 -5.6,-4.94zm0,1.64c1.95,0 3.73,1.57 3.97,3.5c0.24,1.94 -1.13,3.51 -3.08,3.51c-1.95,0 -3.72,-1.57 -3.97,-3.51c-0.25,-1.93 1.14,-3.5 3.08,-3.5" fill="#000000" fill-rule="nonzero" id="svg_49"/>
  <path d="m1041.85,421.99c-0.24,-1.93 1.13,-3.5 3.08,-3.5c1.95,0 3.72,1.57 3.97,3.5c0.24,1.94 -1.14,3.51 -3.08,3.51c-1.95,0 -3.72,-1.57 -3.97,-3.51" fill="#5479f7" fill-rule="nonzero" id="svg_50"/>
  <path d="m1044.93,416.85c-1.42,0 -2.69,0.56 -3.59,1.58c-0.9,1.02 -1.3,2.36 -1.12,3.77c0.35,2.77 2.81,4.94 5.6,4.94c1.41,0 2.69,-0.56 3.59,-1.58c0.9,-1.02 1.3,-2.36 1.11,-3.77c-0.34,-2.77 -2.8,-4.94 -5.59,-4.94zm0,1.64c1.95,0 3.72,1.57 3.97,3.5c0.24,1.94 -1.14,3.51 -3.08,3.51c-1.95,0 -3.72,-1.57 -3.97,-3.51c-0.24,-1.93 1.13,-3.5 3.08,-3.5" fill="#000000" fill-rule="nonzero" id="svg_51"/>
  <path d="m929.59,504.38c-0.25,-1.94 1.13,-3.51 3.07,-3.51c1.95,0 3.73,1.57 3.97,3.51c0.25,1.93 -1.13,3.5 -3.08,3.5c-1.94,0 -3.72,-1.57 -3.96,-3.5" fill="#99b9ff" fill-rule="nonzero" id="svg_52"/>
  <path d="m932.66,499.23c-1.41,0 -2.69,0.56 -3.59,1.58c-0.89,1.02 -1.29,2.36 -1.11,3.77c0.35,2.77 2.81,4.94 5.59,4.94c1.42,0 2.7,-0.56 3.59,-1.58c0.9,-1.02 1.3,-2.36 1.12,-3.77c-0.35,-2.77 -2.81,-4.94 -5.6,-4.94zm0,1.64c1.95,0 3.73,1.57 3.97,3.51c0.25,1.93 -1.13,3.5 -3.08,3.5c-1.94,0 -3.72,-1.57 -3.96,-3.5c-0.25,-1.94 1.13,-3.51 3.07,-3.51" fill="#000000" fill-rule="nonzero" id="svg_53"/>
  <path d="m1005.98,386.06l-99.63,0c-0.64,0 -1.25,-1.2 -1.31,-2.73l-0.24,-6.58c-0.04,-1.23 0.31,-2.19 0.83,-2.19l99.63,0c0.63,0 1.25,1.51 1.31,3.03l0.23,6.44c0.04,1.22 -0.31,2.03 -0.82,2.03" fill="#99b9ff" fill-rule="nonzero" id="svg_54"/>
  <path d="m1005.21,407.4l-99.84,0c-0.57,0 -1.14,-1.18 -1.19,-2.55l-0.29,-7.3c-0.04,-1.1 0.24,-2.19 0.7,-2.19l99.84,0c0.57,0 1.16,1.53 1.21,2.9l0.28,7.13c0.04,1.11 -0.25,2.01 -0.71,2.01" fill="#99b9ff" fill-rule="nonzero" id="svg_55"/>
  <path d="m1119.51,704.32c-0.4,0 -0.75,-0.3 -0.81,-0.71c-0.06,-0.45 0.26,-0.87 0.7,-0.93c20.49,-2.78 39.65,-9.91 56.96,-21.2c0.37,-0.25 0.88,-0.14 1.13,0.24c0.25,0.38 0.14,0.89 -0.24,1.14c-17.5,11.42 -36.89,18.64 -57.62,21.45c-0.04,0.01 -0.08,0.01 -0.12,0.01" fill="#000000" fill-rule="nonzero" id="svg_56"/>
  <path d="m1067.75,699.69c-2.66,0 -4.18,-0.06 -4.27,-0.06c-0.46,-0.02 -0.8,-0.41 -0.78,-0.86c0.01,-0.45 0.39,-0.81 0.85,-0.79c0.6,0.03 61.05,2.27 102.05,-23.14c0.38,-0.24 0.89,-0.12 1.13,0.27c0.23,0.38 0.12,0.89 -0.27,1.13c-35.06,21.72 -84.1,23.45 -98.71,23.45" fill="#000000" fill-rule="nonzero" id="svg_57"/>
  <path d="m830.82,481.52c-0.02,0 -0.05,0 -0.07,0c-0.45,-0.05 -0.79,-0.45 -0.75,-0.9c2.57,-28.67 10.52,-56.18 23.63,-81.74c0.21,-0.41 0.7,-0.56 1.11,-0.36c0.4,0.21 0.56,0.7 0.35,1.11c-13.01,25.37 -20.9,52.67 -23.45,81.14c-0.04,0.43 -0.39,0.75 -0.82,0.75" fill="#000000" fill-rule="nonzero" id="svg_58"/>
  <path d="m822.86,465.7c-0.04,0 -0.09,0 -0.14,-0.01c-0.44,-0.08 -0.75,-0.5 -0.67,-0.94c2.18,-13.25 5.59,-26.37 10.11,-39c0.16,-0.42 0.63,-0.64 1.05,-0.49c0.43,0.15 0.65,0.62 0.5,1.05c-4.5,12.53 -7.87,25.55 -10.04,38.7c-0.07,0.4 -0.42,0.69 -0.81,0.69" fill="#000000" fill-rule="nonzero" id="svg_59"/>
  <path d="m1221.02,402.63l-34.21,33.69l34.21,-33.69" fill="#ffffff" fill-rule="nonzero" id="svg_60"/>
  <path d="m1186.81,437.14c-0.21,0 -0.42,-0.08 -0.58,-0.24c-0.32,-0.33 -0.32,-0.85 0,-1.16l34.22,-33.7c0.32,-0.32 0.84,-0.31 1.16,0.01c0.32,0.32 0.32,0.84 -0.01,1.16l-34.21,33.7c-0.17,0.16 -0.37,0.23 -0.58,0.23" fill="#000000" fill-rule="nonzero" id="svg_61"/>
  <path d="m1220.79,384.12l-18.01,17.74l18.01,-17.74" fill="#ffffff" fill-rule="nonzero" id="svg_62"/>
  <path d="m1202.79,402.67c-0.22,0 -0.43,-0.08 -0.59,-0.24c-0.32,-0.32 -0.31,-0.84 0.01,-1.16l18.01,-17.74c0.32,-0.32 0.84,-0.31 1.16,0.01c0.32,0.33 0.31,0.85 -0.01,1.16l-18.01,17.74c-0.16,0.15 -0.36,0.23 -0.57,0.23" fill="#000000" fill-rule="nonzero" id="svg_63"/>
  <path d="m1012.59,687.16c-0.21,0 -0.41,-0.08 -0.57,-0.23c-0.32,-0.32 -0.34,-0.84 -0.02,-1.16l2.58,-2.71c0.31,-0.32 0.83,-0.33 1.16,-0.02c0.33,0.31 0.34,0.84 0.03,1.16l-2.59,2.7c-0.16,0.17 -0.38,0.26 -0.59,0.26" fill="#000000" fill-rule="nonzero" id="svg_64"/>
  <path d="m1003.55,696.61c-0.21,0 -0.41,-0.08 -0.57,-0.23c-0.33,-0.31 -0.34,-0.83 -0.02,-1.16l2.58,-2.7c0.31,-0.33 0.83,-0.34 1.16,-0.03c0.33,0.31 0.34,0.83 0.03,1.16l-2.59,2.7c-0.16,0.17 -0.37,0.26 -0.59,0.26" fill="#000000" fill-rule="nonzero" id="svg_65"/>
  <path d="m1006.08,687.3c-0.2,0 -0.42,-0.08 -0.57,-0.24l-2.62,-2.58c-0.33,-0.32 -0.33,-0.84 -0.01,-1.16c0.32,-0.32 0.83,-0.33 1.16,-0.01l2.62,2.58c0.32,0.32 0.32,0.84 0.01,1.16c-0.16,0.17 -0.37,0.25 -0.59,0.25" fill="#000000" fill-rule="nonzero" id="svg_66"/>
  <path d="m1015.26,696.35c-0.21,0 -0.42,-0.08 -0.58,-0.24l-2.62,-2.58c-0.32,-0.32 -0.33,-0.84 -0.01,-1.17c0.32,-0.32 0.84,-0.32 1.16,0l2.63,2.58c0.32,0.32 0.32,0.84 0,1.16c-0.16,0.17 -0.37,0.25 -0.58,0.25" fill="#000000" fill-rule="nonzero" id="svg_67"/>
  <path d="m1248.86,616.68c-2.13,0.96 -3.1,3.52 -2.16,5.7c0.46,1.06 1.3,1.87 2.36,2.29c1.03,0.4 2.16,0.37 3.17,-0.09c2.13,-0.95 3.11,-3.51 2.17,-5.69c-0.46,-1.07 -1.3,-1.88 -2.36,-2.29c-1.04,-0.4 -2.16,-0.37 -3.18,0.08zm1.69,9.91c-0.7,0 -1.41,-0.13 -2.09,-0.39c-1.47,-0.57 -2.63,-1.7 -3.26,-3.18c-1.29,-2.99 0.05,-6.51 2.99,-7.84c1.42,-0.63 2.99,-0.68 4.44,-0.11c1.48,0.57 2.64,1.7 3.27,3.17c1.3,3 -0.05,6.52 -2.99,7.84c-0.75,0.34 -1.55,0.51 -2.36,0.51" fill="#000000" fill-rule="nonzero" id="svg_68"/>
  <path d="m1196.36,297.07l-166.55,0c-3.7,0 -6.7,3 -6.7,6.7l0,64.86c0,3.7 3,6.7 6.7,6.7l166.55,0c3.71,0 6.71,-3 6.71,-6.7l0,-64.86c0,-3.7 -3,-6.7 -6.71,-6.7" fill="#99b9ff" fill-rule="nonzero" id="svg_69"/>
  <path d="m1029.81,297.89c-3.24,0 -5.88,2.64 -5.88,5.88l0,64.86c0,3.24 2.64,5.88 5.88,5.88l166.55,0c3.25,0 5.89,-2.64 5.89,-5.88l0,-64.86c0,-3.24 -2.64,-5.88 -5.89,-5.88l-166.55,0zm166.55,78.26l-166.55,0c-4.15,0 -7.52,-3.38 -7.52,-7.52l0,-64.86c0,-4.15 3.37,-7.52 7.52,-7.52l166.55,0c4.15,0 7.53,3.37 7.53,7.52l0,64.86c0,4.14 -3.38,7.52 -7.53,7.52" fill="#000000" fill-rule="nonzero" id="svg_70"/>
  <path d="m1197.85,308.89l-169.07,0c-0.45,0 -0.82,-0.37 -0.82,-0.82c0,-0.46 0.37,-0.82 0.82,-0.82l169.07,0c0.45,0 0.82,0.36 0.82,0.82c0,0.45 -0.37,0.82 -0.82,0.82" fill="#ffffff" fill-rule="nonzero" id="svg_71"/>
  <path d="m1035.05,302.23c0,0.95 -0.76,1.72 -1.71,1.72c-0.95,0 -1.72,-0.77 -1.72,-1.72c0,-0.95 0.77,-1.72 1.72,-1.72c0.95,0 1.71,0.77 1.71,1.72" fill="#ffffff" fill-rule="nonzero" id="svg_72"/>
  <path d="m1041.93,302.23c0,0.95 -0.77,1.72 -1.72,1.72c-0.94,0 -1.71,-0.77 -1.71,-1.72c0,-0.95 0.77,-1.72 1.71,-1.72c0.95,0 1.72,0.77 1.72,1.72" fill="#ffffff" fill-rule="nonzero" id="svg_73"/>
  <path d="m1048.81,302.23c0,0.95 -0.77,1.72 -1.72,1.72c-0.95,0 -1.71,-0.77 -1.71,-1.72c0,-0.95 0.76,-1.72 1.71,-1.72c0.95,0 1.72,0.77 1.72,1.72" fill="#ffffff" fill-rule="nonzero" id="svg_74"/>
  <path d="m1197.85,302.87l-9.85,0c-0.45,0 -0.82,-0.37 -0.82,-0.82c0,-0.46 0.37,-0.82 0.82,-0.82l9.85,0c0.45,0 0.82,0.36 0.82,0.82c0,0.45 -0.37,0.82 -0.82,0.82" fill="#ffffff" fill-rule="nonzero" id="svg_75"/>
  <path d="m1183.62,302.87l-111.07,0c-0.45,0 -0.82,-0.37 -0.82,-0.82c0,-0.46 0.37,-0.82 0.82,-0.82l111.07,0c0.45,0 0.82,0.36 0.82,0.82c0,0.45 -0.37,0.82 -0.82,0.82" fill="#ffffff" fill-rule="nonzero" id="svg_76"/>
  <path d="m1061.61,302.87l-8.21,0c-0.45,0 -0.82,-0.37 -0.82,-0.82c0,-0.46 0.37,-0.82 0.82,-0.82l8.21,0c0.45,0 0.82,0.36 0.82,0.82c0,0.45 -0.37,0.82 -0.82,0.82" fill="#ffffff" fill-rule="nonzero" id="svg_77"/>
  <path d="m1077.48,361.98l-43.77,0l0,-43.79l43.77,0l0,43.79" fill="#ffffff" fill-rule="nonzero" id="svg_78"/>
  <path d="m1094.99,328.04l-9.31,0l0,-9.85l9.31,0l0,9.85" fill="#caddff" fill-rule="nonzero" id="svg_79"/>
  <path d="m1193.47,328.04l-91.92,0l0,-9.85l91.92,0l0,9.85" fill="#ffffff" fill-rule="nonzero" id="svg_80"/>
  <path d="m1094.99,345.01l-9.31,0l0,-9.3l9.31,0l0,9.3" fill="#caddff" fill-rule="nonzero" id="svg_81"/>
  <path d="m1193.47,345.01l-91.92,0l0,-9.85l91.92,0l0,9.85" fill="#ffffff" fill-rule="nonzero" id="svg_82"/>
  <path d="m1094.99,362.52l-9.31,0l0,-9.85l9.31,0l0,9.85" fill="#caddff" fill-rule="nonzero" id="svg_83"/>
  <path d="m1193.47,361.98l-91.92,0l0,-9.3l91.92,0l0,9.3" fill="#ffffff" fill-rule="nonzero" id="svg_84"/>
  <path d="m961.18,383.45c-0.38,-0.55 -0.38,-1.27 0,-1.82c0.53,-0.77 0.82,-1.59 0.82,-2.45c0,-4 -6.2,-7.24 -13.84,-7.24c-7.64,0 -13.83,3.24 -13.83,7.24c0,0.86 0.29,1.68 0.81,2.45c0.39,0.55 0.39,1.27 0,1.82c-0.52,0.77 -0.81,1.59 -0.81,2.45c0,1.9 1.4,3.63 3.68,4.92c-0.05,0.22 -0.08,0.43 -0.08,0.66c0,2.95 4.58,5.35 10.23,5.35c5.66,0 10.24,-2.4 10.24,-5.35c0,-0.23 -0.03,-0.44 -0.08,-0.66c2.28,-1.29 3.68,-3.02 3.68,-4.92c0,-0.86 -0.29,-1.68 -0.82,-2.45" fill="#99b9ff" fill-rule="nonzero" id="svg_85"/>
  <path d="m948.16,372.76c-7.05,0 -13.01,2.94 -13.01,6.42c0,0.67 0.23,1.34 0.67,1.98c0.57,0.84 0.57,1.92 0,2.76c-0.44,0.64 -0.67,1.31 -0.67,1.98c0,1.53 1.16,3.01 3.26,4.2l0.54,0.31l-0.15,0.59c-0.03,0.17 -0.05,0.32 -0.05,0.47c0,2.46 4.31,4.54 9.41,4.54c5.11,0 9.42,-2.08 9.42,-4.54c0,-0.15 -0.02,-0.3 -0.06,-0.46l-0.14,-0.6l0.54,-0.31c2.1,-1.19 3.26,-2.67 3.26,-4.2c0,-0.67 -0.23,-1.34 -0.67,-1.98c-0.58,-0.84 -0.58,-1.92 0,-2.76c0.44,-0.64 0.67,-1.31 0.67,-1.98c0,-3.48 -5.97,-6.42 -13.02,-6.42zm0,24.89c-6.2,0 -11.05,-2.71 -11.05,-6.18c0,-0.07 0,-0.15 0,-0.22c-2.32,-1.46 -3.6,-3.35 -3.6,-5.35c0,-1.01 0.32,-1.99 0.96,-2.91c0.19,-0.28 0.19,-0.62 0,-0.9c-0.64,-0.92 -0.96,-1.9 -0.96,-2.91c0,-4.52 6.44,-8.06 14.65,-8.06c8.22,0 14.66,3.54 14.66,8.06c0,1.01 -0.32,1.99 -0.96,2.91c-0.19,0.28 -0.19,0.62 0,0.9c0.64,0.92 0.96,1.9 0.96,2.91c0,2 -1.28,3.89 -3.61,5.34c0.01,0.08 0.01,0.16 0.01,0.23c0,3.47 -4.86,6.18 -11.06,6.18" fill="#000000" fill-rule="nonzero" id="svg_86"/>
  <path d="m985.71,323.66c0,-20.5 -17.07,-37.99 -37.56,-37.99c-20.46,0 -37.34,17.01 -37.48,37.48c-0.07,10.42 4.96,20.12 11.81,26.9c4.95,4.9 8.55,10.98 10.3,17.71l0.08,0.33c1.7,6.53 7.6,11.09 14.35,11.09l2.77,0c6.75,0 12.64,-4.56 14.34,-11.09l0.05,-0.2c1.74,-6.69 5.2,-12.83 10.14,-17.65c6.91,-6.74 11.2,-16.16 11.2,-26.58" fill="#ffffff" fill-rule="nonzero" id="svg_87"/>
  <path d="m948.15,286.49c-20.08,0 -36.52,16.45 -36.66,36.67c-0.06,9.38 4.16,18.97 11.57,26.31c5.12,5.07 8.75,11.32 10.51,18.08l0.09,0.33c1.6,6.17 7.17,10.48 13.55,10.48l2.77,0c6.37,0 11.94,-4.31 13.55,-10.48l0.05,-0.2c1.8,-6.94 5.38,-13.17 10.36,-18.02c7.06,-6.9 10.95,-16.13 10.95,-26c0,-20.15 -16.83,-37.17 -36.74,-37.17zm1.83,93.51l-2.77,0c-7.12,0 -13.35,-4.81 -15.14,-11.71l-0.09,-0.33c-1.68,-6.47 -5.17,-12.46 -10.07,-17.32c-7.73,-7.65 -12.12,-17.67 -12.06,-27.49c0.07,-10.13 4.1,-19.72 11.36,-26.99c7.27,-7.3 16.84,-11.32 26.93,-11.32c0.01,0 0,0 0.01,0c20.8,0 38.38,17.79 38.38,38.82c0,10.32 -4.07,19.97 -11.45,27.17c-4.76,4.64 -8.19,10.61 -9.92,17.26l-0.05,0.2c-1.79,6.9 -8.01,11.71 -15.13,11.71" fill="#000000" fill-rule="nonzero" id="svg_88"/>
  <path d="m954.02,317.2c-0.5,0.47 -0.96,1.03 -1.34,1.71c-2.64,4.65 -1.79,7.12 -1.05,8.18c0.77,1.1 2.09,1.66 3.38,1.45c1.02,-0.17 1.75,-0.81 2.02,-1.75c0.97,-3.36 -0.65,-7.27 -3.01,-9.59zm-11.1,0.34c-1.15,1.32 -2.08,3.12 -2.76,5.35c-0.76,2.49 -0.52,4.59 0.65,5.77c0.75,0.75 1.8,1.02 2.81,0.72c1.25,-0.38 2.15,-1.54 2.48,-3.18c0.5,-2.45 -0.86,-7.25 -3.18,-8.66zm7.33,57.15c-0.45,0 -0.82,-0.37 -0.82,-0.83c0.08,-20 11.75,-42.57 14.09,-46.9c1.39,-2.55 1.91,-4.63 1.62,-6.37c-0.44,-2.57 -1.75,-4.22 -3.89,-4.91c-1.52,-0.48 -3.86,-0.54 -5.88,0.55c2.61,2.7 4.38,7.04 3.24,11.01c-0.44,1.55 -1.69,2.64 -3.33,2.92c-1.9,0.32 -3.87,-0.52 -4.99,-2.13c-0.96,-1.37 -2.12,-4.49 0.96,-9.93c0.43,-0.76 0.93,-1.41 1.49,-1.94c-0.06,-0.04 -0.11,-0.07 -0.16,-0.11c-1.54,-0.97 -4.06,-1.67 -6.56,-0.75c-0.67,0.25 -1.3,0.61 -1.89,1.08c2.78,2.05 4.17,7.22 3.58,10.15c-0.46,2.25 -1.77,3.86 -3.62,4.42c-1.57,0.47 -3.27,0.04 -4.44,-1.13c-1.61,-1.62 -2,-4.32 -1.06,-7.4c0.73,-2.41 1.68,-4.18 2.71,-5.49c-4.09,-1.07 -6.93,0.89 -7.71,2.8c-0.92,2.28 -0.59,4.99 0.88,7.08c3.42,4.9 11.44,19.2 11.83,46.14c0.01,0.45 -0.35,0.82 -0.81,0.83c0,0 -0.01,0 -0.01,0c-0.45,0 -0.81,-0.36 -0.82,-0.81c-0.39,-26.48 -8.2,-40.44 -11.53,-45.22c-1.81,-2.58 -2.2,-5.81 -1.06,-8.63c1.26,-3.11 5.47,-5.21 10.46,-3.53c1.01,-0.94 2.03,-1.49 2.92,-1.82c3.05,-1.14 6.14,-0.29 8.01,0.89c0.2,0.14 0.41,0.28 0.62,0.43c2.57,-1.64 5.69,-1.61 7.67,-0.97c2.73,0.88 4.47,3.02 5.01,6.2c0.36,2.13 -0.21,4.5 -1.79,7.42c-2.31,4.26 -13.82,26.52 -13.9,46.14c0,0.44 -0.37,0.81 -0.82,0.81" fill="#000000" fill-rule="nonzero" id="svg_89"/>
  <path d="m965.36,347.79c-0.27,0 -0.54,-0.14 -0.7,-0.38c-0.23,-0.39 -0.12,-0.89 0.26,-1.14c6.62,-4.16 11.38,-10.91 13.06,-18.53c0.1,-0.44 0.54,-0.72 0.98,-0.63c0.44,0.1 0.72,0.54 0.63,0.98c-1.79,8.05 -6.81,15.18 -13.79,19.57c-0.14,0.09 -0.29,0.13 -0.44,0.13" fill="#000000" fill-rule="nonzero" id="svg_90"/>
  <path d="m924.96,343.49c-0.23,0 -0.45,-0.1 -0.61,-0.28c-5.05,-5.68 -7.83,-12.99 -7.83,-20.6c0,-11.86 6.6,-22.5 17.23,-27.78c0.4,-0.2 0.89,-0.04 1.09,0.37c0.21,0.4 0.04,0.9 -0.37,1.1c-10.06,5 -16.31,15.08 -16.31,26.31c0,7.21 2.64,14.13 7.41,19.51c0.31,0.34 0.27,0.86 -0.06,1.16c-0.16,0.14 -0.35,0.21 -0.55,0.21" fill="#000000" fill-rule="nonzero" id="svg_91"/>
  <path d="m950.53,383.87c-0.39,0 -0.74,-0.28 -0.81,-0.68c-0.08,-0.45 0.23,-0.87 0.67,-0.95c1.25,-0.21 2.47,-0.49 3.63,-0.81c0.43,-0.13 0.88,0.13 1.01,0.57c0.12,0.43 -0.13,0.89 -0.57,1.01c-1.21,0.34 -2.48,0.62 -3.79,0.85c-0.05,0.01 -0.1,0.01 -0.14,0.01" fill="#ffffff" fill-rule="nonzero" id="svg_92"/>
  <path d="m944.7,390.99c-0.45,0 -0.82,-0.36 -0.82,-0.82c-0.01,-0.45 0.35,-0.82 0.81,-0.83c2.83,-0.02 6.99,-0.41 10.7,-2.15c0.41,-0.19 0.9,-0.01 1.1,0.4c0.19,0.41 0.01,0.89 -0.4,1.09c-3.98,1.86 -8.39,2.28 -11.39,2.31c0,0 0,0 0,0" fill="#ffffff" fill-rule="nonzero" id="svg_93"/>
  <path d="m948.35,277.55c-0.01,0 -0.01,0 -0.02,0c-0.45,-0.01 -0.81,-0.38 -0.8,-0.83l0.34,-16.4c0.01,-0.45 0.38,-0.81 0.82,-0.81c0.01,0 0.01,0 0.02,0c0.45,0.01 0.81,0.39 0.8,0.84l-0.34,16.4c-0.01,0.45 -0.37,0.8 -0.82,0.8" fill="#000000" fill-rule="nonzero" id="svg_94"/>
  <path d="m900.83,310.96l-10.47,0c-0.45,0 -0.82,-0.37 -0.81,-0.83c0,-0.45 0.36,-0.82 0.82,-0.82l10.47,0.01c0.45,0 0.82,0.37 0.82,0.82c0,0.46 -0.37,0.82 -0.83,0.82" fill="#000000" fill-rule="nonzero" id="svg_95"/>
  <path d="m910.49,289.07c-0.13,0 -0.26,-0.03 -0.39,-0.11l-11.8,-6.39c-0.4,-0.22 -0.55,-0.71 -0.34,-1.12c0.22,-0.4 0.72,-0.54 1.12,-0.33l11.81,6.4c0.39,0.22 0.54,0.72 0.32,1.12c-0.14,0.27 -0.42,0.43 -0.72,0.43" fill="#000000" fill-rule="nonzero" id="svg_96"/>
  <path d="m995.49,310.96c-0.45,0 -0.82,-0.36 -0.82,-0.82c0,-0.45 0.37,-0.82 0.82,-0.82l10.47,-0.01c0,0 0,0 0,0c0.45,0 0.82,0.37 0.82,0.82c0.01,0.46 -0.36,0.83 -0.82,0.83l-10.46,0c-0.01,0 -0.01,0 -0.01,0" fill="#000000" fill-rule="nonzero" id="svg_97"/>
  <path d="m985.84,289.07c-0.3,0 -0.58,-0.16 -0.73,-0.43c-0.21,-0.4 -0.06,-0.9 0.34,-1.12l11.8,-6.4c0.4,-0.21 0.9,-0.07 1.11,0.33c0.22,0.41 0.07,0.9 -0.33,1.12l-11.8,6.39c-0.13,0.08 -0.26,0.11 -0.39,0.11" fill="#000000" fill-rule="nonzero" id="svg_98"/>
  <path d="m838.78,657.92c-2.42,8.26 -6.2,19.68 -2.01,25.16c7.61,9.97 13.93,8.37 23.32,4.94c18.8,-6.85 48.79,-17.68 57.54,-11.66l0.39,-18.44l-79.24,0" fill="#99b9ff" fill-rule="nonzero" id="svg_99"/>
  <path d="m976.05,688.05c-3.25,-24.16 -5.67,-39.62 -5.67,-39.62l-109.1,-18.97l-10.89,30.91c-3.26,9.36 -7.73,23.2 -11.89,40.22c-0.33,1.34 -0.7,2.88 -1.08,4.54c-0.58,2.49 1.09,4.96 3.62,5.32c42.35,6.05 89.64,1.1 132.66,-18.2c1.63,-0.72 2.59,-2.43 2.35,-4.2" fill="#000000" fill-rule="nonzero" id="svg_100"/>
  <path d="m946.55,481.13c15.61,-0.07 29.87,8.76 36.7,22.71c7.91,16.16 19.08,58.45 19.51,76.91c0.76,32.29 -27.51,34.1 -28.34,34.15c-0.01,0 -0.02,0.01 -0.02,0.02c0.09,0.93 3.39,36.01 3.65,42.24c0.48,11.39 -20.64,29.15 -44.89,20.4c-24.13,-8.71 -90.05,-26.06 -96.75,-11.29c-0.01,0.03 -0.04,0.02 -0.03,-0.01l27.65,-102.63c0.01,-0.01 0,-0.02 -0.02,-0.02l-22.7,1.09c0,0 -0.01,0 -0.01,0l-18.49,-10.7c-0.01,0 -0.01,-0.01 -0.01,-0.02l4.68,-20.74c8.9,-35.44 32.7,-51.7 63.4,-51.85l55.67,-0.26" fill="#5479f7" fill-rule="nonzero" id="svg_101"/>
  <path d="m873.75,560.31c-4.25,-0.78 -3.09,-5.7 -18,-6.6c-43.02,-2.56 -22.17,-24.41 2.48,-20.25c8.17,1.38 11.38,6.67 14.45,8.01c25.79,11.26 9.53,20.41 1.07,18.84" fill="#ffffff" fill-rule="nonzero" id="svg_102"/>
  <path d="m873.89,559.5c4.28,0.8 10.67,-1.37 11.76,-4.94c1.12,-3.67 -3.72,-8.16 -13.29,-12.34c-1.1,-0.47 -2.16,-1.36 -3.38,-2.38c-2.48,-2.08 -5.57,-4.67 -10.89,-5.57c-11.27,-1.9 -21.65,1.72 -25.18,6.32c-1.23,1.61 -1.51,3.16 -0.84,4.63c0.88,1.94 4.96,6.56 23.73,7.68c10.29,0.61 13.18,3.13 15.29,4.96c0.95,0.83 1.63,1.43 2.8,1.64zm1.93,1.81c-0.77,0 -1.52,-0.06 -2.22,-0.19c-1.62,-0.3 -2.58,-1.14 -3.59,-2.02c-1.94,-1.68 -4.58,-3.98 -14.3,-4.56c-14.05,-0.84 -22.98,-3.91 -25.14,-8.64c-0.91,-2.01 -0.54,-4.25 1.04,-6.31c3.83,-4.98 14.88,-8.94 26.75,-6.93c5.76,0.97 9.18,3.83 11.68,5.92c1.12,0.94 2.09,1.75 2.97,2.14c13.56,5.92 15.21,11.05 14.21,14.32c-1.18,3.88 -6.68,6.27 -11.4,6.27" fill="#000000" fill-rule="nonzero" id="svg_103"/>
  <path d="m927.91,487.18c1.43,-1.23 0.68,-3.58 -1.2,-3.8l-2.92,-0.36c-3.14,-0.37 -5.75,-2.46 -6.77,-5.34l-4.81,-35.5l-9.85,3.52l-13.04,-6.45l1.16,37.93c-0.09,3.31 -2.25,6.23 -5.43,7.37l-3.82,1.37c-2,0.71 -2.09,3.44 -0.15,4.28c7.76,3.39 39.31,3.41 46.83,-3.02" fill="#ffffff" fill-rule="nonzero" id="svg_104"/>
  <path d="m890.18,440.59l1.12,36.57c-0.1,3.72 -2.45,6.9 -5.98,8.16l-3.81,1.37c-0.61,0.22 -0.99,0.72 -1.01,1.35c-0.02,0.62 0.32,1.15 0.91,1.41c7.16,3.12 38.68,3.34 45.97,-2.9c0.4,-0.35 0.55,-0.86 0.39,-1.38c-0.12,-0.42 -0.5,-0.9 -1.16,-0.98l-2.92,-0.35c-3.46,-0.42 -6.31,-2.68 -7.44,-5.89c-0.02,-0.06 -0.04,-0.11 -0.04,-0.16l-4.67,-34.5l-8.9,3.19c-0.21,0.07 -0.44,0.06 -0.64,-0.04l-11.82,-5.85zm10.11,52.72c-8.42,0 -16.19,-0.89 -19.54,-2.36c-1.21,-0.52 -1.94,-1.66 -1.89,-2.96c0.04,-1.31 0.85,-2.4 2.1,-2.85l3.81,-1.36c2.89,-1.03 4.81,-3.63 4.89,-6.62l-1.16,-37.88c-0.01,-0.29 0.13,-0.57 0.38,-0.72c0.24,-0.16 0.55,-0.17 0.8,-0.04l12.73,6.29l9.53,-3.41c0.23,-0.08 0.49,-0.05 0.7,0.08c0.22,0.13 0.36,0.34 0.39,0.59l4.79,35.41c0.95,2.58 3.26,4.39 6.07,4.73l2.91,0.35c1.22,0.15 2.19,0.96 2.54,2.13c0.35,1.15 0,2.34 -0.9,3.11c-4.58,3.92 -16.94,5.51 -28.15,5.51" fill="#000000" fill-rule="nonzero" id="svg_105"/>
  <path d="m916.59,413.95c16.79,6.19 13.9,17.06 13.9,17.06c-0.21,2.99 -0.33,8.46 0.23,10.45c0.46,1.63 3.14,4.72 3.27,5.63c0.13,0.91 -1.32,2.77 -4.23,3.43c0,0 -1.1,14.53 -4.91,16.91c-3.81,2.39 -18.47,-2.18 -18.47,-2.18l-2.47,-0.99c-7.94,-3.19 -12.8,-9.81 -15.11,-18.02c0,0 -10.69,-46.46 27.79,-32.29" fill="#ffffff" fill-rule="nonzero" id="svg_106"/>
  <path d="m906.65,464.47c4.01,1.24 14.91,4.05 17.76,2.26c2.52,-1.57 4.12,-10.81 4.53,-16.27c0.03,-0.35 0.29,-0.66 0.64,-0.73c2.56,-0.59 3.63,-2.14 3.6,-2.53c-0.07,-0.28 -0.73,-1.25 -1.22,-1.96c-0.86,-1.25 -1.75,-2.55 -2.03,-3.56c-0.66,-2.36 -0.41,-8.55 -0.25,-10.73c0,-0.05 0.01,-0.11 0.02,-0.15c0.1,-0.42 2.44,-10.25 -13.4,-16.08c-10.06,-3.7 -17.52,-3.5 -22.18,0.6c-9.53,8.4 -4.57,30.52 -4.52,30.73c2.4,8.53 7.46,14.58 14.61,17.44l2.44,0.98zm14.61,4.46c-5.6,0 -13.94,-2.53 -15.13,-2.9c-0.02,-0.01 -0.04,-0.01 -0.06,-0.02l-2.46,-0.99c-7.65,-3.07 -13.04,-9.48 -15.6,-18.56c-0.23,-0.98 -5.23,-23.33 5.03,-32.37c5.14,-4.54 13.16,-4.84 23.83,-0.91c16.47,6.07 14.67,16.82 14.44,17.94c-0.22,3.15 -0.3,8.33 0.2,10.11c0.21,0.75 1.1,2.05 1.81,3.09c0.89,1.3 1.4,2.07 1.48,2.65c0.2,1.39 -1.49,3.37 -4.27,4.2c-0.27,3.03 -1.53,14.63 -5.25,16.96c-0.92,0.58 -2.35,0.8 -4.02,0.8" fill="#000000" fill-rule="nonzero" id="svg_107"/>
  <path d="m911.06,406.08c4.41,1.08 8.73,3.84 11.01,4.08c3.68,0.39 6.33,-4.33 10.98,-2.61c4.09,1.5 6.38,4.98 6.97,8.9c0.09,0.66 0.12,1.35 0.05,2.09c-0.86,9.91 -7.06,12.02 -9.58,12.47c0,0 -14.58,-1.35 -17.42,-0.66c-2.66,0.64 -6.78,4.78 -8.02,10.67c-0.16,0.76 -0.82,1.32 -1.6,1.37c-0.91,0.07 -1.73,-0.55 -1.89,-1.45c-0.49,-2.83 -1.82,-8.48 -4.68,-8.65c-3.35,-0.19 -7.61,6.42 -3.24,10.57c1.35,1.28 0.9,3.6 -0.82,4.3c-1.44,0.58 -3.23,0.61 -5.17,-0.96c0,0 -8.63,-15.14 -4.52,-27.91c4.12,-12.79 22.05,-13.65 27.93,-12.21" fill="#000000" fill-rule="nonzero" id="svg_108"/>
  <path d="m934.51,446.82c-0.22,0 -0.44,-0.09 -0.61,-0.27c-0.3,-0.33 -0.29,-0.85 0.05,-1.16c1.01,-0.93 1.74,-3.04 1.86,-5.37c0.08,-1.67 -0.15,-3.25 -0.65,-4.44c-0.41,-0.97 -0.96,-1.56 -1.49,-1.59c-0.84,-0.03 -2.05,1.46 -2.55,4.06c-0.08,0.45 -0.51,0.74 -0.96,0.66c-0.44,-0.09 -0.73,-0.52 -0.65,-0.97c0.63,-3.32 2.35,-5.5 4.24,-5.39c1.21,0.06 2.24,0.98 2.92,2.59c0.6,1.41 0.88,3.25 0.78,5.17c-0.15,2.77 -1.06,5.26 -2.39,6.49c-0.15,0.15 -0.35,0.22 -0.55,0.22" fill="#000000" fill-rule="nonzero" id="svg_109"/>
  <path d="m918.93,439.74l0,0zm4.56,-5.96c-1.87,0 -3.57,2.71 -3.74,6c-0.09,1.72 0.23,3.35 0.91,4.58c0.61,1.1 1.43,1.74 2.29,1.78c1.92,0.09 3.67,-2.65 3.84,-6c0.09,-1.72 -0.24,-3.34 -0.91,-4.57c-0.61,-1.11 -1.42,-1.74 -2.29,-1.78c-0.03,-0.01 -0.07,-0.01 -0.1,-0.01zm-0.44,14.01c-0.06,0 -0.12,-0.01 -0.18,-0.01c-1.46,-0.07 -2.75,-1.01 -3.64,-2.63c-0.83,-1.5 -1.23,-3.43 -1.12,-5.45c0.23,-4.39 2.68,-7.7 5.57,-7.56c1.45,0.08 2.74,1.01 3.64,2.63c0.82,1.5 1.22,3.44 1.11,5.46c-0.22,4.29 -2.57,7.56 -5.38,7.56" fill="#000000" fill-rule="nonzero" id="svg_110"/>
  <path d="m919.45,437.48c-0.02,0 -0.05,0 -0.07,0l-16.03,-1.44c-0.45,-0.04 -0.78,-0.43 -0.74,-0.89c0.03,-0.45 0.43,-0.78 0.89,-0.74l16.02,1.43c0.45,0.04 0.78,0.44 0.75,0.89c-0.04,0.43 -0.4,0.75 -0.82,0.75" fill="#000000" fill-rule="nonzero" id="svg_111"/>
  <path d="m893.9,506.75c0,0 6.24,9.79 11.86,8.06c2.95,-0.9 5.84,-10.56 7.01,-10.9c3.77,-1.1 10.95,-2.89 15.36,-10.76c4.11,-7.36 3.21,-11.28 2.15,-13.09c-0.49,-0.83 -0.48,-1.86 0.06,-2.66c0.79,-1.16 1.55,-2.92 0.76,-4.73c-0.28,-0.63 -0.26,-1.37 0.02,-2c1.04,-2.44 2.98,-8.04 -0.78,-9.14c-1.02,-0.3 -2.13,0.08 -2.75,0.93c-1.19,1.66 -3.68,4.76 -6.77,6.72c-4.36,2.78 -6.97,4.68 -9.16,5.92c-1.88,1.08 -2.87,-8.3 -7.38,-11.81c-4,-3.13 -5.36,-1.55 -5.76,-0.08c-0.4,1.47 2.07,2.05 3.49,9.03c1.65,8.17 -0.08,15.05 -0.58,18.73c-0.59,4.32 -7.53,15.78 -7.53,15.78" fill="#ffffff" fill-rule="nonzero" id="svg_112"/>
  <path d="m894.87,506.73c1.89,2.79 6.75,8.5 10.65,7.3c1.46,-0.45 3.27,-4.34 4.46,-6.92c1.25,-2.67 1.78,-3.76 2.57,-3.99l0.47,-0.14c3.86,-1.11 10.32,-2.97 14.39,-10.23c3.98,-7.11 3.06,-10.74 2.16,-12.27c-0.66,-1.13 -0.62,-2.48 0.09,-3.54c0.67,-0.99 1.33,-2.47 0.68,-3.94c-0.36,-0.82 -0.35,-1.79 0.02,-2.66c1.32,-3.06 1.71,-5.59 1.08,-6.93c-0.26,-0.55 -0.69,-0.91 -1.33,-1.09c-0.69,-0.21 -1.43,0.05 -1.85,0.63c-1.24,1.71 -3.81,4.89 -7,6.93c-1.89,1.2 -3.44,2.23 -4.81,3.14c-1.75,1.16 -3.13,2.08 -4.38,2.8c-0.37,0.2 -0.78,0.24 -1.16,0.11c-1.01,-0.36 -1.59,-1.85 -2.48,-4.11c-1.01,-2.59 -2.4,-6.13 -4.65,-7.89c-2.19,-1.7 -3.24,-1.72 -3.67,-1.57c-0.47,0.15 -0.69,0.66 -0.8,1.07c-0.05,0.19 0.06,0.4 0.53,1.11c0.78,1.18 2.09,3.16 2.97,7.54c1.42,7 0.42,13.02 -0.25,17c-0.12,0.74 -0.24,1.41 -0.31,2c-0.55,3.99 -6.07,13.46 -7.38,15.65zm9.52,9.11c-5.6,0 -10.93,-8.26 -11.18,-8.64c-0.17,-0.27 -0.17,-0.6 -0.01,-0.87c0.07,-0.12 6.86,-11.37 7.42,-15.47c0.08,-0.6 0.2,-1.29 0.32,-2.05c0.65,-3.86 1.62,-9.7 0.26,-16.4c-0.82,-4.07 -2.02,-5.88 -2.74,-6.97c-0.53,-0.81 -0.99,-1.51 -0.73,-2.44c0.3,-1.12 0.96,-1.9 1.86,-2.2c1.34,-0.44 3.04,0.16 5.2,1.84c2.6,2.04 4.09,5.82 5.17,8.58c0.45,1.14 1.05,2.68 1.43,3.09c1.18,-0.68 2.5,-1.56 4.16,-2.66c1.37,-0.91 2.92,-1.94 4.83,-3.16c2.96,-1.88 5.37,-4.88 6.55,-6.51c0.82,-1.14 2.28,-1.64 3.64,-1.24c1.1,0.32 1.89,0.98 2.36,1.97c1.08,2.3 0.02,5.77 -1.06,8.29c-0.19,0.45 -0.2,0.93 -0.02,1.34c0.75,1.71 0.46,3.61 -0.83,5.52c-0.36,0.53 -0.37,1.21 -0.03,1.78c1.31,2.25 2.01,6.47 -2.15,13.91c-4.39,7.84 -11.53,9.91 -15.36,11.01l-0.37,0.1c-0.34,0.36 -1.06,1.9 -1.64,3.14c-1.87,4.05 -3.47,7.18 -5.47,7.8c-0.53,0.17 -1.07,0.24 -1.61,0.24" fill="#000000" fill-rule="nonzero" id="svg_113"/>
  <path d="m914.46,511.09l-18.89,-12.05c0,0 -25.55,41.32 -44.89,55.34c-9.42,6.83 -27.69,-1.2 -27.69,-1.2c0,0 -17.54,67.44 16.31,77.07c56.41,16.06 75.16,-119.16 75.16,-119.16" fill="#5479f7" fill-rule="nonzero" id="svg_114"/>
  <path d="m971.45,616.53c-21.31,0 -51.97,-17.12 -72.64,-32.52c-0.36,-0.27 -0.44,-0.79 -0.17,-1.15c0.27,-0.36 0.79,-0.44 1.15,-0.17c21.71,16.18 54.46,34.27 75.31,32c0.45,-0.05 0.85,0.28 0.9,0.73c0.05,0.45 -0.27,0.86 -0.72,0.9c-1.24,0.14 -2.52,0.21 -3.83,0.21" fill="#caddff" fill-rule="nonzero" id="svg_115"/>
  <path d="m942.7,564.57c-11.82,0 -33.58,-10.19 -34.59,-10.67c-0.41,-0.19 -0.59,-0.68 -0.4,-1.09c0.2,-0.41 0.69,-0.58 1.09,-0.39c0.27,0.12 26.96,12.63 36.81,10.21c16.55,-4.06 12.61,-25.27 12.57,-25.49c-0.09,-0.44 0.21,-0.87 0.65,-0.96c0.45,-0.09 0.88,0.2 0.96,0.65c0.05,0.22 4.26,22.97 -13.79,27.4c-0.98,0.23 -2.09,0.34 -3.3,0.34" fill="#caddff" fill-rule="nonzero" id="svg_116"/>
  <path d="m849.02,557.16c-0.25,0 -0.5,-0.11 -0.66,-0.32c-0.27,-0.37 -0.19,-0.88 0.17,-1.15c20.35,-15.22 45.58,-56.99 45.83,-57.4c0.23,-0.4 0.74,-0.52 1.13,-0.29c0.39,0.24 0.51,0.74 0.28,1.13c-0.25,0.42 -25.65,42.46 -46.26,57.87c-0.14,0.11 -0.32,0.16 -0.49,0.16" fill="#caddff" fill-rule="nonzero" id="svg_117"/>
  <path d="m847.39,633.06c-0.73,0 -1.46,-0.03 -2.2,-0.1c-0.45,-0.03 -0.78,-0.43 -0.74,-0.89c0.03,-0.45 0.43,-0.78 0.88,-0.74c23.22,2.01 40.53,-30.71 50.98,-58.5c10.58,-28.14 16.4,-57.06 17.24,-61.35l-7.76,-4.95c-0.39,-0.24 -0.5,-0.75 -0.26,-1.13c0.24,-0.38 0.75,-0.5 1.13,-0.26l8.24,5.25c0.29,0.18 0.43,0.52 0.37,0.84c-0.06,0.32 -5.97,31.68 -17.42,62.16c-6.74,17.94 -14.06,32.07 -21.75,42.01c-9.08,11.73 -18.72,17.66 -28.71,17.66" fill="#caddff" fill-rule="nonzero" id="svg_118"/>
  <path d="m1179.51,622.24c-14.04,-3.67 -22.44,-18.02 -18.77,-32.06c3.67,-14.04 18.02,-22.45 32.05,-18.78c14.03,3.67 22.43,18.03 18.76,32.06c-3.66,14.04 -18.01,22.45 -32.04,18.78zm56.41,-7.13l2.58,-9.88l-9.89,-5.12c0.18,-2.39 0.17,-4.77 -0.04,-7.11l9.82,-5.23l-2.7,-9.84l-11.13,0.51c-1.02,-2.14 -2.22,-4.19 -3.59,-6.13l5.9,-9.46l-7.26,-7.17l-9.37,6c-1.94,-1.33 -4.01,-2.5 -6.19,-3.51l0.38,-11.14l-9.87,-2.58l-5.12,9.9c-2.4,-0.19 -4.77,-0.17 -7.11,0.03l-5.24,-9.82l-9.83,2.7l0.51,11.14c-2.14,1.02 -4.19,2.23 -6.13,3.59l-9.46,-5.9l-7.16,7.26l6,9.38c-1.33,1.93 -2.5,4 -3.51,6.18l-11.13,-0.37l-2.59,9.87l9.9,5.12c-0.19,2.4 -0.17,4.77 0.03,7.11l-9.81,5.24l2.7,9.84l11.12,-0.51c1.03,2.13 2.23,4.18 3.59,6.13l-5.89,9.46l7.25,7.17l9.38,-6.01c1.94,1.33 4.01,2.5 6.18,3.51l-0.38,11.14l9.88,2.58l5.12,-9.9c2.39,0.19 4.77,0.18 7.1,-0.03l5.24,9.82l9.84,-2.7l-0.52,-11.14c2.14,-1.02 4.19,-2.22 6.13,-3.58l9.46,5.89l7.17,-7.26l-6,-9.37c1.33,-1.94 2.5,-4.01 3.51,-6.19l11.13,0.38" fill="#5479f7" fill-rule="nonzero" id="svg_119"/>
  <path d="m1183.61,567.04c-11.29,0 -21.63,7.59 -24.62,19.01c-1.71,6.58 -0.77,13.43 2.66,19.3c3.44,5.87 8.95,10.04 15.53,11.76c6.57,1.72 13.42,0.78 19.28,-2.66c5.87,-3.43 10.05,-8.95 11.77,-15.52c1.72,-6.58 0.77,-13.43 -2.66,-19.3c-3.44,-5.87 -8.95,-10.04 -15.53,-11.76c-2.14,-0.57 -4.31,-0.83 -6.43,-0.83zm0.05,52.55c-2.3,0 -4.62,-0.29 -6.9,-0.89c-7,-1.83 -12.87,-6.27 -16.53,-12.52c-3.65,-6.24 -4.65,-13.54 -2.82,-20.54c1.82,-7 6.27,-12.87 12.52,-16.53c6.24,-3.65 13.53,-4.66 20.53,-2.83c7,1.83 12.86,6.27 16.52,12.52c3.66,6.25 4.66,13.54 2.83,20.54c-1.83,7 -6.27,12.87 -12.51,16.53c-4.21,2.46 -8.89,3.72 -13.64,3.72zm-17.49,22.06l8.6,2.25l4.82,-9.32c0.15,-0.29 0.46,-0.46 0.79,-0.44c2.35,0.19 4.7,0.18 6.97,-0.03c0.33,-0.03 0.65,0.14 0.8,0.43l4.93,9.25l8.57,-2.36l-0.48,-10.48c-0.02,-0.33 0.17,-0.63 0.46,-0.77c2.09,-1.01 4.12,-2.2 6.01,-3.53c0.27,-0.19 0.63,-0.2 0.91,-0.02l8.9,5.55l6.25,-6.33l-5.65,-8.82c-0.18,-0.28 -0.17,-0.64 0.01,-0.9c1.3,-1.9 2.45,-3.93 3.44,-6.08c0.14,-0.29 0.45,-0.48 0.77,-0.47l10.48,0.35l2.25,-8.6l-9.31,-4.82c-0.3,-0.15 -0.47,-0.46 -0.44,-0.79c0.18,-2.35 0.17,-4.7 -0.04,-6.97c-0.02,-0.33 0.15,-0.65 0.44,-0.8l9.24,-4.93l-2.35,-8.58l-10.49,0.49c-0.31,0.01 -0.63,-0.17 -0.77,-0.47c-1.01,-2.09 -2.19,-4.12 -3.52,-6.01c-0.19,-0.27 -0.2,-0.63 -0.03,-0.91l5.56,-8.9l-6.33,-6.25l-8.82,5.65c-0.28,0.17 -0.64,0.17 -0.91,-0.01c-1.88,-1.3 -3.92,-2.46 -6.06,-3.44c-0.3,-0.14 -0.49,-0.45 -0.47,-0.78l0.35,-10.48l-8.6,-2.25l-4.82,9.32c-0.15,0.29 -0.47,0.46 -0.79,0.44c-2.35,-0.18 -4.7,-0.18 -6.98,0.03c-0.32,0.02 -0.64,-0.14 -0.79,-0.43l-4.93,-9.24l-8.57,2.35l0.48,10.48c0.02,0.33 -0.17,0.63 -0.46,0.78c-2.1,1 -4.12,2.19 -6.02,3.52c-0.27,0.19 -0.62,0.2 -0.9,0.02l-8.9,-5.55l-6.25,6.33l5.65,8.82c0.18,0.28 0.17,0.64 -0.01,0.91c-1.3,1.88 -2.45,3.92 -3.44,6.07c-0.14,0.3 -0.44,0.48 -0.78,0.47l-10.48,-0.35l-2.25,8.6l9.32,4.82c0.29,0.15 0.47,0.46 0.44,0.8c-0.18,2.34 -0.17,4.69 0.03,6.96c0.03,0.34 -0.14,0.65 -0.43,0.81l-9.24,4.92l2.35,8.58l10.48,-0.49c0.32,-0.01 0.64,0.18 0.78,0.47c1,2.09 2.18,4.12 3.52,6.01c0.18,0.27 0.2,0.63 0.02,0.91l-5.55,8.9l6.33,6.25l8.81,-5.65c0.29,-0.18 0.64,-0.17 0.91,0.01c1.89,1.3 3.93,2.46 6.07,3.44c0.3,0.14 0.49,0.45 0.47,0.78l-0.35,10.48zm9.03,4.03c-0.07,0 -0.14,-0.01 -0.21,-0.03l-9.87,-2.58c-0.37,-0.09 -0.63,-0.44 -0.61,-0.82l0.36,-10.6c-1.88,-0.89 -3.68,-1.91 -5.36,-3.04l-8.92,5.72c-0.32,0.21 -0.74,0.16 -1.02,-0.11l-7.26,-7.17c-0.27,-0.27 -0.32,-0.69 -0.11,-1.02l5.6,-9c-1.15,-1.69 -2.19,-3.48 -3.1,-5.31l-10.6,0.49c-0.39,0.01 -0.72,-0.23 -0.83,-0.6l-2.7,-9.84c-0.1,-0.38 0.07,-0.77 0.41,-0.95l9.34,-4.98c-0.15,-2.02 -0.16,-4.09 -0.02,-6.16l-9.42,-4.87c-0.34,-0.18 -0.52,-0.57 -0.42,-0.94l2.58,-9.87c0.1,-0.37 0.44,-0.63 0.82,-0.62l10.6,0.36c0.89,-1.88 1.92,-3.67 3.04,-5.36l-5.71,-8.92c-0.21,-0.32 -0.16,-0.75 0.1,-1.02l7.17,-7.26c0.27,-0.27 0.69,-0.32 1.02,-0.12l9,5.62c1.69,-1.16 3.47,-2.2 5.31,-3.11l-0.49,-10.6c-0.02,-0.38 0.23,-0.73 0.6,-0.83l9.84,-2.7c0.37,-0.1 0.76,0.06 0.94,0.4l4.98,9.35c2.02,-0.16 4.09,-0.16 6.16,-0.03l4.87,-9.42c0.17,-0.34 0.57,-0.51 0.94,-0.41l9.87,2.58c0.37,0.09 0.62,0.43 0.61,0.82l-0.36,10.6c1.88,0.89 3.67,1.91 5.36,3.04l8.92,-5.72c0.32,-0.2 0.74,-0.16 1.01,0.11l7.26,7.17c0.28,0.27 0.33,0.7 0.12,1.02l-5.61,9c1.16,1.69 2.2,3.47 3.11,5.31l10.6,-0.49c0.37,-0.02 0.72,0.23 0.83,0.61l2.69,9.84c0.11,0.37 -0.06,0.76 -0.4,0.94l-9.34,4.98c0.15,2.02 0.16,4.09 0.02,6.16l9.42,4.88c0.34,0.17 0.51,0.56 0.42,0.93l-2.58,9.87c-0.1,0.38 -0.45,0.62 -0.82,0.62l-10.6,-0.36c-0.9,1.87 -1.91,3.67 -3.04,5.36l5.71,8.92c0.21,0.32 0.17,0.75 -0.1,1.02l-7.17,7.26c-0.27,0.27 -0.69,0.32 -1.02,0.12l-9,-5.62c-1.69,1.16 -3.47,2.21 -5.31,3.11l0.49,10.6c0.02,0.38 -0.23,0.73 -0.6,0.83l-9.84,2.7c-0.37,0.1 -0.76,-0.06 -0.94,-0.4l-4.99,-9.35c-2.01,0.16 -4.08,0.17 -6.15,0.03l-4.87,9.42c-0.14,0.28 -0.43,0.44 -0.73,0.44" fill="#000000" fill-rule="nonzero" id="svg_120"/>
  <path d="m1232.82,538.48c-9.9,-0.91 -17.17,-9.68 -16.25,-19.58c0.92,-9.9 9.69,-17.17 19.58,-16.24c9.89,0.91 17.17,9.68 16.24,19.58c-0.92,9.9 -9.68,17.17 -19.57,16.24zm37.33,-11.07l0.65,-6.96l-7.26,-2.37c-0.13,-1.64 -0.41,-3.24 -0.81,-4.8l6.06,-4.63l-2.92,-6.35l-7.47,1.58c-0.93,-1.33 -1.97,-2.58 -3.1,-3.74l2.93,-7.05l-5.7,-4.04l-5.66,5.09c-1.46,-0.68 -2.99,-1.24 -4.58,-1.68l-0.97,-7.57l-6.96,-0.65l-2.37,7.26c-1.63,0.14 -3.24,0.41 -4.79,0.81l-4.63,-6.06l-6.35,2.92l1.58,7.47c-1.33,0.93 -2.59,1.97 -3.75,3.11l-7.04,-2.94l-4.04,5.71l5.09,5.66c-0.68,1.46 -1.24,2.99 -1.68,4.57l-7.57,0.98l-0.65,6.97l7.26,2.36c0.14,1.64 0.41,3.24 0.81,4.8l-6.05,4.63l2.92,6.35l7.46,-1.58c0.93,1.33 1.97,2.58 3.11,3.74l-2.94,7.05l5.7,4.04l5.67,-5.09c1.45,0.68 2.98,1.24 4.57,1.68l0.98,7.57l6.96,0.65l2.36,-7.26c1.64,-0.14 3.24,-0.41 4.8,-0.81l4.63,6.06l6.35,-2.92l-1.58,-7.47c1.33,-0.93 2.58,-1.97 3.74,-3.11l7.05,2.94l4.04,-5.7l-5.1,-5.67c0.69,-1.46 1.24,-2.99 1.68,-4.57l7.57,-0.98" fill="#5479f7" fill-rule="nonzero" id="svg_121"/>
  <path d="m1232.26,500.75c-3.99,0 -7.82,1.38 -10.94,3.96c-3.52,2.93 -5.7,7.06 -6.13,11.62c-0.42,4.57 0.95,9.03 3.89,12.56c2.92,3.53 7.05,5.71 11.62,6.13c0.53,0.05 1.07,0.08 1.6,0.08c8.75,0 16.25,-6.69 17.08,-15.58c0.42,-4.57 -0.95,-9.03 -3.88,-12.56c-2.93,-3.53 -7.05,-5.71 -11.62,-6.14c-0.54,-0.05 -1.08,-0.07 -1.62,-0.07zm0.04,35.99c-0.58,0 -1.17,-0.03 -1.76,-0.08c-5,-0.47 -9.52,-2.86 -12.73,-6.72c-3.21,-3.87 -4.72,-8.76 -4.25,-13.76c0.46,-5.01 2.85,-9.53 6.72,-12.73c3.86,-3.22 8.75,-4.72 13.75,-4.26c5.01,0.47 9.52,2.85 12.74,6.72c3.2,3.87 4.71,8.75 4.25,13.76c-0.91,9.74 -9.13,17.07 -18.72,17.07zm35.65,-11.98l0.01,0l-0.01,0zm-41.76,28.09l5.65,0.53l2.15,-6.64c0.11,-0.32 0.39,-0.54 0.71,-0.56c1.6,-0.14 3.17,-0.4 4.67,-0.79c0.32,-0.09 0.66,0.03 0.86,0.29l4.23,5.54l5.16,-2.37l-1.45,-6.83c-0.07,-0.32 0.06,-0.65 0.33,-0.84c1.29,-0.9 2.52,-1.92 3.64,-3.02c0.24,-0.23 0.58,-0.3 0.89,-0.17l6.44,2.68l3.28,-4.63l-4.66,-5.18c-0.22,-0.25 -0.27,-0.6 -0.13,-0.9c0.66,-1.41 1.21,-2.9 1.64,-4.44c0.08,-0.32 0.35,-0.55 0.68,-0.59l6.92,-0.9l0.53,-5.65l-6.64,-2.16c-0.31,-0.11 -0.53,-0.39 -0.56,-0.72c-0.14,-1.59 -0.4,-3.16 -0.78,-4.66c-0.09,-0.32 0.03,-0.66 0.29,-0.86l5.53,-4.23l-2.36,-5.16l-6.83,1.45c-0.33,0.07 -0.66,-0.06 -0.84,-0.34c-0.91,-1.29 -1.92,-2.51 -3.02,-3.63c-0.23,-0.24 -0.3,-0.59 -0.17,-0.89l2.68,-6.45l-4.63,-3.28l-5.18,4.66c-0.25,0.22 -0.6,0.27 -0.9,0.13c-1.41,-0.66 -2.9,-1.21 -4.44,-1.63c-0.32,-0.09 -0.55,-0.36 -0.59,-0.69l-0.9,-6.92l-5.65,-0.53l-2.16,6.64c-0.1,0.31 -0.38,0.53 -0.71,0.57c-1.6,0.13 -3.16,0.39 -4.67,0.78c-0.32,0.08 -0.65,-0.03 -0.85,-0.3l-4.24,-5.53l-5.15,2.37l1.45,6.82c0.06,0.33 -0.07,0.66 -0.34,0.85c-1.29,0.9 -2.51,1.92 -3.64,3.02c-0.23,0.23 -0.58,0.29 -0.88,0.17l-6.45,-2.68l-3.28,4.63l4.66,5.18c0.22,0.24 0.27,0.6 0.13,0.9c-0.65,1.4 -1.2,2.9 -1.63,4.44c-0.09,0.31 -0.36,0.55 -0.69,0.59l-6.91,0.9l-0.53,5.65l6.63,2.16c0.32,0.1 0.54,0.39 0.56,0.71c0.14,1.6 0.41,3.17 0.8,4.67c0.07,0.32 -0.04,0.66 -0.3,0.86l-5.54,4.23l2.37,5.16l6.83,-1.45c0.32,-0.07 0.65,0.07 0.84,0.33c0.9,1.29 1.92,2.52 3.01,3.65c0.24,0.23 0.31,0.58 0.18,0.88l-2.68,6.45l4.63,3.28l5.18,-4.66c0.24,-0.22 0.6,-0.27 0.89,-0.13c1.41,0.65 2.9,1.2 4.44,1.63c0.32,0.09 0.56,0.36 0.6,0.69l0.9,6.92zm6.22,2.22c-0.02,0 -0.05,0 -0.07,0l-6.96,-0.65c-0.38,-0.04 -0.69,-0.33 -0.74,-0.71l-0.91,-7.03c-1.27,-0.38 -2.5,-0.83 -3.68,-1.36l-5.26,4.74c-0.29,0.25 -0.72,0.28 -1.03,0.06l-5.7,-4.04c-0.31,-0.22 -0.43,-0.63 -0.28,-0.99l2.73,-6.55c-0.9,-0.95 -1.74,-1.96 -2.5,-3.01l-6.94,1.47c-0.37,0.08 -0.76,-0.11 -0.92,-0.46l-2.92,-6.35c-0.16,-0.35 -0.05,-0.76 0.25,-0.99l5.63,-4.31c-0.3,-1.26 -0.51,-2.55 -0.65,-3.86l-6.75,-2.2c-0.36,-0.12 -0.59,-0.47 -0.55,-0.86l0.64,-6.96c0.04,-0.38 0.33,-0.69 0.71,-0.74l7.04,-0.91c0.37,-1.26 0.83,-2.5 1.35,-3.67l-4.74,-5.27c-0.25,-0.29 -0.28,-0.71 -0.05,-1.03l4.03,-5.7c0.23,-0.31 0.64,-0.43 0.99,-0.28l6.55,2.73c0.95,-0.9 1.96,-1.74 3.01,-2.5l-1.48,-6.94c-0.07,-0.38 0.12,-0.76 0.47,-0.92l6.35,-2.92c0.35,-0.16 0.76,-0.06 0.99,0.25l4.3,5.63c1.26,-0.3 2.56,-0.52 3.86,-0.65l2.2,-6.75c0.12,-0.36 0.48,-0.6 0.86,-0.56l6.96,0.65c0.38,0.03 0.68,0.33 0.73,0.71l0.91,7.04c1.27,0.37 2.5,0.82 3.68,1.35l5.27,-4.74c0.28,-0.25 0.71,-0.28 1.02,-0.06l5.7,4.04c0.32,0.22 0.43,0.63 0.29,0.99l-2.73,6.55c0.89,0.95 1.73,1.95 2.5,3.01l6.93,-1.47c0.38,-0.08 0.76,0.11 0.92,0.46l2.92,6.35c0.16,0.35 0.05,0.76 -0.25,1l-5.63,4.3c0.3,1.25 0.52,2.55 0.65,3.86l6.75,2.2c0.36,0.12 0.6,0.47 0.56,0.86l-0.65,6.96c-0.03,0.37 -0.33,0.68 -0.71,0.73l-7.03,0.91c-0.38,1.27 -0.83,2.5 -1.36,3.68l4.74,5.27c0.26,0.28 0.28,0.71 0.06,1.02l-4.04,5.71c-0.22,0.31 -0.63,0.43 -0.98,0.28l-6.56,-2.73c-0.94,0.9 -1.95,1.73 -3.01,2.5l1.48,6.94c0.08,0.38 -0.11,0.76 -0.46,0.92l-6.35,2.92c-0.35,0.16 -0.76,0.05 -1,-0.25l-4.3,-5.63c-1.25,0.3 -2.55,0.52 -3.86,0.65l-2.19,6.75c-0.12,0.34 -0.43,0.56 -0.79,0.56" fill="#000000" fill-rule="nonzero" id="svg_122"/>
  <path d="m1150,476.96c-8.47,11.59 -24.73,14.11 -36.3,5.65c-11.59,-8.47 -14.11,-24.73 -5.65,-36.32c8.47,-11.58 24.72,-14.11 36.31,-5.64c11.58,8.47 14.1,24.73 5.64,36.31zm-3.38,-40.53c-13.81,-10.1 -33.19,-7.09 -43.28,6.72c-10.1,13.82 -7.09,33.21 6.72,43.3c13.81,10.1 33.19,7.09 43.29,-6.73c10.09,-13.81 7.08,-33.19 -6.73,-43.29" fill="#000000" fill-rule="nonzero" id="svg_123"/>
  <path d="m1079.49,531.5c-1.92,-1.4 -2.33,-4.09 -0.94,-6l32.48,-44.44l6.94,5.08l-32.48,44.43c-1.4,1.91 -4.09,2.34 -6,0.93" fill="#000000" fill-rule="nonzero" id="svg_124"/>
  <path d="m1143.26,479.96c-0.24,0 -0.48,-0.11 -0.64,-0.31c-0.29,-0.36 -0.23,-0.87 0.12,-1.15c5.18,-4.14 8.15,-10.3 8.15,-16.91c0,-3.38 -0.76,-6.61 -2.25,-9.6c-0.2,-0.41 -0.03,-0.9 0.38,-1.1c0.4,-0.2 0.89,-0.04 1.1,0.37c1.59,3.22 2.41,6.7 2.41,10.33c0,7.11 -3.2,13.75 -8.76,18.18c-0.15,0.13 -0.34,0.19 -0.51,0.19" fill="#ffffff" fill-rule="nonzero" id="svg_125"/>
  <path d="m1144.66,446.07c-0.2,0 -0.41,-0.07 -0.57,-0.22c-1.88,-1.77 -4.03,-3.18 -6.4,-4.19c-0.42,-0.17 -0.62,-0.65 -0.44,-1.07c0.18,-0.42 0.66,-0.61 1.07,-0.43c2.56,1.07 4.88,2.59 6.9,4.5c0.33,0.31 0.35,0.83 0.04,1.16c-0.17,0.17 -0.38,0.25 -0.6,0.25" fill="#ffffff" fill-rule="nonzero" id="svg_126"/>
  <path d="m1129.27,484.85c-11.94,0 -21.88,-8.95 -23.12,-20.82c-0.05,-0.45 0.28,-0.85 0.73,-0.9c0.44,-0.05 0.85,0.28 0.9,0.73c1.15,11.03 10.39,19.34 21.49,19.34c0.98,0 1.96,-0.06 2.92,-0.19c0.45,-0.06 0.86,0.26 0.92,0.7c0.06,0.45 -0.25,0.87 -0.7,0.93c-1.03,0.14 -2.09,0.21 -3.14,0.21" fill="#ffffff" fill-rule="nonzero" id="svg_127"/>
  <g fill="#216ad9" id="svg_165">
   <g id="svg_166" transform="translate(420.886105, 181.418682)">
    <g id="svg_167"/>
   </g>
  </g>
  <g fill="#216ad9" id="svg_300">
   <g id="svg_301" transform="translate(928.983427, 101.918686)">
    <g id="svg_302"/>
   </g>
  </g>
  <g fill="#216ad9" id="svg_315">
   <g id="svg_316" transform="translate(966.229401, 101.918686)">
    <g id="svg_317"/>
   </g>
  </g>
  <g fill="#216ad9" id="svg_370">
   <g id="svg_371" transform="translate(1127.430767, 101.918686)">
    <g id="svg_372"/>
   </g>
  </g>
  <g fill="#216ad9" id="svg_393">
   <g id="svg_394" transform="translate(1178.664384, 101.918686)">
    <g id="svg_395"/>
   </g>
  </g>
  <g fill="#216ad9" id="svg_412">
   <g id="svg_413" transform="translate(1222.976318, 101.918686)">
    <g id="svg_414"/>
   </g>
  </g>
  <g fill="#216ad9" id="svg_435">
   <g id="svg_436" transform="translate(822.72512, 136.418684)">
    <g id="svg_437"/>
   </g>
  </g>
  <g fill="#216ad9" id="svg_454">
   <g id="svg_455" transform="translate(875.566049, 136.418684)">
    <g id="svg_456"/>
   </g>
  </g>
  <g fill="#216ad9" id="svg_465">
   <g id="svg_466" transform="translate(903.768352, 136.418684)">
    <g id="svg_467"/>
   </g>
  </g>
  <g fill="#216ad9" id="svg_504">
   <g id="svg_505" transform="translate(988.9929, 136.418684)">
    <g id="svg_506"/>
   </g>
  </g>
  <g fill="#216ad9" id="svg_543">
   <g id="svg_544" transform="translate(1091.419714, 136.418684)">
    <g id="svg_545"/>
   </g>
  </g>
  <g fill="#216ad9" id="svg_578">
   <g id="svg_579" transform="translate(1168.568865, 136.418684)">
    <g id="svg_580"/>
   </g>
  </g>
  <g fill="#216ad9" id="svg_593">
   <g id="svg_594" transform="translate(1212.469132, 136.418684)">
    <g id="svg_595"/>
   </g>
  </g>
  <g fill="#216ad9" id="svg_616">
   <g id="svg_617" transform="translate(1273.200086, 136.418684)">
    <g id="svg_618"/>
   </g>
  </g>
  <g fill="#216ad9" id="svg_639">
   <g id="svg_640" transform="translate(819.42849, 170.918683)">
    <g id="svg_641"/>
   </g>
  </g>
  <g fill="#216ad9" id="svg_670">
   <g id="svg_671" transform="translate(910.916687, 170.918683)">
    <g id="svg_672"/>
   </g>
  </g>
  <g fill="#216ad9" id="svg_681">
   <g id="svg_682" transform="translate(940.80831, 170.918683)">
    <g id="svg_683"/>
   </g>
  </g>
  <g fill="#216ad9" id="svg_696">
   <g id="svg_697" transform="translate(977.127209, 170.918683)">
    <g id="svg_698"/>
   </g>
  </g>
  <g fill="#216ad9" id="svg_727">
   <g id="svg_728" transform="translate(1062.785157, 170.918683)">
    <g id="svg_729"/>
   </g>
  </g>
  <g fill="#216ad9" id="svg_738">
   <g id="svg_739" transform="translate(1086.269714, 170.918683)">
    <g id="svg_740"/>
   </g>
  </g>
  <g fill="#216ad9" id="svg_757">
   <g id="svg_758" transform="translate(1134.125081, 170.918683)">
    <g id="svg_759"/>
   </g>
  </g>
  <g fill="#ffffff" id="svg_824">
   <g id="svg_825" transform="translate(315.469602, 293.028521)">
    <g id="svg_826"/>
   </g>
  </g>
  <g fill="#ffffff" id="svg_1003">
   <g id="svg_1004" transform="translate(386.51028, 325.170239)">
    <g id="svg_1005"/>
   </g>
  </g>
  <g fill="#ffffff" id="svg_1018">
   <g id="svg_1019" transform="translate(416.532091, 325.170239)">
    <g id="svg_1020"/>
   </g>
  </g>
  <g fill="#ffffff" id="svg_1073">
   <g id="svg_1074" transform="translate(546.466816, 325.170239)">
    <g id="svg_1075"/>
   </g>
  </g>
  <g fill="#ffffff" id="svg_1096">
   <g id="svg_1097" transform="translate(587.763231, 325.170239)">
    <g id="svg_1098"/>
   </g>
  </g>
  <g fill="#ffffff" id="svg_1115">
   <g id="svg_1116" transform="translate(623.480469, 325.170239)">
    <g id="svg_1117"/>
   </g>
  </g>
  <g fill="#ffffff" id="svg_1138">
   <g id="svg_1139" transform="translate(300.861717, 348.420238)">
    <g id="svg_1140"/>
   </g>
  </g>
  <g fill="#ffffff" id="svg_1157">
   <g id="svg_1158" transform="translate(343.453655, 348.420238)">
    <g id="svg_1159"/>
   </g>
  </g>
  <g fill="#ffffff" id="svg_1168">
   <g id="svg_1169" transform="translate(366.185872, 348.420238)">
    <g id="svg_1170"/>
   </g>
  </g>
  <g fill="#ffffff" id="svg_1207">
   <g id="svg_1208" transform="translate(434.880426, 348.420238)">
    <g id="svg_1209"/>
   </g>
  </g>
  <g fill="#ffffff" id="svg_1246">
   <g id="svg_1247" transform="translate(517.440595, 348.420238)">
    <g id="svg_1248"/>
   </g>
  </g>
  <g fill="#ffffff" id="svg_1281">
   <g id="svg_1282" transform="translate(579.626047, 348.420238)">
    <g id="svg_1283"/>
   </g>
  </g>
  <g fill="#ffffff" id="svg_1296">
   <g id="svg_1297" transform="translate(615.011452, 348.420238)">
    <g id="svg_1298"/>
   </g>
  </g>
  <g fill="#ffffff" id="svg_1319">
   <g id="svg_1320" transform="translate(663.970582, 348.420238)">
    <g id="svg_1321"/>
   </g>
  </g>
  <g fill="#ffffff" id="svg_1374">
   <g id="svg_1375" transform="translate(386.51028, 499.261411)">
    <g id="svg_1376"/>
   </g>
  </g>
  <g fill="#ffffff" id="svg_1389">
   <g id="svg_1390" transform="translate(416.532091, 499.261411)">
    <g id="svg_1391"/>
   </g>
  </g>
  <g fill="#ffffff" id="svg_1444">
   <g id="svg_1445" transform="translate(546.466816, 499.261411)">
    <g id="svg_1446"/>
   </g>
  </g>
  <g fill="#ffffff" id="svg_1467">
   <g id="svg_1468" transform="translate(587.763231, 499.261411)">
    <g id="svg_1469"/>
   </g>
  </g>
  <g fill="#ffffff" id="svg_1486">
   <g id="svg_1487" transform="translate(623.480469, 499.261411)">
    <g id="svg_1488"/>
   </g>
  </g>
  <g fill="#ffffff" id="svg_1509">
   <g id="svg_1510" transform="translate(300.861717, 522.51141)">
    <g id="svg_1511"/>
   </g>
  </g>
  <g fill="#ffffff" id="svg_1528">
   <g id="svg_1529" transform="translate(343.453655, 522.51141)">
    <g id="svg_1530"/>
   </g>
  </g>
  <g fill="#ffffff" id="svg_1539">
   <g id="svg_1540" transform="translate(366.185872, 522.51141)">
    <g id="svg_1541"/>
   </g>
  </g>
  <g fill="#ffffff" id="svg_1578">
   <g id="svg_1579" transform="translate(434.880426, 522.51141)">
    <g id="svg_1580"/>
   </g>
  </g>
  <g fill="#ffffff" id="svg_1617">
   <g id="svg_1618" transform="translate(517.440595, 522.51141)">
    <g id="svg_1619"/>
   </g>
  </g>
  <g fill="#ffffff" id="svg_1652">
   <g id="svg_1653" transform="translate(579.626047, 522.51141)">
    <g id="svg_1654"/>
   </g>
  </g>
  <g fill="#ffffff" id="svg_1667">
   <g id="svg_1668" transform="translate(615.011452, 522.51141)">
    <g id="svg_1669"/>
   </g>
  </g>
  <g fill="#ffffff" id="svg_1690">
   <g id="svg_1691" transform="translate(663.970582, 522.51141)">
    <g id="svg_1692"/>
   </g>
  </g>
  <g fill="#ffffff" id="svg_1745">
   <g id="svg_1746" transform="translate(386.51028, 673.352338)">
    <g id="svg_1747"/>
   </g>
  </g>
  <g fill="#ffffff" id="svg_1760">
   <g id="svg_1761" transform="translate(416.532091, 673.352338)">
    <g id="svg_1762"/>
   </g>
  </g>
  <g fill="#ffffff" id="svg_1815">
   <g id="svg_1816" transform="translate(546.466816, 673.352338)">
    <g id="svg_1817"/>
   </g>
  </g>
  <g fill="#ffffff" id="svg_1838">
   <g id="svg_1839" transform="translate(587.763231, 673.352338)">
    <g id="svg_1840"/>
   </g>
  </g>
  <g fill="#ffffff" id="svg_1857">
   <g id="svg_1858" transform="translate(623.480469, 673.352338)">
    <g id="svg_1859"/>
   </g>
  </g>
  <g fill="#ffffff" id="svg_1880">
   <g id="svg_1881" transform="translate(300.861717, 696.602337)">
    <g id="svg_1882"/>
   </g>
  </g>
  <g fill="#ffffff" id="svg_1899">
   <g id="svg_1900" transform="translate(343.453655, 696.602337)">
    <g id="svg_1901"/>
   </g>
  </g>
  <g fill="#ffffff" id="svg_1910">
   <g id="svg_1911" transform="translate(366.185872, 696.602337)">
    <g id="svg_1912"/>
   </g>
  </g>
  <g fill="#ffffff" id="svg_1949">
   <g id="svg_1950" transform="translate(434.880426, 696.602337)">
    <g id="svg_1951"/>
   </g>
  </g>
  <g fill="#ffffff" id="svg_1988">
   <g id="svg_1989" transform="translate(517.440595, 696.602337)">
    <g id="svg_1990"/>
   </g>
  </g>
  <g fill="#ffffff" id="svg_2023">
   <g id="svg_2024" transform="translate(579.626047, 696.602337)">
    <g id="svg_2025"/>
   </g>
  </g>
  <g fill="#ffffff" id="svg_2038">
   <g id="svg_2039" transform="translate(615.011452, 696.602337)">
    <g id="svg_2040"/>
   </g>
  </g>
  <g fill="#ffffff" id="svg_2061">
   <g id="svg_2062" transform="translate(663.970582, 696.602337)">
    <g id="svg_2063"/>
   </g>
  </g>
 </g>
</svg>