<?xml version="1.0"?>
<svg width="1440" height="809.999993" xmlns="http://www.w3.org/2000/svg" xmlns:svg="http://www.w3.org/2000/svg" preserveAspectRatio="xMidYMid meet" version="1.0">
 <defs>
  <g id="svg_1"/>
  <clipPath id="e16255ece8">
   <path clip-rule="nonzero" d="m152,251l474.96,0l0,477l-474.96,0l0,-477zm0,0" id="svg_2"/>
  </clipPath>
  <clipPath id="760636b6d8">
   <path clip-rule="nonzero" d="m744.33,81l546.67,0l0,313.95l-546.67,0l0,-313.95zm0,0" id="svg_3"/>
  </clipPath>
  <clipPath id="05fc341804">
   <path clip-rule="nonzero" d="m782.58,81l469.96,0c10.14,0 19.87,4.03 27.04,11.2c7.18,7.18 11.21,16.91 11.21,27.05l0,237.45c0,10.15 -4.03,19.87 -11.21,27.05c-7.17,7.17 -16.9,11.2 -27.04,11.2l-469.96,0c-10.14,0 -19.87,-4.03 -27.04,-11.2c-7.18,-7.18 -11.21,-16.9 -11.21,-27.05l0,-237.45c0,-10.14 4.03,-19.87 11.21,-27.05c7.17,-7.17 16.9,-11.2 27.04,-11.2zm0,0" id="svg_4"/>
  </clipPath>
  <clipPath id="8a865525a3">
   <path clip-rule="nonzero" d="m744.33,415.05l546.67,0l0,313.95l-546.67,0l0,-313.95zm0,0" id="svg_5"/>
  </clipPath>
  <clipPath id="f1771b3fa5">
   <path clip-rule="nonzero" d="m782.58,415.05l469.96,0c10.14,0 19.87,4.03 27.04,11.2c7.18,7.18 11.21,16.9 11.21,27.05l0,237.45c0,10.14 -4.03,19.88 -11.21,27.05c-7.17,7.17 -16.9,11.2 -27.04,11.2l-469.96,0c-10.14,0 -19.87,-4.03 -27.04,-11.2c-7.18,-7.17 -11.21,-16.91 -11.21,-27.05l0,-237.45c0,-10.15 4.03,-19.87 11.21,-27.05c7.17,-7.17 16.9,-11.2 27.04,-11.2zm0,0" id="svg_6"/>
  </clipPath>
  <clipPath id="b3c943862c">
   <path clip-rule="nonzero" d="m804.55,125.26l58.5,0l0,58.5l-58.5,0l0,-58.5zm0,0" id="svg_7"/>
  </clipPath>
  <clipPath id="4694c04b42">
   <path clip-rule="nonzero" d="m804.55,456.15l58.5,0l0,62.25l-58.5,0l0,-62.25zm0,0" id="svg_8"/>
  </clipPath>
 </defs>
 <g class="layer">
  <title>Layer 1</title>
  <path d="m261.85,672.81c0,0 -59.63,-50.29 -58.84,-129.03c0.03,-2.4 9.46,-2.71 9.49,-5.15c0.05,-3.11 -9.38,-8.36 -9.12,-11.52c0.97,-11.75 3.5,-23.78 8.03,-35.94c0,0 20.16,15.71 36.95,44.88c1.27,2.2 -5.75,11.65 -4.53,14c1.15,2.22 10.53,-2.66 11.62,-0.31c14.08,30.47 22.36,72.08 6.4,123.07" fill="#ffffff" fill-rule="nonzero" id="svg_13"/>
  <path d="m242.23,610.6c-2.08,-1.52 -8.36,8.32 -10.43,6.91c-2.05,-1.39 -2.09,-16.13 -4.12,-17.42c-39.82,-25.32 -75.91,-31.29 -75.91,-31.29c2.63,18.85 8.12,35.97 15.59,51.46c1.19,2.47 14.49,3.03 15.78,5.42c1.41,2.62 -7.32,9.21 -5.8,11.74c22.5,37.3 56.68,63.47 86.43,81.23c16.83,-13.5 27.48,-24.49 39.05,-37.84c-17.02,-31.67 -38.08,-53.75 -60.59,-70.21" fill="#5479f7" fill-rule="nonzero" id="svg_14"/>
  <path d="m274.78,687.68c-0.19,0 -0.38,-0.06 -0.54,-0.19c-11.33,-9 -22.58,-18.43 -33.42,-28.03c-0.36,-0.31 -0.39,-0.86 -0.08,-1.22c0.32,-0.36 0.87,-0.39 1.22,-0.07c10.83,9.57 22.04,18.98 33.36,27.97c0.37,0.29 0.43,0.84 0.14,1.21c-0.17,0.22 -0.42,0.33 -0.68,0.33" fill="#caddff" fill-rule="nonzero" id="svg_15"/>
  <path d="m226.1,645.8c-0.21,0 -0.42,-0.08 -0.59,-0.23c-17.86,-16.63 -35.17,-34.26 -51.46,-52.41l-7.44,-8.3c-0.32,-0.36 -0.29,-0.91 0.06,-1.22c0.36,-0.32 0.9,-0.29 1.22,0.06l7.45,8.3c16.25,18.12 33.53,35.71 51.35,52.3c0.35,0.33 0.36,0.87 0.04,1.22c-0.17,0.18 -0.4,0.28 -0.63,0.28" fill="#caddff" fill-rule="nonzero" id="svg_16"/>
  <path d="m297.59,686.42c0,0 -37.03,-69.06 28.19,-117.41c0,0 37.85,47.23 -28.19,117.41" fill="#99b9ff" fill-rule="nonzero" id="svg_17"/>
  <path d="m303.65,662.59c-0.02,0 -0.03,0 -0.05,0c-0.47,-0.03 -0.84,-0.43 -0.81,-0.91c1.3,-26.03 16.37,-70.48 16.53,-70.93c0.15,-0.45 0.64,-0.69 1.09,-0.54c0.45,0.16 0.69,0.65 0.54,1.1c-0.15,0.44 -15.15,44.67 -16.44,70.46c-0.03,0.46 -0.4,0.82 -0.86,0.82" fill="#caddff" fill-rule="nonzero" id="svg_18"/>
  <path d="m314.64,720.6l-76.44,0c-2.92,0 -5.29,-2.37 -5.29,-5.29l0,-433.15c0,-2.78 2.25,-5.03 5.03,-5.03l76.7,0l0,443.47" fill="#5479f7" fill-rule="nonzero" id="svg_19"/>
  <path d="m519.45,703.7l-229.04,0l0,-392.06l229.04,0l0,392.06" fill="#5479f7" fill-rule="nonzero" id="svg_20"/>
  <path d="m530.51,346.16l-251.17,0l0,-69.03l251.17,0l0,69.03" fill="#99b9ff" fill-rule="nonzero" id="svg_21"/>
  <path d="m525.36,292.16c0,-5.46 -4.42,-9.88 -9.86,-9.88l-221.14,0c-5.45,0 -9.87,4.42 -9.87,9.88l0,38.97c0,5.46 4.42,9.88 9.87,9.88l221.14,0c5.44,0 9.86,-4.42 9.86,-9.88l0,-38.97" fill="#caddff" fill-rule="nonzero" id="svg_22"/>
  <path d="m319.12,311.64c0,3.39 -2.74,6.13 -6.12,6.13c-3.38,0 -6.12,-2.74 -6.12,-6.13c0,-3.38 2.74,-6.12 6.12,-6.12c3.38,0 6.12,2.74 6.12,6.12" fill="#99b9ff" fill-rule="nonzero" id="svg_23"/>
  <path d="m358.23,311.64c0,3.39 -2.73,6.13 -6.11,6.13c-3.39,0 -6.12,-2.74 -6.12,-6.13c0,-3.38 2.73,-6.12 6.12,-6.12c3.38,0 6.11,2.74 6.11,6.12" fill="#99b9ff" fill-rule="nonzero" id="svg_24"/>
  <path d="m385.79,331.84l-10.03,0l0,-40.39l10.03,0l0,40.39" fill="#99b9ff" fill-rule="nonzero" id="svg_25"/>
  <path d="m400.46,331.84l-10.03,0l0,-40.39l10.03,0l0,40.39" fill="#99b9ff" fill-rule="nonzero" id="svg_26"/>
  <path d="m415.13,331.84l-10.04,0l0,-40.39l10.04,0l0,40.39" fill="#99b9ff" fill-rule="nonzero" id="svg_27"/>
  <path d="m429.79,331.84l-10.03,0l0,-40.39l10.03,0l0,40.39" fill="#99b9ff" fill-rule="nonzero" id="svg_28"/>
  <path d="m444.46,331.84l-10.03,0l0,-40.39l10.03,0l0,40.39" fill="#99b9ff" fill-rule="nonzero" id="svg_29"/>
  <path d="m459.13,331.84l-10.03,0l0,-40.39l10.03,0l0,40.39" fill="#99b9ff" fill-rule="nonzero" id="svg_30"/>
  <path d="m473.8,331.84l-10.03,0l0,-40.39l10.03,0l0,40.39" fill="#99b9ff" fill-rule="nonzero" id="svg_31"/>
  <path d="m488.46,331.84l-10.03,0l0,-40.39l10.03,0l0,40.39" fill="#99b9ff" fill-rule="nonzero" id="svg_32"/>
  <path d="m503.13,331.84l-10.03,0l0,-40.39l10.03,0l0,40.39" fill="#99b9ff" fill-rule="nonzero" id="svg_33"/>
  <path d="m530.5,420.96l-251.16,0l0,-69.03l251.16,0l0,69.03" fill="#99b9ff" fill-rule="nonzero" id="svg_34"/>
  <path d="m515.5,357.08l-221.14,0c-5.45,0 -9.87,4.42 -9.87,9.87l0,38.98c0,5.46 4.42,9.88 9.87,9.88l221.14,0c5.44,0 9.86,-4.42 9.86,-9.88l0,-38.98c0,-5.45 -4.42,-9.87 -9.86,-9.87" fill="#caddff" fill-rule="nonzero" id="svg_35" transform="matrix(1 0 0 1 0 0)"/>
  <path d="m319.12,386.45c0,3.38 -2.74,6.12 -6.12,6.12c-3.38,0 -6.12,-2.74 -6.12,-6.12c0,-3.39 2.74,-6.13 6.12,-6.13c3.38,0 6.12,2.74 6.12,6.13" fill="#99b9ff" fill-rule="nonzero" id="svg_36"/>
  <path d="m338.68,386.45c0,3.38 -2.74,6.12 -6.12,6.12c-3.38,0 -6.12,-2.74 -6.12,-6.12c0,-3.39 2.74,-6.13 6.12,-6.13c3.38,0 6.12,2.74 6.12,6.13" fill="#99b9ff" fill-rule="nonzero" id="svg_37"/>
  <path d="m358.23,386.45c0,3.38 -2.74,6.12 -6.12,6.12c-3.38,0 -6.11,-2.74 -6.11,-6.12c0,-3.39 2.73,-6.13 6.11,-6.13c3.38,0 6.12,2.74 6.12,6.13" fill="#99b9ff" fill-rule="nonzero" id="svg_38"/>
  <path d="m385.79,406.64l-10.03,0l0,-40.39l10.03,0l0,40.39" fill="#99b9ff" fill-rule="nonzero" id="svg_39"/>
  <path d="m400.46,406.64l-10.03,0l0,-40.39l10.03,0l0,40.39" fill="#99b9ff" fill-rule="nonzero" id="svg_40"/>
  <path d="m415.13,406.64l-10.04,0l0,-40.39l10.04,0l0,40.39" fill="#99b9ff" fill-rule="nonzero" id="svg_41"/>
  <path d="m429.79,406.64l-10.03,0l0,-40.39l10.03,0l0,40.39" fill="#99b9ff" fill-rule="nonzero" id="svg_42"/>
  <path d="m444.46,406.64l-10.03,0l0,-40.39l10.03,0l0,40.39" fill="#99b9ff" fill-rule="nonzero" id="svg_43"/>
  <path d="m459.13,406.64l-10.03,0l0,-40.39l10.03,0l0,40.39" fill="#99b9ff" fill-rule="nonzero" id="svg_44"/>
  <path d="m473.8,406.64l-10.03,0l0,-40.39l10.03,0l0,40.39" fill="#99b9ff" fill-rule="nonzero" id="svg_45"/>
  <path d="m488.47,406.64l-10.04,0l0,-40.39l10.04,0l0,40.39" fill="#99b9ff" fill-rule="nonzero" id="svg_46"/>
  <path d="m503.13,406.64l-10.03,0l0,-40.39l10.03,0l0,40.39" fill="#99b9ff" fill-rule="nonzero" id="svg_47"/>
  <path d="m530.5,495.76l-251.16,0l0,-69.03l251.16,0l0,69.03" fill="#99b9ff" fill-rule="nonzero" id="svg_48"/>
  <path d="m515.5,431.88l-221.14,0c-5.45,0 -9.87,4.42 -9.87,9.87l0,38.98c0,5.46 4.42,9.88 9.87,9.88l221.14,0c5.44,0 9.86,-4.42 9.86,-9.88l0,-38.98c0,-5.45 -4.42,-9.87 -9.86,-9.87" fill="#caddff" fill-rule="nonzero" id="svg_49"/>
  <path d="m385.79,481.44l-10.03,0l0,-40.39l10.03,0l0,40.39" fill="#99b9ff" fill-rule="nonzero" id="svg_50"/>
  <path d="m400.46,481.44l-10.03,0l0,-40.39l10.03,0l0,40.39" fill="#99b9ff" fill-rule="nonzero" id="svg_51"/>
  <path d="m415.13,481.44l-10.04,0l0,-40.39l10.04,0l0,40.39" fill="#99b9ff" fill-rule="nonzero" id="svg_52"/>
  <path d="m429.8,481.44l-10.04,0l0,-40.39l10.04,0l0,40.39" fill="#99b9ff" fill-rule="nonzero" id="svg_53"/>
  <path d="m444.46,481.44l-10.03,0l0,-40.39l10.03,0l0,40.39" fill="#99b9ff" fill-rule="nonzero" id="svg_54"/>
  <path d="m459.13,481.44l-10.04,0l0,-40.39l10.04,0l0,40.39" fill="#99b9ff" fill-rule="nonzero" id="svg_55"/>
  <path d="m473.8,481.44l-10.03,0l0,-40.39l10.03,0l0,40.39" fill="#99b9ff" fill-rule="nonzero" id="svg_56"/>
  <path d="m488.46,481.44l-10.03,0l0,-40.39l10.03,0l0,40.39" fill="#99b9ff" fill-rule="nonzero" id="svg_57"/>
  <path d="m503.13,481.44l-10.03,0l0,-40.39l10.03,0l0,40.39" fill="#99b9ff" fill-rule="nonzero" id="svg_58"/>
  <path d="m530.5,570.56l-251.16,0l0,-69.03l251.16,0l0,69.03" fill="#99b9ff" fill-rule="nonzero" id="svg_59"/>
  <path d="m515.5,506.68l-221.14,0c-5.45,0 -9.87,4.42 -9.87,9.87l0,38.98c0,5.45 4.42,9.88 9.87,9.88l221.14,0c5.44,0 9.86,-4.43 9.86,-9.88l0,-38.98c0,-5.45 -4.42,-9.87 -9.86,-9.87" fill="#caddff" fill-rule="nonzero" id="svg_60"/>
  <path d="m385.79,556.24l-10.03,0l0,-40.39l10.03,0l0,40.39" fill="#99b9ff" fill-rule="nonzero" id="svg_61"/>
  <path d="m400.46,556.24l-10.03,0l0,-40.39l10.03,0l0,40.39" fill="#99b9ff" fill-rule="nonzero" id="svg_62"/>
  <path d="m415.13,556.24l-10.04,0l0,-40.39l10.04,0l0,40.39" fill="#99b9ff" fill-rule="nonzero" id="svg_63"/>
  <path d="m429.8,556.24l-10.04,0l0,-40.39l10.04,0l0,40.39" fill="#99b9ff" fill-rule="nonzero" id="svg_64"/>
  <path d="m444.46,556.24l-10.03,0l0,-40.39l10.03,0l0,40.39" fill="#99b9ff" fill-rule="nonzero" id="svg_65"/>
  <path d="m459.13,556.24l-10.04,0l0,-40.39l10.04,0l0,40.39" fill="#99b9ff" fill-rule="nonzero" id="svg_66"/>
  <path d="m473.8,556.24l-10.03,0l0,-40.39l10.03,0l0,40.39" fill="#99b9ff" fill-rule="nonzero" id="svg_67"/>
  <path d="m488.46,556.24l-10.03,0l0,-40.39l10.03,0l0,40.39" fill="#99b9ff" fill-rule="nonzero" id="svg_68"/>
  <path d="m503.13,556.24l-10.03,0l0,-40.39l10.03,0l0,40.39" fill="#99b9ff" fill-rule="nonzero" id="svg_69"/>
  <path d="m530.81,645.34l-251.16,0l0,-69.03l251.16,0l0,69.03" fill="#99b9ff" fill-rule="nonzero" id="svg_70"/>
  <path d="m515.8,581.46l-221.14,0c-5.45,0 -9.86,4.43 -9.86,9.88l0,38.98c0,5.45 4.41,9.88 9.86,9.88l221.14,0c5.45,0 9.86,-4.43 9.86,-9.88l0,-38.98c0,-5.45 -4.41,-9.88 -9.86,-9.88" fill="#caddff" fill-rule="nonzero" id="svg_71"/>
  <path d="m319.43,610.83c0,3.38 -2.74,6.12 -6.13,6.12c-3.37,0 -6.11,-2.74 -6.11,-6.12c0,-3.38 2.74,-6.13 6.11,-6.13c3.39,0 6.13,2.75 6.13,6.13" fill="#99b9ff" fill-rule="nonzero" id="svg_72"/>
  <path d="m338.98,610.83c0,3.38 -2.74,6.12 -6.12,6.12c-3.38,0 -6.12,-2.74 -6.12,-6.12c0,-3.38 2.74,-6.13 6.12,-6.13c3.38,0 6.12,2.75 6.12,6.13" fill="#99b9ff" fill-rule="nonzero" id="svg_73"/>
  <path d="m358.54,610.83c0,3.38 -2.74,6.12 -6.12,6.12c-3.38,0 -6.12,-2.74 -6.12,-6.12c0,-3.38 2.74,-6.13 6.12,-6.13c3.38,0 6.12,2.75 6.12,6.13" fill="#99b9ff" fill-rule="nonzero" id="svg_74"/>
  <path d="m386.1,631.02l-10.04,0l0,-40.38l10.04,0l0,40.38" fill="#99b9ff" fill-rule="nonzero" id="svg_75"/>
  <path d="m400.77,631.02l-10.04,0l0,-40.38l10.04,0l0,40.38" fill="#99b9ff" fill-rule="nonzero" id="svg_76"/>
  <path d="m415.43,631.02l-10.03,0l0,-40.38l10.03,0l0,40.38" fill="#99b9ff" fill-rule="nonzero" id="svg_77"/>
  <path d="m430.1,631.02l-10.03,0l0,-40.38l10.03,0l0,40.38" fill="#99b9ff" fill-rule="nonzero" id="svg_78"/>
  <path d="m444.77,631.02l-10.04,0l0,-40.38l10.04,0l0,40.38" fill="#99b9ff" fill-rule="nonzero" id="svg_79"/>
  <path d="m459.44,631.02l-10.04,0l0,-40.38l10.04,0l0,40.38" fill="#99b9ff" fill-rule="nonzero" id="svg_80"/>
  <path d="m474.1,631.02l-10.03,0l0,-40.38l10.03,0l0,40.38" fill="#99b9ff" fill-rule="nonzero" id="svg_81"/>
  <path d="m488.77,631.02l-10.03,0l0,-40.38l10.03,0l0,40.38" fill="#99b9ff" fill-rule="nonzero" id="svg_82"/>
  <path d="m503.44,631.02l-10.04,0l0,-40.38l10.04,0l0,40.38" fill="#99b9ff" fill-rule="nonzero" id="svg_83"/>
  <path d="m530.81,720.6l-251.16,0l0,-69.49l251.16,0l0,69.49" fill="#99b9ff" fill-rule="nonzero" id="svg_84"/>
  <path d="m515.8,656.27l-221.14,0c-5.45,0 -9.86,4.41 -9.86,9.87l0,38.98c0,5.45 4.41,9.87 9.86,9.87l221.14,0c5.45,0 9.86,-4.42 9.86,-9.87l0,-38.98c0,-5.46 -4.41,-9.87 -9.86,-9.87" fill="#caddff" fill-rule="nonzero" id="svg_85"/>
  <path d="m319.43,685.63c0,3.38 -2.74,6.12 -6.13,6.12c-3.37,0 -6.11,-2.74 -6.11,-6.12c0,-3.38 2.74,-6.13 6.11,-6.13c3.39,0 6.13,2.75 6.13,6.13" fill="#99b9ff" fill-rule="nonzero" id="svg_86"/>
  <path d="m338.98,685.63c0,3.38 -2.74,6.12 -6.12,6.12c-3.38,0 -6.12,-2.74 -6.12,-6.12c0,-3.38 2.74,-6.13 6.12,-6.13c3.38,0 6.12,2.75 6.12,6.13" fill="#99b9ff" fill-rule="nonzero" id="svg_87"/>
  <path d="m358.54,685.63c0,3.38 -2.74,6.12 -6.12,6.12c-3.38,0 -6.12,-2.74 -6.12,-6.12c0,-3.38 2.74,-6.13 6.12,-6.13c3.38,0 6.12,2.75 6.12,6.13" fill="#99b9ff" fill-rule="nonzero" id="svg_88"/>
  <path d="m386.1,705.82l-10.04,0l0,-40.39l10.04,0l0,40.39" fill="#99b9ff" fill-rule="nonzero" id="svg_89"/>
  <path d="m400.77,705.82l-10.04,0l0,-40.39l10.04,0l0,40.39" fill="#99b9ff" fill-rule="nonzero" id="svg_90"/>
  <path d="m415.43,705.82l-10.03,0l0,-40.39l10.03,0l0,40.39" fill="#99b9ff" fill-rule="nonzero" id="svg_91"/>
  <path d="m430.1,705.82l-10.03,0l0,-40.39l10.03,0l0,40.39" fill="#99b9ff" fill-rule="nonzero" id="svg_92"/>
  <path d="m444.77,705.82l-10.04,0l0,-40.39l10.04,0l0,40.39" fill="#99b9ff" fill-rule="nonzero" id="svg_93"/>
  <path d="m459.44,705.82l-10.04,0l0,-40.39l10.04,0l0,40.39" fill="#99b9ff" fill-rule="nonzero" id="svg_94"/>
  <path d="m474.1,705.82l-10.03,0l0,-40.39l10.03,0l0,40.39" fill="#99b9ff" fill-rule="nonzero" id="svg_95"/>
  <path d="m488.77,705.82l-10.03,0l0,-40.39l10.03,0l0,40.39" fill="#99b9ff" fill-rule="nonzero" id="svg_96"/>
  <path d="m503.44,705.82l-10.04,0l0,-40.38l10.04,0l0,40.38" fill="#99b9ff" fill-rule="nonzero" id="svg_97"/>
  <path d="m477.03,723.8l133.48,0c7.01,0 12.69,-5.69 12.69,-12.7l0,-86.94c0,-7.02 -5.68,-12.71 -12.69,-12.71l-133.48,0c-7.01,0 -12.69,5.69 -12.69,12.71l0,86.94c0,7.01 5.68,12.7 12.69,12.7" fill="#99b9ff" fill-rule="nonzero" id="svg_98"/>
  <path d="m490.72,724.67l-13.69,0c-7.48,0 -13.56,-6.09 -13.56,-13.57l0,-75.73c0,-0.48 0.39,-0.86 0.87,-0.86c0.47,0 0.86,0.38 0.86,0.86l0,75.73c0,6.53 5.3,11.84 11.83,11.84l13.69,0c0.48,0 0.86,0.38 0.86,0.86c0,0.48 -0.38,0.87 -0.86,0.87" fill="#ffffff" fill-rule="nonzero" id="svg_99"/>
  <path d="m466.07,630.13l155.29,0c2.2,0 3.99,-1.79 3.99,-4l0,-10.71c0,-2.21 -1.79,-3.99 -3.99,-3.99l-155.29,0c-2.2,0 -3.98,1.78 -3.98,3.99l0,10.71c0,2.21 1.78,4 3.98,4" fill="#99b9ff" fill-rule="nonzero" id="svg_100"/>
  <path d="m621.52,630.99l-155.6,0c-2.59,0 -4.69,-2.11 -4.69,-4.7l0,-11.03c0,-2.59 2.1,-4.7 4.69,-4.7l95.73,0c0.48,0 0.87,0.39 0.87,0.87c0,0.48 -0.39,0.86 -0.87,0.86l-95.73,0c-1.64,0 -2.97,1.33 -2.97,2.97l0,11.03c0,1.64 1.33,2.97 2.97,2.97l155.6,0c0.48,0 0.86,0.38 0.86,0.87c0,0.47 -0.38,0.86 -0.86,0.86" fill="#ffffff" fill-rule="nonzero" id="svg_101"/>
  <path d="m520.93,721.49c0,0 -0.01,0 -0.01,0c-0.48,-0.01 -0.86,-0.4 -0.85,-0.88l1.49,-87.14c0.01,-0.47 0.41,-0.86 0.88,-0.84c0.48,0 0.86,0.4 0.85,0.87l-1.5,87.14c-0.01,0.47 -0.39,0.85 -0.86,0.85" fill="#ffffff" fill-rule="nonzero" id="svg_102"/>
  <path d="m512.47,699.55c-1.22,-1.24 -8.29,-23.25 -8.29,-23.25l-13.97,9.97l15.31,20.61l6.95,-7.33" fill="#ffffff" fill-rule="nonzero" id="svg_103"/>
  <path d="m491.43,686.46l14.17,19.08l5.8,-6.12c-1.68,-3.35 -5.88,-16.16 -7.69,-21.73l-12.28,8.77zm14.09,21.28c-0.02,0 -0.03,0 -0.05,0c-0.26,-0.02 -0.49,-0.15 -0.64,-0.35l-15.31,-20.6c-0.14,-0.18 -0.2,-0.42 -0.16,-0.65c0.03,-0.23 0.16,-0.44 0.35,-0.57l13.97,-9.98c0.22,-0.16 0.51,-0.2 0.77,-0.11c0.26,0.09 0.46,0.29 0.55,0.56c2.65,8.26 7.2,21.79 8.1,22.92c0.33,0.33 0.31,0.84 -0.01,1.18l-6.94,7.33c-0.17,0.17 -0.39,0.27 -0.63,0.27" fill="#000000" fill-rule="nonzero" id="svg_104"/>
  <path d="m487.3,727.38l9.29,-0.06c6.14,-0.03 11.86,-3.16 15.21,-8.32l9.18,-14.55c2.54,-4.02 1.13,-9.36 -3.07,-11.59c-3.84,-2.04 -7.86,-4.02 -8.79,-3.93c-1.92,0.18 -2.69,9.23 -2.69,9.23l-8.27,0.32c0,0 -4.09,17.01 -7.69,18.95c-2.62,1.41 -4.45,3.48 -5.68,5.37c-1.29,1.97 0.15,4.59 2.51,4.58" fill="#000000" fill-rule="nonzero" id="svg_105"/>
  <path d="m488.23,724.61c-0.42,0 -0.79,-0.31 -0.85,-0.73c-0.08,-0.47 0.25,-0.92 0.72,-0.99l12.71,-1.91c2.6,-0.39 4.88,-1.92 6.23,-4.18l11.22,-18.78c0.25,-0.41 0.78,-0.54 1.19,-0.29c0.41,0.24 0.54,0.77 0.3,1.18l-11.23,18.78c-1.62,2.7 -4.34,4.53 -7.45,5l-12.71,1.91c-0.04,0.01 -0.09,0.01 -0.13,0.01" fill="#ffffff" fill-rule="nonzero" id="svg_106"/>
  <path d="m503.91,710.49c-0.07,0 -0.15,-0.01 -0.22,-0.03l-7.08,-1.93c-0.46,-0.12 -0.73,-0.6 -0.61,-1.06c0.13,-0.46 0.6,-0.73 1.06,-0.61l7.08,1.93c0.46,0.13 0.74,0.6 0.61,1.07c-0.11,0.38 -0.45,0.63 -0.84,0.63" fill="#ffffff" fill-rule="nonzero" id="svg_107"/>
  <path d="m500.23,714.13c-0.07,0 -0.14,0 -0.21,-0.02l-4.75,-1.16c-0.46,-0.12 -0.74,-0.59 -0.63,-1.05c0.11,-0.47 0.58,-0.75 1.04,-0.63l4.75,1.16c0.46,0.11 0.75,0.58 0.63,1.04c-0.09,0.4 -0.44,0.66 -0.83,0.66" fill="#ffffff" fill-rule="nonzero" id="svg_108"/>
  <path d="m464.81,695.35l-16.22,16.31l-8.6,-3.16l14.95,-20.87l9.87,7.72" fill="#ffffff" fill-rule="nonzero" id="svg_109"/>
  <path d="m441.36,708.08l7.01,2.58l15.14,-15.23l-8.39,-6.57l-13.76,19.22zm7.23,4.44c-0.1,0 -0.2,-0.02 -0.3,-0.05l-8.59,-3.16c-0.26,-0.1 -0.45,-0.3 -0.53,-0.56c-0.08,-0.26 -0.03,-0.54 0.12,-0.75l14.95,-20.87c0.14,-0.2 0.35,-0.32 0.58,-0.36c0.23,-0.03 0.47,0.03 0.65,0.18l9.87,7.71c0.19,0.16 0.32,0.39 0.33,0.63c0.01,0.25 -0.08,0.49 -0.25,0.67l-16.22,16.31c-0.16,0.16 -0.38,0.25 -0.61,0.25" fill="#000000" fill-rule="nonzero" id="svg_110"/>
  <path d="m453.71,709.11c0,0 0.79,6.93 -0.54,13.07c-0.71,3.27 -3.65,5.56 -6.99,5.56l-39.8,0c-2.85,0 -4.14,-3.55 -1.96,-5.38c7.08,-5.94 20.1,-15 36.1,-17.66l4.47,6.26l8.72,-1.85" fill="#000000" fill-rule="nonzero" id="svg_111"/>
  <path d="m449.52,723.13l-41.25,0c-0.48,0 -0.86,-0.39 -0.86,-0.86c0,-0.48 0.38,-0.87 0.86,-0.87l41.25,0c0.48,0 0.86,0.39 0.86,0.87c0,0.47 -0.38,0.86 -0.86,0.86" fill="#ffffff" fill-rule="nonzero" id="svg_112"/>
  <path d="m431.29,715.79c-0.34,0 -0.66,-0.2 -0.8,-0.53l-2.19,-5.3c-0.18,-0.44 0.03,-0.95 0.47,-1.13c0.44,-0.18 0.95,0.03 1.13,0.47l2.18,5.3c0.19,0.44 -0.03,0.95 -0.47,1.13c-0.11,0.04 -0.22,0.06 -0.32,0.06" fill="#ffffff" fill-rule="nonzero" id="svg_113"/>
  <path d="m424.11,717.19c-0.37,0 -0.7,-0.23 -0.82,-0.6l-1.58,-4.78c-0.15,-0.45 0.09,-0.94 0.54,-1.09c0.46,-0.15 0.95,0.1 1.09,0.55l1.59,4.78c0.14,0.45 -0.1,0.94 -0.55,1.09c-0.09,0.03 -0.18,0.05 -0.27,0.05" fill="#ffffff" fill-rule="nonzero" id="svg_114"/>
  <path d="m550.65,581.21c0,0 -74.12,-8.63 -96.16,10.47c-22.04,19.09 34.79,101.21 34.79,101.21l17.98,-13.34l-17.05,-58.04l68.51,-19.47l-8.07,-20.83" fill="#000000" fill-rule="nonzero" id="svg_115"/>
  <path d="m591.44,619.01c-10.76,3.42 -30.03,7.85 -56.95,7.47c-7.65,-0.1 -14.72,4.13 -18.19,10.95c-7.98,15.66 -25.24,43.85 -53.35,62.12l-13.43,-7.25l34.27,-77.23c3.13,-7.05 8.98,-12.52 16.22,-15.18l67.93,-24.93c0,0 21.06,-5.9 31.39,12.92c1.84,3.37 5.26,-2.64 6.08,0.07c2.8,9.3 -4.72,28.12 -13.97,31.06" fill="#000000" fill-rule="nonzero" id="svg_116"/>
  <path d="m468.3,650.84c-0.11,0 -0.23,-0.03 -0.35,-0.07c-0.43,-0.2 -0.63,-0.71 -0.43,-1.14l15.48,-34.91c3.21,-7.22 9.3,-12.92 16.71,-15.64l32.54,-11.94c0.44,-0.17 0.94,0.06 1.1,0.51c0.17,0.45 -0.06,0.94 -0.51,1.11l-32.53,11.94c-6.98,2.56 -12.71,7.93 -15.73,14.73l-15.49,34.89c-0.14,0.33 -0.45,0.52 -0.79,0.52" fill="#ffffff" fill-rule="nonzero" id="svg_117"/>
  <path d="m486.39,680.84c-0.21,0 -0.43,-0.08 -0.6,-0.24c-0.34,-0.33 -0.36,-0.88 -0.02,-1.22c3.09,-3.22 6.12,-6.67 9.03,-10.27c0.29,-0.37 0.84,-0.42 1.21,-0.12c0.37,0.3 0.43,0.84 0.13,1.21c-2.93,3.63 -6.01,7.12 -9.13,10.37c-0.17,0.18 -0.4,0.27 -0.62,0.27" fill="#ffffff" fill-rule="nonzero" id="svg_118"/>
  <path d="m495.47,670.52c-0.19,0 -0.38,-0.06 -0.54,-0.19c-0.38,-0.3 -0.43,-0.85 -0.13,-1.22c1.43,-1.76 2.85,-3.59 4.22,-5.45c0.29,-0.38 0.83,-0.46 1.21,-0.18c0.39,0.29 0.47,0.83 0.18,1.22c-1.39,1.87 -2.83,3.72 -4.27,5.5c-0.17,0.21 -0.42,0.32 -0.67,0.32" fill="#ffffff" fill-rule="nonzero" id="svg_119"/>
  <path d="m533.81,521.29c0,0 -6.52,59.25 -50.29,63.13l50.29,0.71c0,0 18.62,-37.77 19.38,-52.48c0.76,-14.7 -19.38,-11.36 -19.38,-11.36" fill="#ffffff" fill-rule="nonzero" id="svg_120"/>
  <path d="m492.28,583.68l40.99,0.58c2.18,-4.47 18.36,-38.19 19.06,-51.65c0.16,-3.26 -0.76,-5.82 -2.75,-7.6c-4.37,-3.9 -12.65,-3.23 -15,-2.95c-0.42,3.08 -2.49,16.29 -8.72,29.71c-7.88,16.97 -19.38,27.85 -33.58,31.91zm41.53,2.32c-0.01,0 -0.01,0 -0.01,0l-50.3,-0.71c-0.46,-0.01 -0.83,-0.38 -0.85,-0.84c-0.01,-0.46 0.33,-0.85 0.79,-0.89c17.83,-1.58 31.57,-12.52 40.85,-32.52c6.97,-15 8.65,-29.7 8.66,-29.84c0.04,-0.39 0.34,-0.7 0.72,-0.76c0.46,-0.08 11.35,-1.81 17.06,3.29c2.4,2.14 3.52,5.16 3.32,8.97c-0.76,14.71 -18.7,51.27 -19.47,52.82c-0.14,0.29 -0.44,0.48 -0.77,0.48" fill="#000000" fill-rule="nonzero" id="svg_121"/>
  <path d="m596.11,483.63c-8.49,-2 -12.03,-2.02 -42.9,-0.9c-7.55,0.27 -15.94,12.09 -16.83,19.6c2.4,7.2 12.89,40.39 -6.43,68.16c-2.74,3.94 -6.47,8.26 -11.59,12.4c2.87,2.33 6.62,3.27 12.62,5.06c9.96,2.96 15.69,1.84 23.71,2.09c21.24,0.63 29.02,24.3 42.74,21.32c3.66,-0.79 8.51,-3.65 13.06,-13.24c2.58,-7.95 4.87,-17.29 6.15,-27.84c3.46,-28.6 -2.2,-52.42 -7.27,-67.37c-1.5,-4.72 -3.25,-16.92 -13.26,-19.28" fill="#5479f7" fill-rule="nonzero" id="svg_122"/>
  <path d="m528.06,527.93c0,0 8.33,-41.26 22.72,-44.68l-6.65,53.89l-16.07,-9.21" fill="#5479f7" fill-rule="nonzero" id="svg_123"/>
  <path d="m570.79,463.89l-1.03,14.27c-0.23,1.86 -1.56,3.39 -3.37,3.86l-5.01,1.3l3.25,2.48c7.21,5.49 17.18,6.61 24.39,1.14l5.15,-3.91l-6.23,-1.39c-1.78,-0.4 -3.16,-2.95 -3.48,-4.75l-2.75,-18.88l-10.92,5.88" fill="#ffffff" fill-rule="nonzero" id="svg_124"/>
  <path d="m563.32,483.71l1.84,1.4c7.41,5.65 16.79,6.11 23.35,1.14l3.65,-2.79l-4.4,-0.98c-2.28,-0.5 -3.8,-3.49 -4.15,-5.44l-2.57,-17.69l-9.43,5.08l-0.98,13.79c-0.28,2.26 -1.86,4.07 -4.02,4.63l-3.29,0.86zm14.75,7.7c-4.74,0 -9.66,-1.65 -13.96,-4.93l-3.25,-2.47c-0.26,-0.2 -0.39,-0.53 -0.32,-0.86c0.06,-0.32 0.3,-0.58 0.63,-0.67l5.01,-1.3c1.47,-0.38 2.54,-1.61 2.73,-3.13l1.02,-14.23c0.02,-0.29 0.19,-0.55 0.45,-0.69l10.92,-5.88c0.25,-0.14 0.55,-0.14 0.8,-0.02c0.26,0.13 0.43,0.38 0.47,0.65l2.75,18.88c0.29,1.67 1.53,3.75 2.82,4.04l6.22,1.39c0.32,0.07 0.58,0.33 0.65,0.65c0.07,0.33 -0.05,0.68 -0.32,0.88l-5.14,3.91c-3.34,2.53 -7.34,3.78 -11.48,3.78" fill="#000000" fill-rule="nonzero" id="svg_125"/>
  <path d="m554.58,444.03c3.43,-1.82 0.67,3.84 11.94,-5.93c4.5,-3.89 4.66,3.37 5.82,2.37c4.31,-3.72 4.16,-3.59 6.88,-4.07c1.8,-0.31 4.21,2.17 4.93,4.53c0.94,3.11 -1.12,4.96 -0.42,12.12c0.5,5.03 2.08,7.49 0.63,8.92c-1.46,1.45 -3.84,-0.32 -5.56,1.14c-2.22,1.88 0.32,6.07 -1.32,9.05c-1.04,1.87 -4.44,4.07 -11.59,3.9c-1.15,-0.02 -2.13,-0.88 -2.32,-2.03c-0.25,-1.47 -0.54,-3.33 -0.67,-5.13c-0.64,-8.58 1.2,-11.43 -0.61,-12.9c-2.79,-2.24 -7.52,1.94 -9.53,-0.03c-2.08,-2.05 -2.87,-9.46 1.82,-11.94" fill="#000000" fill-rule="nonzero" id="svg_126"/>
  <path d="m571.64,448.84l-0.14,2.34c-0.07,1.11 -0.06,2.21 0.02,3.32c0.16,2.07 0.41,5.63 0.4,7.63c-0.02,2.94 -9.11,3.52 -9.11,3.52l-1.15,-1.28l-1.07,0.04c-0.21,0.01 -0.42,-0.02 -0.6,-0.12c-0.46,-0.24 -0.69,-0.73 -0.61,-1.21c0.43,-2.6 1.18,-8.34 0.35,-12.8c0,0 5.06,-4.12 11.91,-1.44" fill="#ffffff" fill-rule="nonzero" id="svg_127"/>
  <path d="m561.66,463.5c0.24,0 0.47,0.11 0.64,0.29l0.87,0.97c3.81,-0.3 7.88,-1.42 7.89,-2.63c0.01,-1.99 -0.25,-5.59 -0.4,-7.57c-0.09,-1.13 -0.1,-2.29 -0.03,-3.43l0.1,-1.7c-5,-1.69 -8.84,0.42 -10.06,1.23c0.69,4.4 0.03,9.72 -0.44,12.56c-0.02,0.1 0.02,0.23 0.16,0.3c0.01,0.01 0.07,0.03 0.16,0.03l1.07,-0.05c0.01,0 0.02,0 0.04,0zm1.15,3.02c-0.24,0 -0.48,-0.11 -0.64,-0.29l-0.88,-0.98l-0.66,0.02c-0.38,0.02 -0.74,-0.06 -1.04,-0.21c-0.78,-0.41 -1.2,-1.26 -1.06,-2.12c0.38,-2.3 1.17,-8.11 0.35,-12.51c-0.06,-0.31 0.06,-0.63 0.31,-0.83c0.22,-0.17 5.52,-4.39 12.76,-1.56c0.35,0.13 0.57,0.48 0.55,0.85l-0.14,2.34c-0.07,1.07 -0.06,2.14 0.02,3.2c0.16,2 0.42,5.65 0.4,7.71c-0.02,3.48 -7.6,4.22 -9.92,4.38c-0.02,0 -0.03,0 -0.05,0" fill="#000000" fill-rule="nonzero" id="svg_128"/>
  <path d="m573.23,456.06c0,0 0.34,-5.63 2.86,-4.92c2.53,0.71 2,6.9 -2.86,4.92" fill="#ffffff" fill-rule="nonzero" id="svg_129"/>
  <path d="m446.62,590.07l104.37,0c1,0 1.8,-0.81 1.8,-1.81l0,-3.99l-107.98,0l0,3.99c0,1 0.81,1.81 1.81,1.81" fill="#99b9ff" fill-rule="nonzero" id="svg_130"/>
  <path d="m445.68,585.13l0,0.29c0,2.09 1.69,3.79 3.78,3.79l98.68,0c2.09,0 3.79,-1.7 3.79,-3.79l0,-0.29l-106.25,0zm102.46,5.8l-98.68,0c-3.04,0 -5.51,-2.47 -5.51,-5.51l0,-1.15c0,-0.48 0.39,-0.87 0.86,-0.87l107.98,0c0.48,0 0.86,0.39 0.86,0.87l0,1.15c0,3.04 -2.47,5.51 -5.51,5.51" fill="#000000" fill-rule="nonzero" id="svg_131"/>
  <path d="m444.81,584.37l61.79,0l-19.64,-57.84c-1.17,-1.81 -3.21,-2.9 -5.41,-2.9l-52.23,0c-2.37,0 -3.9,2.3 -3.13,4.33c0.31,0.81 0.64,1.61 0.92,2.42l17.7,53.99" fill="#99b9ff" fill-rule="nonzero" id="svg_132"/>
  <path d="m445.44,583.51l59.95,0l-19.2,-56.6c-1.04,-1.52 -2.76,-2.42 -4.64,-2.42l-52.23,0c-0.84,0 -1.59,0.38 -2.05,1.05c-0.43,0.63 -0.53,1.42 -0.27,2.1c0.09,0.24 0.18,0.46 0.27,0.68c0.22,0.59 0.45,1.18 0.65,1.8l17.52,53.39zm61.16,1.72l-61.79,0c-0.37,0 -0.7,-0.23 -0.82,-0.59l-17.7,-53.99c-0.19,-0.56 -0.41,-1.11 -0.63,-1.69c-0.1,-0.23 -0.19,-0.46 -0.27,-0.69c-0.47,-1.23 -0.29,-2.61 0.46,-3.71c0.79,-1.15 2.05,-1.8 3.47,-1.8l52.23,0c2.5,0 4.8,1.23 6.14,3.3c0.04,0.06 0.07,0.13 0.1,0.19l19.63,57.84c0.08,0.27 0.04,0.56 -0.12,0.79c-0.16,0.22 -0.42,0.35 -0.7,0.35" fill="#000000" fill-rule="nonzero" id="svg_133"/>
  <path d="m467.74,553.21c0.74,2.45 -0.39,4.95 -2.51,5.59c-2.13,0.65 -4.44,-0.82 -5.18,-3.26c-0.74,-2.45 0.39,-4.95 2.51,-5.59c2.13,-0.64 4.44,0.82 5.18,3.26" fill="#ffffff" fill-rule="nonzero" id="svg_134"/>
  <path d="m615.95,538.55c0,0 -3.04,38.42 -11.61,52.97c-10.25,17.37 -61.92,-6.02 -61.92,-6.02l-6.01,-3.41c-4.07,-2.3 -8.91,-2.8 -13.36,-1.36l-9.7,3.13c0,0 8.01,-9.62 14.83,-13.3c3.2,-1.72 7.34,-0.09 10.84,2.13c6.03,3.81 13.11,5.6 20.24,5.39l20.55,-0.61c3.46,-0.1 6.28,-2.77 6.58,-6.22l3.1,-43.22l26.46,10.52" fill="#ffffff" fill-rule="nonzero" id="svg_135"/>
  <path d="m542.81,584.72c1.58,0.71 51.15,22.69 60.78,6.36c7.79,-13.2 11,-46.92 11.44,-51.97l-24.76,-9.84l-3.02,42.04c-0.34,3.9 -3.52,6.91 -7.41,7.03l-20.56,0.61c-7.49,0.22 -14.66,-1.69 -20.71,-5.53c-2.91,-1.85 -7,-3.71 -9.98,-2.1c-4.54,2.45 -9.7,7.7 -12.5,10.75l6.7,-2.17c4.66,-1.5 9.78,-0.98 14.05,1.44l5.97,3.38zm45.86,14.08c-18.65,0 -45.07,-11.82 -46.6,-12.52c-0.03,-0.01 -0.05,-0.02 -0.07,-0.03l-6.01,-3.41c-3.85,-2.18 -8.46,-2.65 -12.67,-1.29l-9.71,3.13c-0.37,0.12 -0.76,-0.02 -0.97,-0.33c-0.22,-0.32 -0.2,-0.74 0.04,-1.04c0.34,-0.4 8.21,-9.79 15.09,-13.51c2.98,-1.6 6.93,-0.88 11.72,2.16c5.76,3.65 12.6,5.47 19.74,5.26l20.56,-0.61c3.01,-0.09 5.48,-2.43 5.74,-5.43l3.1,-43.21c0.02,-0.27 0.17,-0.52 0.4,-0.67c0.23,-0.15 0.52,-0.17 0.77,-0.07l26.46,10.51c0.35,0.14 0.58,0.49 0.54,0.87c-0.12,1.58 -3.14,38.8 -11.72,53.35c-2.96,5.02 -9.09,6.84 -16.41,6.84" fill="#000000" fill-rule="nonzero" id="svg_136"/>
  <path d="m620.75,541.26c0,0 3.23,-24.76 -0.34,-33.48c-8.32,-20.34 -24.14,-22.01 -22.91,-23.92l-11.9,50.4l35.15,7" fill="#5479f7" fill-rule="nonzero" id="svg_137"/>
  <path d="m207.23,409.7c-12.57,-0.39 -22.44,-10.91 -22.05,-23.5c0.4,-12.59 10.9,-22.48 23.47,-22.09c12.57,0.39 22.44,10.91 22.05,23.5c-0.4,12.59 -10.9,22.48 -23.47,22.09zm46.35,-18.43l0.18,-5.9c0.03,-0.87 -0.55,-1.63 -1.38,-1.85l-6.75,-1.74c-0.72,-0.19 -1.24,-0.78 -1.37,-1.5c-0.22,-1.24 -0.51,-2.47 -0.85,-3.67c-0.2,-0.7 0,-1.46 0.56,-1.93l5.26,-4.58c0.66,-0.57 0.83,-1.51 0.42,-2.27l-2.78,-5.2c-0.41,-0.76 -1.29,-1.14 -2.12,-0.91l-6.73,1.87c-0.71,0.2 -1.45,-0.05 -1.93,-0.61c-0.8,-0.95 -1.66,-1.87 -2.57,-2.74c-0.52,-0.5 -0.72,-1.26 -0.48,-1.95l2.28,-6.61c0.28,-0.82 -0.04,-1.73 -0.77,-2.18l-5.01,-3.11c-0.73,-0.45 -1.68,-0.34 -2.29,0.28l-4.88,4.98c-0.51,0.52 -1.28,0.68 -1.97,0.44c-1.18,-0.43 -2.38,-0.79 -3.6,-1.08c-0.71,-0.18 -1.27,-0.74 -1.41,-1.46l-1.32,-6.86c-0.16,-0.85 -0.89,-1.47 -1.76,-1.49l-5.88,-0.19c-0.87,-0.03 -1.63,0.55 -1.85,1.38l-1.75,6.78c-0.18,0.71 -0.77,1.23 -1.49,1.36c-1.24,0.22 -2.46,0.51 -3.66,0.85c-0.7,0.2 -1.46,0 -1.94,-0.56l-4.56,-5.27c-0.57,-0.65 -1.51,-0.82 -2.27,-0.41l-5.19,2.79c-0.76,0.41 -1.14,1.29 -0.91,2.12l1.87,6.74c0.19,0.71 -0.05,1.45 -0.61,1.92c-0.96,0.82 -1.87,1.68 -2.74,2.58c-0.51,0.53 -1.26,0.73 -1.95,0.49l-6.6,-2.28c-0.82,-0.29 -1.72,0.04 -2.18,0.77l-3.1,5.02c-0.46,0.73 -0.34,1.68 0.27,2.29l4.98,4.89c0.52,0.51 0.68,1.28 0.43,1.97c-0.42,1.18 -0.78,2.38 -1.08,3.61c-0.17,0.72 -0.73,1.27 -1.45,1.41l-6.85,1.33c-0.85,0.16 -1.47,0.89 -1.5,1.75l-0.18,5.9c-0.03,0.86 0.54,1.63 1.38,1.85l6.76,1.75c0.7,0.18 1.23,0.76 1.36,1.49c0.22,1.24 0.51,2.47 0.85,3.67c0.2,0.7 -0.01,1.46 -0.56,1.93l-5.26,4.58c-0.66,0.57 -0.83,1.51 -0.42,2.27l2.78,5.2c0.41,0.76 1.29,1.14 2.13,0.91l6.72,-1.88c0.71,-0.19 1.45,0.06 1.93,0.61c0.81,0.96 1.66,1.88 2.57,2.74c0.52,0.51 0.72,1.27 0.48,1.96l-2.28,6.61c-0.28,0.82 0.04,1.73 0.77,2.18l5.01,3.11c0.73,0.45 1.68,0.34 2.29,-0.28l4.89,-4.98c0.51,-0.52 1.27,-0.68 1.96,-0.43c1.18,0.41 2.38,0.77 3.61,1.07c0.71,0.18 1.26,0.74 1.4,1.45l1.32,6.87c0.16,0.85 0.89,1.47 1.76,1.5l5.88,0.18c0.87,0.02 1.63,-0.55 1.85,-1.39l1.75,-6.77c0.18,-0.71 0.77,-1.23 1.49,-1.36c1.24,-0.22 2.46,-0.51 3.66,-0.85c0.7,-0.2 1.46,0 1.94,0.55l4.56,5.28c0.57,0.65 1.51,0.82 2.27,0.41l5.19,-2.79c0.76,-0.41 1.14,-1.29 0.91,-2.12l-1.87,-6.74c-0.19,-0.71 0.05,-1.45 0.61,-1.93c0.96,-0.81 1.87,-1.67 2.74,-2.57c0.5,-0.53 1.26,-0.73 1.95,-0.49l6.6,2.28c0.82,0.29 1.72,-0.04 2.18,-0.77l3.1,-5.02c0.46,-0.73 0.34,-1.69 -0.27,-2.29l-4.97,-4.89c-0.53,-0.52 -0.68,-1.28 -0.44,-1.97c0.42,-1.18 0.78,-2.38 1.08,-3.61c0.17,-0.71 0.73,-1.27 1.45,-1.4l6.85,-1.33c0.85,-0.17 1.47,-0.9 1.5,-1.76" fill="#ffffff" fill-rule="nonzero" id="svg_138"/>
  <path d="m207.94,364.96c-11.77,0 -21.52,9.4 -21.89,21.27c-0.19,5.86 1.92,11.43 5.93,15.7c4,4.27 9.43,6.72 15.27,6.9c0.23,0.01 0.46,0.01 0.69,0.01c11.77,0 21.52,-9.4 21.89,-21.26c0.19,-5.86 -1.92,-11.44 -5.92,-15.7c-4.01,-4.27 -9.44,-6.72 -15.28,-6.9c-0.23,-0.02 -0.46,-0.02 -0.69,-0.02zm0,45.61c-0.24,0 -0.49,0 -0.74,-0.01c-6.31,-0.2 -12.16,-2.84 -16.49,-7.45c-4.32,-4.6 -6.58,-10.62 -6.39,-16.94c0.41,-13.04 11.34,-23.32 24.36,-22.92c6.31,0.19 12.16,2.84 16.48,7.44c4.33,4.61 6.6,10.63 6.4,16.94c-0.4,12.8 -10.92,22.94 -23.62,22.94zm-13.1,10.18c0.31,0 0.63,0.05 0.93,0.16c1.14,0.41 2.32,0.76 3.52,1.05c1.04,0.26 1.85,1.09 2.05,2.13l1.32,6.86c0.09,0.46 0.47,0.79 0.93,0.8l5.89,0.18c0.48,0.02 0.87,-0.29 0.98,-0.73l1.75,-6.77c0.27,-1.03 1.12,-1.81 2.18,-2c1.21,-0.22 2.41,-0.5 3.57,-0.84c1.03,-0.29 2.14,0.03 2.83,0.83l4.57,5.27c0.3,0.35 0.8,0.44 1.2,0.22l5.19,-2.79c0.41,-0.22 0.61,-0.69 0.49,-1.13l-1.87,-6.74c-0.28,-1.02 0.07,-2.12 0.88,-2.82c0.93,-0.79 1.83,-1.63 2.68,-2.51c0.74,-0.78 1.86,-1.05 2.86,-0.71l6.6,2.29c0.43,0.15 0.91,-0.02 1.15,-0.42l3.11,-5.01c0.24,-0.4 0.18,-0.9 -0.15,-1.23l-4.97,-4.89c-0.75,-0.73 -1,-1.86 -0.64,-2.87c0.4,-1.14 0.76,-2.33 1.05,-3.53c0.26,-1.04 1.09,-1.85 2.13,-2.05l6.85,-1.32c0.46,-0.09 0.78,-0.48 0.79,-0.94l0.19,-5.9c0.01,-0.46 -0.29,-0.87 -0.74,-0.98l-6.75,-1.75c-1.02,-0.26 -1.81,-1.12 -2,-2.18c-0.21,-1.21 -0.49,-2.42 -0.83,-3.58c-0.29,-1.03 0.03,-2.14 0.82,-2.83l5.27,-4.57c0.35,-0.31 0.44,-0.81 0.22,-1.22l-2.78,-5.19c-0.22,-0.41 -0.69,-0.61 -1.13,-0.49l-6.73,1.87c-1.01,0.29 -2.12,-0.06 -2.81,-0.88c-0.79,-0.93 -1.64,-1.83 -2.51,-2.67c-0.77,-0.74 -1.05,-1.87 -0.71,-2.87l2.28,-6.61c0.16,-0.44 -0.01,-0.91 -0.41,-1.16l-5,-3.1c-0.39,-0.25 -0.9,-0.19 -1.22,0.14l-4.89,4.98c-0.73,0.75 -1.86,1 -2.87,0.64c-1.14,-0.4 -2.32,-0.75 -3.52,-1.05c-1.04,-0.25 -1.84,-1.09 -2.04,-2.13l-1.33,-6.85c-0.08,-0.46 -0.47,-0.79 -0.93,-0.81l-5.89,-0.17c-0.48,-0.02 -0.86,0.28 -0.98,0.73l-1.75,6.77c-0.26,1.02 -1.12,1.8 -2.17,2c-1.21,0.21 -2.42,0.5 -3.58,0.83c-1.03,0.3 -2.14,-0.03 -2.83,-0.82l-4.56,-5.27c-0.31,-0.35 -0.8,-0.44 -1.21,-0.23l-5.19,2.79c-0.41,0.23 -0.61,0.69 -0.49,1.14l1.87,6.74c0.28,1.01 -0.06,2.12 -0.88,2.81c-0.93,0.79 -1.83,1.64 -2.68,2.52c-0.74,0.77 -1.86,1.05 -2.86,0.7l-6.59,-2.28c-0.44,-0.15 -0.92,0.02 -1.16,0.41l-3.11,5.02c-0.24,0.39 -0.18,0.9 0.15,1.22l4.97,4.9c0.75,0.73 1.01,1.86 0.64,2.87c-0.4,1.14 -0.76,2.32 -1.05,3.53c-0.26,1.04 -1.09,1.85 -2.12,2.04l-6.86,1.33c-0.45,0.09 -0.78,0.48 -0.8,0.94l-0.18,5.89c-0.02,0.47 0.29,0.88 0.74,0.99l6.75,1.75c1.02,0.26 1.81,1.11 2,2.18c0.21,1.21 0.49,2.42 0.83,3.58c0.29,1.03 -0.03,2.14 -0.82,2.83l-5.27,4.57c-0.35,0.31 -0.44,0.8 -0.22,1.21l2.78,5.2c0.22,0.41 0.69,0.61 1.14,0.48l6.72,-1.87c1.01,-0.28 2.12,0.07 2.82,0.89c0.78,0.93 1.63,1.83 2.51,2.67c0.77,0.74 1.04,1.87 0.7,2.86l-2.28,6.62c-0.16,0.44 0.01,0.91 0.41,1.15l5,3.11c0.4,0.25 0.9,0.18 1.23,-0.14l4.88,-4.99c0.51,-0.52 1.22,-0.8 1.94,-0.8zm14.68,12.91c-0.04,0 -0.06,0 -0.09,0l-5.89,-0.18c-1.27,-0.04 -2.34,-0.94 -2.58,-2.2l-1.32,-6.86c-0.07,-0.38 -0.36,-0.68 -0.76,-0.78c-1.25,-0.31 -2.49,-0.68 -3.68,-1.1c-0.39,-0.14 -0.8,-0.06 -1.07,0.23l-4.88,4.97c-0.9,0.92 -2.28,1.08 -3.37,0.41l-5,-3.11c-1.09,-0.67 -1.55,-1.98 -1.14,-3.19l2.29,-6.61c0.12,-0.37 0.02,-0.77 -0.27,-1.05c-0.92,-0.89 -1.81,-1.83 -2.63,-2.81c-0.27,-0.31 -0.66,-0.43 -1.04,-0.33l-6.72,1.87c-1.23,0.34 -2.51,-0.21 -3.12,-1.33l-2.78,-5.2c-0.6,-1.12 -0.35,-2.5 0.61,-3.33l5.27,-4.58c0.29,-0.25 0.4,-0.66 0.29,-1.05c-0.35,-1.22 -0.64,-2.48 -0.87,-3.75c-0.07,-0.39 -0.36,-0.71 -0.73,-0.81l-6.75,-1.75c-1.24,-0.32 -2.08,-1.43 -2.04,-2.71l0.19,-5.89c0.04,-1.28 0.94,-2.34 2.19,-2.59l6.85,-1.32c0.39,-0.08 0.68,-0.37 0.78,-0.77c0.31,-1.25 0.68,-2.5 1.11,-3.69c0.13,-0.38 0.05,-0.79 -0.23,-1.06l-4.97,-4.89c-0.91,-0.9 -1.08,-2.28 -0.4,-3.37l3.1,-5.01c0.67,-1.09 1.98,-1.56 3.19,-1.14l6.6,2.28c0.36,0.13 0.77,0.02 1.05,-0.27c0.88,-0.92 1.83,-1.81 2.8,-2.64c0.31,-0.26 0.44,-0.66 0.34,-1.03l-1.87,-6.74c-0.34,-1.23 0.21,-2.51 1.33,-3.12l5.19,-2.78c1.13,-0.61 2.5,-0.36 3.33,0.6l4.56,5.28c0.26,0.29 0.66,0.4 1.05,0.29c1.22,-0.35 2.48,-0.64 3.75,-0.87c0.4,-0.08 0.71,-0.36 0.81,-0.73l1.75,-6.77c0.32,-1.24 1.44,-2.07 2.7,-2.04l5.89,0.19c1.28,0.04 2.34,0.94 2.58,2.2l1.32,6.86c0.07,0.38 0.37,0.68 0.76,0.77c1.25,0.31 2.5,0.68 3.69,1.11c0.38,0.14 0.79,0.05 1.06,-0.23l4.88,-4.98c0.9,-0.91 2.28,-1.08 3.37,-0.4l5,3.1c1.09,0.67 1.55,1.99 1.14,3.2l-2.29,6.61c-0.12,0.36 -0.02,0.77 0.27,1.05c0.92,0.89 1.81,1.83 2.63,2.8c0.27,0.31 0.66,0.44 1.04,0.34l6.73,-1.87c1.22,-0.35 2.51,0.2 3.11,1.33l2.78,5.2c0.61,1.12 0.36,2.49 -0.61,3.33l-5.26,4.57c-0.3,0.26 -0.41,0.66 -0.3,1.05c0.35,1.22 0.65,2.49 0.87,3.76c0.07,0.39 0.36,0.71 0.73,0.81l6.75,1.74c1.24,0.32 2.08,1.44 2.04,2.72l-0.19,5.9c-0.04,1.27 -0.94,2.33 -2.19,2.58l-6.86,1.32c-0.38,0.08 -0.68,0.37 -0.77,0.76c-0.31,1.26 -0.68,2.5 -1.1,3.7c-0.14,0.38 -0.06,0.79 0.22,1.06l4.97,4.89c0.91,0.9 1.08,2.28 0.41,3.37l-3.11,5.01c-0.67,1.09 -1.98,1.56 -3.19,1.14l-6.6,-2.28c-0.36,-0.13 -0.77,-0.03 -1.05,0.27c-0.88,0.92 -1.83,1.81 -2.8,2.63c-0.31,0.27 -0.44,0.66 -0.33,1.04l1.86,6.74c0.34,1.23 -0.2,2.51 -1.33,3.11l-5.19,2.79c-1.13,0.61 -2.49,0.36 -3.33,-0.61l-4.56,-5.27c-0.26,-0.29 -0.66,-0.41 -1.05,-0.29c-1.22,0.35 -2.48,0.64 -3.75,0.87c-0.4,0.07 -0.71,0.35 -0.81,0.73l-1.74,6.77c-0.32,1.21 -1.39,2.03 -2.62,2.03" fill="#000000" fill-rule="nonzero" id="svg_139"/>
  <path d="m301.89,346.2c-17.3,1.37 -32.44,-11.57 -33.8,-28.9c-1.37,-17.34 11.55,-32.5 28.86,-33.87c17.31,-1.38 32.44,11.57 33.81,28.91c1.36,17.33 -11.56,32.49 -28.87,33.86zm60.22,-40.01c-0.11,-1.44 -1.21,-2.6 -2.63,-2.81l-8.79,-1.27c-1.17,-0.16 -2.15,-0.98 -2.49,-2.12c-0.46,-1.52 -0.98,-3.01 -1.56,-4.45c-0.44,-1.09 -0.2,-2.35 0.6,-3.21l6.03,-6.53c0.97,-1.05 1.09,-2.65 0.27,-3.83l-4.13,-6.02c-0.81,-1.19 -2.34,-1.65 -3.68,-1.12l-8.25,3.31c-1.09,0.44 -2.35,0.22 -3.21,-0.59c-1.15,-1.07 -2.34,-2.09 -3.58,-3.05c-0.93,-0.73 -1.34,-1.93 -1.08,-3.09l1.97,-8.68c0.32,-1.41 -0.38,-2.84 -1.68,-3.46l-6.58,-3.14c-1.3,-0.63 -2.85,-0.26 -3.74,0.87l-5.49,6.98c-0.73,0.93 -1.92,1.37 -3.07,1.11c-1.52,-0.36 -3.07,-0.64 -4.63,-0.85c-1.17,-0.16 -2.14,-1 -2.49,-2.13l-2.63,-8.5c-0.42,-1.38 -1.74,-2.27 -3.18,-2.16l-7.27,0.58c-1.43,0.11 -2.59,1.2 -2.8,2.63l-1.27,8.8c-0.16,1.18 -0.98,2.16 -2.12,2.5c-1.51,0.46 -2.99,0.98 -4.44,1.57c-1.09,0.44 -2.34,0.19 -3.21,-0.61l-6.51,-6.03c-1.05,-0.98 -2.64,-1.09 -3.83,-0.28l-6.01,4.14c-1.18,0.82 -1.65,2.35 -1.11,3.68l3.3,8.27c0.44,1.1 0.22,2.36 -0.59,3.22c-1.07,1.15 -2.09,2.34 -3.05,3.58c-0.72,0.93 -1.93,1.35 -3.08,1.09l-8.67,-1.97c-1.4,-0.32 -2.84,0.38 -3.46,1.68l-3.14,6.59c-0.62,1.3 -0.25,2.86 0.88,3.75l6.97,5.49c0.93,0.73 1.36,1.93 1.1,3.08c-0.35,1.52 -0.64,3.07 -0.85,4.64c-0.16,1.17 -1,2.14 -2.13,2.49l-8.48,2.64c-1.38,0.42 -2.27,1.74 -2.16,3.18l0.57,7.29c0.12,1.43 1.21,2.59 2.63,2.8l8.79,1.27c1.17,0.17 2.15,0.99 2.49,2.12c0.46,1.52 0.98,3 1.57,4.45c0.44,1.09 0.19,2.34 -0.6,3.21l-6.04,6.53c-0.97,1.05 -1.09,2.64 -0.27,3.83l4.13,6.02c0.82,1.19 2.34,1.65 3.68,1.11l8.25,-3.31c1.1,-0.43 2.35,-0.21 3.21,0.59c1.15,1.08 2.34,2.09 3.58,3.06c0.93,0.73 1.34,1.93 1.08,3.08l-1.96,8.69c-0.32,1.41 0.37,2.84 1.67,3.46l6.58,3.14c1.3,0.63 2.86,0.26 3.74,-0.87l5.49,-6.99c0.73,-0.92 1.93,-1.36 3.07,-1.1c1.52,0.36 3.07,0.64 4.63,0.85c1.18,0.16 2.14,1 2.49,2.13l2.63,8.5c0.43,1.37 1.75,2.27 3.18,2.16l7.27,-0.58c1.43,-0.11 2.6,-1.2 2.8,-2.63l1.27,-8.81c0.17,-1.17 0.99,-2.15 2.12,-2.49c1.51,-0.46 2.99,-0.98 4.44,-1.57c1.09,-0.44 2.35,-0.2 3.21,0.61l6.51,6.03c1.06,0.98 2.65,1.09 3.83,0.28l6.01,-4.14c1.18,-0.82 1.65,-2.35 1.12,-3.68l-3.31,-8.27c-0.43,-1.1 -0.22,-2.36 0.59,-3.22c1.07,-1.15 2.09,-2.34 3.05,-3.58c0.73,-0.94 1.93,-1.35 3.09,-1.09l8.66,1.97c1.41,0.32 2.84,-0.38 3.46,-1.68l3.14,-6.6c0.62,-1.3 0.26,-2.85 -0.87,-3.74l-6.98,-5.49c-0.92,-0.73 -1.36,-1.93 -1.09,-3.08c0.35,-1.53 0.63,-3.07 0.84,-4.65c0.16,-1.17 1,-2.13 2.13,-2.48l8.49,-2.64c1.37,-0.42 2.27,-1.74 2.15,-3.18l-0.57,-7.28" fill="#ffffff" fill-rule="nonzero" id="svg_140"/>
  <path d="m299.48,284.19c-0.82,0 -1.64,0.03 -2.46,0.1c-16.81,1.33 -29.4,16.11 -28.07,32.94c0.64,8.16 4.41,15.57 10.62,20.88c6.21,5.31 14.11,7.88 22.25,7.23c16.81,-1.33 29.4,-16.1 28.08,-32.94c-0.65,-8.15 -4.42,-15.57 -10.63,-20.88c-5.58,-4.77 -12.53,-7.33 -19.79,-7.33zm-0.12,62.98c-7.67,0 -15.02,-2.71 -20.91,-7.75c-6.56,-5.61 -10.55,-13.44 -11.23,-22.05c-1.4,-17.79 11.91,-33.39 29.66,-34.8c8.61,-0.68 16.95,2.03 23.51,7.64c6.57,5.61 10.55,13.45 11.23,22.06c1.4,17.78 -11.91,33.39 -29.66,34.8l-0.07,-0.87l0.07,0.87c-0.87,0.06 -1.74,0.1 -2.6,0.1zm-12.2,16.44c0.29,0 0.57,0.03 0.86,0.09c1.48,0.35 3.02,0.63 4.55,0.84c1.49,0.2 2.74,1.27 3.19,2.73l2.63,8.5c0.31,0.99 1.25,1.63 2.29,1.55l7.27,-0.58c1.04,-0.08 1.87,-0.86 2.01,-1.89l1.27,-8.81c0.22,-1.51 1.29,-2.76 2.73,-3.2c1.49,-0.45 2.95,-0.96 4.37,-1.54c1.38,-0.56 3,-0.26 4.12,0.77l6.5,6.04c0.77,0.7 1.9,0.78 2.76,0.19l6.01,-4.14c0.86,-0.59 1.19,-1.68 0.8,-2.64l-3.3,-8.27c-0.56,-1.41 -0.27,-3.03 0.76,-4.13c1.05,-1.12 2.06,-2.31 3,-3.52c0.92,-1.19 2.47,-1.73 3.95,-1.4l8.67,1.97c1.02,0.23 2.04,-0.27 2.49,-1.21l3.14,-6.6c0.45,-0.94 0.19,-2.04 -0.63,-2.69l-6.97,-5.49c-1.19,-0.94 -1.74,-2.49 -1.41,-3.95c0.35,-1.5 0.63,-3.03 0.84,-4.57c0.2,-1.49 1.27,-2.74 2.73,-3.2l8.48,-2.63c1,-0.31 1.63,-1.25 1.55,-2.29l-0.57,-7.29c-0.09,-1.04 -0.86,-1.86 -1.89,-2.01l-8.79,-1.27c-1.51,-0.22 -2.77,-1.29 -3.2,-2.73c-0.44,-1.48 -0.96,-2.96 -1.54,-4.38c-0.56,-1.38 -0.26,-3 0.78,-4.11l6.02,-6.53c0.71,-0.77 0.79,-1.9 0.2,-2.76l-4.13,-6.02c-0.59,-0.86 -1.68,-1.19 -2.65,-0.8l-8.25,3.31c-1.41,0.56 -3.03,0.26 -4.12,-0.76c-1.13,-1.05 -2.31,-2.06 -3.52,-3.01c-1.18,-0.92 -1.73,-2.47 -1.39,-3.95l1.96,-8.69c0.23,-1.02 -0.26,-2.04 -1.2,-2.49l-6.58,-3.14c-0.94,-0.45 -2.05,-0.19 -2.69,0.63l-5.49,6.98c-0.94,1.19 -2.49,1.75 -3.95,1.41c-1.48,-0.34 -3.01,-0.63 -4.55,-0.83c-1.49,-0.21 -2.74,-1.28 -3.19,-2.74l-2.63,-8.49c-0.31,-1 -1.25,-1.64 -2.29,-1.56l-7.27,0.58c-1.04,0.08 -1.87,0.86 -2.01,1.9l-1.27,8.8c-0.22,1.51 -1.29,2.77 -2.73,3.2c-1.48,0.45 -2.95,0.96 -4.36,1.54c-1.39,0.56 -3.01,0.26 -4.13,-0.77l-6.5,-6.04c-0.77,-0.7 -1.9,-0.79 -2.76,-0.19l-6.01,4.14c-0.86,0.59 -1.19,1.68 -0.8,2.64l3.3,8.28c0.56,1.41 0.27,3.02 -0.76,4.12c-1.05,1.13 -2.06,2.31 -3,3.53c-0.92,1.18 -2.47,1.73 -3.95,1.39l-8.67,-1.97c-1.02,-0.23 -2.04,0.27 -2.49,1.21l-3.14,6.6c-0.45,0.94 -0.19,2.05 0.63,2.69l6.97,5.49c1.19,0.94 1.75,2.5 1.41,3.96c-0.35,1.48 -0.63,3.02 -0.83,4.56c-0.21,1.49 -1.28,2.74 -2.74,3.2l-8.48,2.63c-0.99,0.31 -1.63,1.25 -1.55,2.29l0.57,7.29c0.09,1.04 0.86,1.87 1.89,2.01l8.79,1.27c1.51,0.22 2.77,1.29 3.2,2.73c0.45,1.49 0.96,2.96 1.54,4.38c0.56,1.39 0.26,3 -0.77,4.12l-6.03,6.52c-0.71,0.77 -0.79,1.9 -0.2,2.76l4.13,6.02c0.59,0.86 1.68,1.19 2.65,0.8l8.25,-3.3c1.41,-0.57 3.03,-0.27 4.12,0.76c1.13,1.04 2.3,2.06 3.52,3c1.18,0.92 1.73,2.48 1.39,3.96l-1.96,8.69c-0.23,1.01 0.26,2.03 1.2,2.48l6.58,3.15c0.94,0.45 2.05,0.19 2.7,-0.64l5.48,-6.98c0.76,-0.96 1.91,-1.5 3.09,-1.5zm13.34,15.44c-1.72,0 -3.24,-1.1 -3.76,-2.77l-2.63,-8.5c-0.25,-0.82 -0.95,-1.42 -1.77,-1.53c-1.59,-0.22 -3.18,-0.51 -4.71,-0.86c-0.81,-0.19 -1.68,0.12 -2.2,0.79l-5.49,6.98c-1.15,1.46 -3.12,1.93 -4.79,1.13l-6.58,-3.15c-1.68,-0.8 -2.56,-2.62 -2.15,-4.43l1.97,-8.69c0.19,-0.82 -0.11,-1.7 -0.77,-2.21c-1.26,-0.97 -2.48,-2.02 -3.64,-3.1c-0.6,-0.57 -1.51,-0.73 -2.3,-0.42l-8.25,3.31c-1.72,0.69 -3.66,0.1 -4.71,-1.43l-4.13,-6.02c-1.05,-1.53 -0.91,-3.55 0.35,-4.91l6.03,-6.53c0.58,-0.62 0.75,-1.52 0.44,-2.29c-0.6,-1.47 -1.13,-2.99 -1.59,-4.53c-0.25,-0.8 -0.94,-1.4 -1.79,-1.52l-8.79,-1.26c-1.84,-0.27 -3.22,-1.75 -3.37,-3.6l-0.57,-7.28c-0.14,-1.85 0.99,-3.53 2.76,-4.08l8.48,-2.63c0.82,-0.26 1.42,-0.95 1.53,-1.78c0.22,-1.6 0.51,-3.19 0.87,-4.72c0.19,-0.82 -0.13,-1.68 -0.8,-2.2l-6.97,-5.5c-1.45,-1.15 -1.91,-3.12 -1.12,-4.79l3.15,-6.6c0.79,-1.68 2.61,-2.56 4.42,-2.15l8.67,1.97c0.83,0.19 1.7,-0.12 2.21,-0.78c0.97,-1.25 2.02,-2.47 3.1,-3.64c0.57,-0.61 0.74,-1.51 0.42,-2.31l-3.31,-8.27c-0.68,-1.72 -0.1,-3.65 1.43,-4.71l6.01,-4.14c1.53,-1.05 3.55,-0.9 4.91,0.36l6.51,6.03c0.63,0.58 1.52,0.75 2.3,0.44c1.46,-0.6 2.98,-1.13 4.51,-1.6c0.8,-0.24 1.4,-0.94 1.52,-1.79l1.27,-8.8c0.26,-1.84 1.74,-3.23 3.58,-3.37l7.27,-0.58c1.85,-0.14 3.53,0.99 4.08,2.77l2.63,8.49c0.25,0.82 0.95,1.42 1.77,1.53c1.59,0.22 3.18,0.51 4.71,0.87c0.81,0.18 1.68,-0.13 2.2,-0.8l5.49,-6.98c1.15,-1.46 3.12,-1.92 4.79,-1.13l6.58,3.15c1.68,0.8 2.56,2.62 2.15,4.43l-1.97,8.69c-0.19,0.83 0.12,1.7 0.77,2.21c1.25,0.97 2.48,2.02 3.64,3.11c0.6,0.57 1.51,0.73 2.3,0.41l8.25,-3.3c1.73,-0.7 3.66,-0.11 4.72,1.42l4.12,6.02c1.05,1.53 0.91,3.55 -0.35,4.91l-6.03,6.53c-0.58,0.63 -0.75,1.53 -0.44,2.29c0.6,1.47 1.13,3 1.59,4.53c0.25,0.8 0.95,1.4 1.8,1.52l8.78,1.27c1.84,0.26 3.22,1.74 3.37,3.59l0.57,7.28c0.15,1.85 -0.99,3.53 -2.75,4.08l-8.49,2.63c-0.82,0.26 -1.42,0.96 -1.53,1.78c-0.22,1.59 -0.51,3.18 -0.86,4.73c-0.2,0.81 0.12,1.67 0.79,2.2l6.97,5.49c1.46,1.15 1.92,3.12 1.12,4.8l-3.14,6.59c-0.8,1.68 -2.62,2.56 -4.43,2.16l-8.67,-1.97c-0.83,-0.19 -1.69,0.11 -2.21,0.77c-0.97,1.25 -2.02,2.48 -3.1,3.64c-0.57,0.61 -0.73,1.51 -0.42,2.31l3.31,8.27c0.68,1.72 0.1,3.66 -1.43,4.71l-6.01,4.14c-1.53,1.05 -3.55,0.91 -4.91,-0.36l-6.51,-6.03c-0.62,-0.58 -1.52,-0.75 -2.29,-0.44c-1.46,0.6 -2.98,1.13 -4.52,1.6c-0.8,0.24 -1.4,0.94 -1.52,1.79l-1.26,8.8c-0.27,1.84 -1.75,3.23 -3.59,3.37l-7.27,0.58c-0.11,0.01 -0.22,0.01 -0.32,0.01" fill="#000000" fill-rule="nonzero" id="svg_141"/>
  <path d="m599.28,386.34c0.06,20.46 -16.46,37.1 -36.91,37.16c-20.45,0.06 -37.07,-16.48 -37.13,-36.95c-0.06,-20.47 16.47,-37.1 36.91,-37.16c20.45,-0.06 37.07,16.48 37.13,36.95" fill="#ffffff" fill-rule="nonzero" id="svg_142"/>
  <path d="m562.27,350.25c-0.04,0 -0.08,0 -0.11,0c-9.66,0.03 -18.73,3.82 -25.54,10.68c-6.81,6.85 -10.54,15.95 -10.51,25.62c0.02,9.67 3.81,18.74 10.66,25.56c6.82,6.79 15.87,10.53 25.49,10.53c0.03,0 0.07,0 0.1,0c9.66,-0.03 18.73,-3.82 25.54,-10.68c6.81,-6.85 10.55,-15.95 10.51,-25.62c-0.02,-9.66 -3.81,-18.75 -10.66,-25.56c-6.82,-6.79 -15.87,-10.53 -25.48,-10.53zm-0.01,74.11c-10.08,0 -19.56,-3.91 -26.71,-11.02c-7.17,-7.14 -11.14,-16.66 -11.17,-26.79c-0.03,-10.12 3.88,-19.66 11.01,-26.84c7.14,-7.18 16.65,-11.16 26.76,-11.19c0.04,0 0.08,0 0.12,0c10.07,0 19.55,3.92 26.7,11.03c7.17,7.15 11.14,16.66 11.17,26.79c0.03,10.12 -3.88,19.66 -11.01,26.84c-7.14,7.18 -16.64,11.16 -26.76,11.18c-0.04,0 -0.08,0 -0.11,0" fill="#000000" fill-rule="nonzero" id="svg_143"/>
  <path d="m538.63,386.45l12.62,4.76l0.01,5.2l-17.91,-7.93l-0.01,-4.13l17.86,-8.01l0.02,5.2l-12.59,4.91" fill="#5479f7" fill-rule="nonzero" id="svg_144"/>
  <path d="m558.42,402.57l-4.08,0.01l12.14,-33.86l4.09,-0.01l-12.15,33.86" fill="#5479f7" fill-rule="nonzero" id="svg_145"/>
  <path d="m587.5,386.2l-13.22,-4.81l-0.02,-5.12l18.49,7.91l0.01,4.12l-18.44,8.02l-0.02,-5.12l13.2,-5" fill="#5479f7" fill-rule="nonzero" id="svg_146"/>
  <path d="m484.7,461.05c0,-12.3 9.97,-22.26 22.28,-22.26c12.3,0 22.27,9.96 22.27,22.26c0,12.29 -9.97,22.26 -22.27,22.26c-12.31,0 -22.28,-9.97 -22.28,-22.26" fill="#ffffff" fill-rule="nonzero" id="svg_147"/>
  <path d="m506.98,439.65c-11.82,0 -21.42,9.6 -21.42,21.4c0,11.8 9.6,21.4 21.42,21.4c11.81,0 21.41,-9.6 21.41,-21.4c0,-11.8 -9.6,-21.4 -21.41,-21.4zm0,44.53c-12.77,0 -23.15,-10.38 -23.15,-23.13c0,-12.76 10.38,-23.13 23.15,-23.13c12.76,0 23.14,10.37 23.14,23.13c0,12.75 -10.38,23.13 -23.14,23.13" fill="#000000" fill-rule="nonzero" id="svg_148"/>
  <path d="m507.1,472.25c-0.22,0.13 -0.5,0.14 -0.72,0.01c-1.97,-1.09 -11.08,-6.58 -10.72,-13.75c0.38,-7.58 8.61,-6.27 10.64,-2.54c0.08,0.14 0.23,0.23 0.39,0.22c0.17,-0.01 0.31,-0.11 0.37,-0.26c0.99,-2.39 4.21,-4.13 7.25,-2.99c3.62,1.36 7.3,10.32 -7.21,19.31" fill="#5479f7" fill-rule="nonzero" id="svg_149"/>
  <path d="m181.19,522c-0.23,0 -0.45,-0.08 -0.62,-0.25c-0.33,-0.34 -0.33,-0.89 0.01,-1.23l2.27,-2.23c0.34,-0.34 0.88,-0.33 1.22,0.01c0.33,0.34 0.33,0.88 -0.01,1.22l-2.27,2.23c-0.16,0.17 -0.38,0.25 -0.6,0.25" fill="#000000" fill-rule="nonzero" id="svg_156"/>
  <path d="m173.25,529.83c-0.22,0 -0.45,-0.08 -0.61,-0.26c-0.34,-0.34 -0.33,-0.89 0,-1.22l2.27,-2.23c0.34,-0.34 0.89,-0.34 1.22,0c0.34,0.34 0.33,0.89 0,1.22l-2.27,2.24c-0.17,0.17 -0.39,0.25 -0.61,0.25" fill="#000000" fill-rule="nonzero" id="svg_157"/>
  <path d="m175.54,521.98c-0.22,0 -0.44,-0.09 -0.61,-0.25l-2.25,-2.27c-0.33,-0.33 -0.33,-0.88 0.01,-1.21c0.33,-0.34 0.88,-0.34 1.22,0l2.25,2.25c0.33,0.34 0.33,0.89 -0.01,1.23c-0.17,0.16 -0.38,0.25 -0.61,0.25" fill="#000000" fill-rule="nonzero" id="svg_158"/>
  <path d="m183.41,529.88c-0.22,0 -0.45,-0.09 -0.61,-0.26l-2.25,-2.25c-0.34,-0.34 -0.34,-0.89 0,-1.23c0.34,-0.34 0.89,-0.34 1.22,0l2.25,2.26c0.34,0.34 0.34,0.89 0,1.23c-0.17,0.16 -0.39,0.25 -0.61,0.25" fill="#000000" fill-rule="nonzero" id="svg_159"/>
  <path d="m217.63,727.99l129.79,0c5.52,0 9.99,-4.52 9.99,-10.1l-12.65,-264.88c0,-5.57 -4.47,-10.09 -9.99,-10.09l-129.8,0c-5.52,0 -10,4.52 -10,10.09l12.66,264.88c0,5.58 4.47,10.1 10,10.1" fill="#99b9ff" fill-rule="nonzero" id="svg_160"/>
  <path d="m214.57,679.32l1.85,38.68c0,5.55 4.48,10.04 10,10.04l129.79,0c5.53,0 10,-4.49 10,-10.04l-12.65,-264.41c0,-5.55 -4.48,-10.05 -10,-10.05l-129.79,0c-5.52,0 -10,4.5 -10,10.05l10.8,225.73" fill="#ffffff" fill-rule="nonzero" id="svg_161"/>
  <path d="m356.21,728.56l-39.68,0c-0.48,0 -0.87,-0.38 -0.87,-0.86c0,-0.48 0.39,-0.87 0.87,-0.87l39.68,0c5.04,0 9.14,-4.12 9.14,-9.18l-1.69,-35.31c-0.02,-0.48 0.34,-0.88 0.82,-0.91c0.47,-0.02 0.88,0.35 0.9,0.82l1.69,35.36c0,6.06 -4.87,10.95 -10.86,10.95" fill="#000000" fill-rule="nonzero" id="svg_162"/>
  <path d="m302.52,728.56l-76.1,0c-5.99,0 -10.86,-4.89 -10.86,-10.91l-1.56,-32.59c-0.02,-0.47 0.34,-0.88 0.82,-0.9c0.47,-0.02 0.88,0.34 0.9,0.82l1.57,32.63c0,5.1 4.1,9.22 9.13,9.22l76.1,0c0.48,0 0.86,0.39 0.86,0.87c0,0.48 -0.38,0.86 -0.86,0.86" fill="#000000" fill-rule="nonzero" id="svg_163"/>
  <path d="m211.23,610.13c-0.45,0 -0.84,-0.36 -0.85,-0.83l-7.47,-156.01c0,-6.06 4.87,-10.95 10.86,-10.95l129.79,0c5.99,0 10.86,4.89 10.86,10.91l4.31,85.27c0.02,0.48 -0.34,0.88 -0.82,0.91c-0.48,0.02 -0.88,-0.35 -0.91,-0.82l-4.3,-85.32c0,-5.11 -4.1,-9.23 -9.14,-9.23l-129.79,0c-5.04,0 -9.14,4.12 -9.14,9.19l7.47,155.97c0.02,0.48 -0.35,0.88 -0.82,0.91c-0.02,0 -0.03,0 -0.05,0" fill="#000000" fill-rule="nonzero" id="svg_164"/>
  <path d="m232.44,720.48l118.53,0c5.05,0 9.13,-4.1 9.13,-9.17l-12.49,-250.39c0,-5.07 -4.09,-9.18 -9.13,-9.18l-118.53,0c-5.04,0 -9.13,4.11 -9.13,9.18l12.49,250.39c0,5.07 4.09,9.17 9.13,9.17" fill="#caddff" fill-rule="nonzero" id="svg_165"/>
  <path d="m235.09,498.95l-2.98,0l-0.73,-14.51l-4.31,1.51l-0.13,-2.53l6.85,-2.59l0.38,0l0.92,18.12" fill="#ffffff" fill-rule="nonzero" id="svg_166"/>
  <path d="m249.43,487.98c-0.09,-1.7 -0.38,-2.94 -0.88,-3.73c-0.5,-0.79 -1.24,-1.19 -2.24,-1.19c-0.98,0 -1.68,0.38 -2.1,1.13c-0.42,0.75 -0.6,1.91 -0.55,3.5l0.21,4.1c0.08,1.68 0.38,2.94 0.88,3.76c0.51,0.83 1.27,1.24 2.27,1.24c0.96,0 1.64,-0.38 2.07,-1.14c0.41,-0.77 0.6,-1.97 0.54,-3.59l-0.2,-4.08zm3.15,3.37c0.13,2.6 -0.25,4.55 -1.15,5.87c-0.9,1.32 -2.33,1.98 -4.29,1.98c-1.94,0 -3.43,-0.65 -4.47,-1.93c-1.04,-1.29 -1.64,-3.19 -1.79,-5.71l-0.15,-3.12c-0.14,-2.6 0.25,-4.55 1.15,-5.85c0.89,-1.3 2.33,-1.95 4.31,-1.95c1.95,0 3.45,0.64 4.47,1.9c1.03,1.27 1.62,3.16 1.77,5.68l0.15,3.13" fill="#ffffff" fill-rule="nonzero" id="svg_167"/>
  <path d="m263.68,498.95l-2.97,0l-0.71,-14.51l-4.32,1.51l-0.12,-2.53l6.85,-2.59l0.38,0l0.89,18.12" fill="#ffffff" fill-rule="nonzero" id="svg_168"/>
  <path d="m277.98,498.95l-2.97,0l-0.71,-14.51l-4.31,1.51l-0.12,-2.53l6.85,-2.59l0.39,0l0.87,18.12" fill="#ffffff" fill-rule="nonzero" id="svg_169"/>
  <path d="m292.35,487.98c-0.08,-1.7 -0.37,-2.94 -0.87,-3.73c-0.5,-0.79 -1.25,-1.19 -2.25,-1.19c-0.97,0 -1.67,0.38 -2.09,1.13c-0.43,0.75 -0.61,1.91 -0.56,3.5l0.2,4.1c0.08,1.68 0.37,2.94 0.88,3.76c0.51,0.83 1.26,1.24 2.26,1.24c0.96,0 1.65,-0.38 2.07,-1.14c0.42,-0.77 0.6,-1.97 0.55,-3.59l-0.19,-4.08zm3.15,3.37c0.12,2.6 -0.27,4.55 -1.17,5.87c-0.9,1.32 -2.33,1.98 -4.29,1.98c-1.94,0 -3.43,-0.65 -4.47,-1.93c-1.03,-1.29 -1.63,-3.19 -1.78,-5.71l-0.15,-3.12c-0.12,-2.6 0.27,-4.55 1.16,-5.85c0.9,-1.3 2.34,-1.95 4.32,-1.95c1.95,0 3.45,0.64 4.47,1.9c1.02,1.27 1.61,3.16 1.75,5.68l0.16,3.13" fill="#ffffff" fill-rule="nonzero" id="svg_170"/>
  <path d="m306.65,487.98c-0.08,-1.7 -0.36,-2.94 -0.86,-3.73c-0.5,-0.79 -1.25,-1.19 -2.25,-1.19c-0.97,0 -1.67,0.38 -2.09,1.13c-0.43,0.75 -0.61,1.91 -0.56,3.5l0.19,4.1c0.08,1.68 0.37,2.94 0.88,3.76c0.51,0.83 1.26,1.24 2.26,1.24c0.96,0 1.65,-0.38 2.07,-1.14c0.42,-0.77 0.61,-1.97 0.55,-3.59l-0.19,-4.08zm3.15,3.37c0.12,2.6 -0.27,4.55 -1.17,5.87c-0.9,1.32 -2.33,1.98 -4.3,1.98c-1.93,0 -3.42,-0.65 -4.45,-1.93c-1.04,-1.29 -1.64,-3.19 -1.78,-5.71l-0.15,-3.12c-0.13,-2.6 0.26,-4.55 1.16,-5.85c0.91,-1.3 2.34,-1.95 4.32,-1.95c1.96,0 3.45,0.64 4.47,1.9c1.03,1.27 1.61,3.16 1.75,5.68l0.15,3.13" fill="#ffffff" fill-rule="nonzero" id="svg_171"/>
  <path d="m320.96,487.98c-0.08,-1.7 -0.37,-2.94 -0.86,-3.73c-0.5,-0.79 -1.25,-1.19 -2.25,-1.19c-0.97,0 -1.67,0.38 -2.1,1.13c-0.42,0.75 -0.61,1.91 -0.56,3.5l0.2,4.1c0.07,1.68 0.37,2.94 0.87,3.76c0.51,0.83 1.26,1.24 2.26,1.24c0.96,0 1.65,-0.38 2.07,-1.14c0.43,-0.77 0.61,-1.97 0.56,-3.59l-0.19,-4.08zm3.14,3.37c0.12,2.6 -0.27,4.55 -1.17,5.87c-0.9,1.32 -2.33,1.98 -4.3,1.98c-1.93,0 -3.42,-0.65 -4.45,-1.93c-1.04,-1.29 -1.64,-3.19 -1.78,-5.71l-0.15,-3.12c-0.12,-2.6 0.27,-4.55 1.17,-5.85c0.9,-1.3 2.34,-1.95 4.32,-1.95c1.96,0 3.45,0.64 4.47,1.9c1.02,1.27 1.61,3.16 1.74,5.68l0.15,3.13" fill="#ffffff" fill-rule="nonzero" id="svg_172"/>
  <path d="m335.18,498.95l-2.97,0l-0.67,-14.51l-4.32,1.51l-0.12,-2.53l6.86,-2.59l0.38,0l0.84,18.12" fill="#ffffff" fill-rule="nonzero" id="svg_173"/>
  <path d="m236.5,515.39c-0.08,-1.69 -0.37,-2.93 -0.87,-3.72c-0.5,-0.79 -1.25,-1.19 -2.25,-1.19c-0.97,0 -1.67,0.38 -2.09,1.13c-0.42,0.75 -0.6,1.91 -0.55,3.5l0.21,4.08c0.08,1.68 0.38,2.94 0.89,3.76c0.5,0.83 1.26,1.24 2.26,1.24c0.95,0 1.64,-0.39 2.06,-1.15c0.42,-0.76 0.61,-1.95 0.55,-3.58l-0.21,-4.07zm3.15,3.36c0.14,2.6 -0.25,4.55 -1.15,5.86c-0.89,1.32 -2.32,1.98 -4.28,1.98c-1.93,0 -3.42,-0.64 -4.46,-1.93c-1.05,-1.28 -1.64,-3.18 -1.8,-5.7l-0.15,-3.11c-0.13,-2.59 0.25,-4.54 1.15,-5.83c0.89,-1.3 2.33,-1.95 4.3,-1.95c1.95,0 3.45,0.63 4.47,1.9c1.03,1.26 1.62,3.15 1.77,5.67l0.15,3.11" fill="#ffffff" fill-rule="nonzero" id="svg_174"/>
  <path d="m250.75,526.34l-2.97,0l-0.73,-14.48l-4.3,1.51l-0.13,-2.52l6.85,-2.59l0.38,0l0.9,18.08" fill="#ffffff" fill-rule="nonzero" id="svg_175"/>
  <path d="m265.08,515.39c-0.08,-1.69 -0.37,-2.93 -0.87,-3.72c-0.5,-0.79 -1.25,-1.19 -2.24,-1.19c-0.98,0 -1.67,0.38 -2.09,1.13c-0.43,0.75 -0.61,1.91 -0.56,3.5l0.2,4.08c0.09,1.68 0.38,2.94 0.89,3.76c0.5,0.83 1.26,1.24 2.26,1.24c0.96,0 1.64,-0.39 2.06,-1.15c0.42,-0.76 0.61,-1.95 0.55,-3.58l-0.2,-4.07zm3.15,3.36c0.13,2.6 -0.26,4.55 -1.16,5.86c-0.89,1.32 -2.32,1.98 -4.28,1.98c-1.93,0 -3.42,-0.64 -4.46,-1.93c-1.04,-1.28 -1.64,-3.18 -1.79,-5.7l-0.15,-3.11c-0.13,-2.59 0.25,-4.54 1.15,-5.83c0.9,-1.3 2.34,-1.95 4.31,-1.95c1.95,0 3.45,0.63 4.47,1.9c1.02,1.26 1.61,3.15 1.75,5.67l0.16,3.11" fill="#ffffff" fill-rule="nonzero" id="svg_176"/>
  <path d="m279.31,526.34l-2.97,0l-0.7,-14.48l-4.31,1.51l-0.12,-2.52l6.84,-2.59l0.39,0l0.87,18.08" fill="#ffffff" fill-rule="nonzero" id="svg_177"/>
  <path d="m293.66,515.39c-0.08,-1.69 -0.37,-2.93 -0.86,-3.72c-0.5,-0.79 -1.25,-1.19 -2.25,-1.19c-0.97,0 -1.67,0.38 -2.09,1.13c-0.42,0.75 -0.61,1.91 -0.56,3.5l0.2,4.08c0.08,1.68 0.37,2.94 0.88,3.76c0.5,0.83 1.26,1.24 2.25,1.24c0.96,0 1.65,-0.39 2.07,-1.15c0.42,-0.76 0.61,-1.95 0.56,-3.58l-0.2,-4.07zm3.14,3.36c0.13,2.6 -0.26,4.55 -1.16,5.86c-0.89,1.32 -2.32,1.98 -4.29,1.98c-1.93,0 -3.42,-0.64 -4.46,-1.93c-1.03,-1.28 -1.63,-3.18 -1.77,-5.7l-0.16,-3.11c-0.12,-2.59 0.27,-4.54 1.17,-5.83c0.9,-1.3 2.33,-1.95 4.31,-1.95c1.95,0 3.44,0.63 4.47,1.9c1.02,1.26 1.6,3.15 1.75,5.67l0.14,3.11" fill="#ffffff" fill-rule="nonzero" id="svg_178"/>
  <path d="m307.88,526.34l-2.97,0l-0.69,-14.48l-4.31,1.51l-0.12,-2.52l6.85,-2.59l0.38,0l0.86,18.08" fill="#ffffff" fill-rule="nonzero" id="svg_179"/>
  <path d="m322.24,515.39c-0.08,-1.69 -0.36,-2.93 -0.86,-3.72c-0.5,-0.79 -1.24,-1.19 -2.24,-1.19c-0.98,0 -1.68,0.38 -2.1,1.13c-0.42,0.75 -0.61,1.91 -0.56,3.5l0.19,4.08c0.08,1.68 0.38,2.94 0.88,3.76c0.5,0.83 1.26,1.24 2.25,1.24c0.96,0 1.65,-0.39 2.08,-1.15c0.42,-0.76 0.6,-1.95 0.55,-3.58l-0.19,-4.07zm3.14,3.36c0.12,2.6 -0.27,4.55 -1.17,5.86c-0.9,1.32 -2.33,1.98 -4.29,1.98c-1.94,0 -3.42,-0.64 -4.46,-1.93c-1.03,-1.28 -1.62,-3.18 -1.77,-5.7l-0.14,-3.11c-0.13,-2.59 0.26,-4.54 1.16,-5.83c0.91,-1.3 2.34,-1.95 4.31,-1.95c1.96,0 3.45,0.63 4.47,1.9c1.02,1.26 1.6,3.15 1.74,5.67l0.15,3.11" fill="#ffffff" fill-rule="nonzero" id="svg_180"/>
  <path d="m336.45,526.34l-2.97,0l-0.67,-14.48l-4.32,1.51l-0.11,-2.52l6.85,-2.59l0.38,0l0.84,18.08" fill="#ffffff" fill-rule="nonzero" id="svg_181"/>
  <path d="m237.84,553.66l-2.97,0l-0.73,-14.43l-4.3,1.5l-0.13,-2.52l6.84,-2.58l0.38,0l0.91,18.03" fill="#ffffff" fill-rule="nonzero" id="svg_182"/>
  <path d="m252.11,553.66l-2.97,0l-0.72,-14.43l-4.3,1.5l-0.13,-2.52l6.84,-2.58l0.38,0l0.9,18.03" fill="#ffffff" fill-rule="nonzero" id="svg_183"/>
  <path d="m266.43,542.74c-0.09,-1.69 -0.38,-2.92 -0.88,-3.71c-0.49,-0.79 -1.24,-1.18 -2.23,-1.18c-0.98,0 -1.68,0.37 -2.1,1.12c-0.42,0.74 -0.6,1.91 -0.55,3.49l0.2,4.07c0.09,1.68 0.38,2.93 0.89,3.76c0.5,0.82 1.26,1.23 2.25,1.23c0.96,0 1.65,-0.38 2.07,-1.14c0.42,-0.76 0.6,-1.96 0.55,-3.58l-0.2,-4.06zm3.14,3.36c0.13,2.58 -0.26,4.53 -1.16,5.85c-0.89,1.31 -2.32,1.96 -4.28,1.96c-1.93,0 -3.41,-0.64 -4.45,-1.91c-1.04,-1.29 -1.64,-3.18 -1.79,-5.69l-0.15,-3.11c-0.13,-2.59 0.26,-4.52 1.15,-5.82c0.9,-1.29 2.34,-1.94 4.31,-1.94c1.95,0 3.44,0.63 4.46,1.89c1.02,1.26 1.61,3.15 1.76,5.66l0.15,3.11" fill="#ffffff" fill-rule="nonzero" id="svg_184"/>
  <path d="m280.64,553.66l-2.96,0l-0.71,-14.43l-4.3,1.5l-0.13,-2.52l6.84,-2.58l0.39,0l0.87,18.03" fill="#ffffff" fill-rule="nonzero" id="svg_185"/>
  <path d="m294.97,542.74c-0.08,-1.69 -0.37,-2.92 -0.86,-3.71c-0.5,-0.79 -1.24,-1.18 -2.24,-1.18c-0.98,0 -1.67,0.37 -2.1,1.12c-0.42,0.74 -0.6,1.91 -0.55,3.49l0.2,4.07c0.08,1.68 0.37,2.93 0.87,3.76c0.51,0.82 1.26,1.23 2.26,1.23c0.95,0 1.65,-0.38 2.06,-1.14c0.43,-0.76 0.61,-1.96 0.56,-3.58l-0.2,-4.06zm3.14,3.36c0.12,2.58 -0.26,4.53 -1.16,5.85c-0.9,1.31 -2.32,1.96 -4.29,1.96c-1.93,0 -3.41,-0.64 -4.45,-1.91c-1.03,-1.29 -1.63,-3.18 -1.77,-5.69l-0.15,-3.11c-0.13,-2.59 0.26,-4.52 1.16,-5.82c0.9,-1.29 2.33,-1.94 4.3,-1.94c1.96,0 3.45,0.63 4.46,1.89c1.02,1.26 1.61,3.15 1.75,5.66l0.15,3.11" fill="#ffffff" fill-rule="nonzero" id="svg_186"/>
  <path d="m309.25,542.74c-0.09,-1.69 -0.37,-2.92 -0.87,-3.71c-0.49,-0.79 -1.24,-1.18 -2.24,-1.18c-0.97,0 -1.67,0.37 -2.09,1.12c-0.42,0.74 -0.61,1.91 -0.56,3.49l0.2,4.07c0.08,1.68 0.37,2.93 0.88,3.76c0.5,0.82 1.25,1.23 2.25,1.23c0.95,0 1.64,-0.38 2.06,-1.14c0.42,-0.76 0.61,-1.96 0.56,-3.58l-0.19,-4.06zm3.13,3.36c0.13,2.58 -0.26,4.53 -1.16,5.85c-0.9,1.31 -2.33,1.96 -4.29,1.96c-1.93,0 -3.41,-0.64 -4.45,-1.91c-1.03,-1.29 -1.62,-3.18 -1.77,-5.69l-0.15,-3.11c-0.12,-2.59 0.26,-4.52 1.17,-5.82c0.9,-1.29 2.33,-1.94 4.3,-1.94c1.95,0 3.44,0.63 4.46,1.89c1.02,1.26 1.6,3.15 1.75,5.66l0.14,3.11" fill="#ffffff" fill-rule="nonzero" id="svg_187"/>
  <path d="m323.52,542.74c-0.08,-1.69 -0.36,-2.92 -0.86,-3.71c-0.5,-0.79 -1.24,-1.18 -2.24,-1.18c-0.97,0 -1.67,0.37 -2.09,1.12c-0.42,0.74 -0.61,1.91 -0.56,3.49l0.19,4.07c0.08,1.68 0.37,2.93 0.88,3.76c0.5,0.82 1.25,1.23 2.25,1.23c0.95,0 1.64,-0.38 2.06,-1.14c0.42,-0.76 0.61,-1.96 0.56,-3.58l-0.19,-4.06zm3.14,3.36c0.12,2.58 -0.27,4.53 -1.17,5.85c-0.9,1.31 -2.33,1.96 -4.29,1.96c-1.93,0 -3.41,-0.64 -4.45,-1.91c-1.04,-1.29 -1.62,-3.18 -1.77,-5.69l-0.14,-3.11c-0.13,-2.59 0.26,-4.52 1.16,-5.82c0.9,-1.29 2.34,-1.94 4.31,-1.94c1.95,0 3.44,0.63 4.46,1.89c1.02,1.26 1.6,3.15 1.74,5.66l0.15,3.11" fill="#ffffff" fill-rule="nonzero" id="svg_188"/>
  <path d="m337.71,553.66l-2.97,0l-0.67,-14.43l-4.3,1.5l-0.12,-2.52l6.85,-2.58l0.38,0l0.83,18.03" fill="#ffffff" fill-rule="nonzero" id="svg_189"/>
  <path d="m239.25,570.03c-0.09,-1.68 -0.37,-2.92 -0.87,-3.7c-0.5,-0.79 -1.25,-1.18 -2.24,-1.18c-0.98,0 -1.67,0.37 -2.09,1.12c-0.42,0.74 -0.6,1.9 -0.55,3.48l0.21,4.06c0.08,1.68 0.38,2.92 0.89,3.75c0.5,0.82 1.26,1.23 2.25,1.23c0.95,0 1.64,-0.38 2.06,-1.14c0.42,-0.76 0.6,-1.95 0.54,-3.56l-0.2,-4.06zm3.14,3.35c0.13,2.58 -0.25,4.53 -1.14,5.83c-0.89,1.31 -2.32,1.97 -4.28,1.97c-1.93,0 -3.41,-0.64 -4.45,-1.92c-1.04,-1.28 -1.63,-3.17 -1.79,-5.67l-0.15,-3.1c-0.13,-2.58 0.25,-4.52 1.14,-5.81c0.9,-1.29 2.33,-1.93 4.3,-1.93c1.95,0 3.44,0.63 4.46,1.88c1.02,1.26 1.61,3.14 1.76,5.65l0.15,3.1" fill="#ffffff" fill-rule="nonzero" id="svg_190"/>
  <path d="m253.46,580.93l-2.96,0l-0.72,-14.41l-4.3,1.5l-0.12,-2.51l6.83,-2.58l0.38,0l0.89,18" fill="#ffffff" fill-rule="nonzero" id="svg_191"/>
  <path d="m267.77,570.03c-0.09,-1.68 -0.38,-2.92 -0.87,-3.7c-0.5,-0.79 -1.24,-1.18 -2.24,-1.18c-0.97,0 -1.67,0.37 -2.09,1.12c-0.42,0.74 -0.61,1.9 -0.55,3.48l0.2,4.06c0.08,1.68 0.38,2.92 0.88,3.75c0.51,0.82 1.26,1.23 2.26,1.23c0.95,0 1.64,-0.38 2.06,-1.14c0.42,-0.76 0.6,-1.95 0.54,-3.56l-0.19,-4.06zm3.14,3.35c0.12,2.58 -0.26,4.53 -1.16,5.83c-0.89,1.31 -2.32,1.97 -4.28,1.97c-1.92,0 -3.41,-0.64 -4.44,-1.92c-1.04,-1.28 -1.64,-3.17 -1.78,-5.67l-0.16,-3.1c-0.13,-2.58 0.26,-4.52 1.15,-5.81c0.9,-1.29 2.33,-1.93 4.3,-1.93c1.95,0 3.44,0.63 4.46,1.88c1.02,1.26 1.61,3.14 1.75,5.65l0.16,3.1" fill="#ffffff" fill-rule="nonzero" id="svg_192"/>
  <path d="m281.96,580.93l-2.96,0l-0.7,-14.41l-4.3,1.5l-0.12,-2.51l6.83,-2.58l0.38,0l0.87,18" fill="#ffffff" fill-rule="nonzero" id="svg_193"/>
  <path d="m296.28,570.03c-0.08,-1.68 -0.37,-2.92 -0.86,-3.7c-0.5,-0.79 -1.24,-1.18 -2.24,-1.18c-0.97,0 -1.67,0.37 -2.09,1.12c-0.42,0.74 -0.61,1.9 -0.55,3.48l0.19,4.06c0.08,1.68 0.37,2.92 0.88,3.75c0.5,0.82 1.25,1.23 2.25,1.23c0.96,0 1.64,-0.38 2.06,-1.14c0.42,-0.76 0.61,-1.95 0.56,-3.56l-0.2,-4.06zm3.14,3.35c0.12,2.58 -0.27,4.53 -1.16,5.83c-0.9,1.31 -2.33,1.97 -4.29,1.97c-1.92,0 -3.4,-0.64 -4.44,-1.92c-1.04,-1.28 -1.63,-3.17 -1.78,-5.67l-0.14,-3.1c-0.13,-2.58 0.26,-4.52 1.16,-5.81c0.89,-1.29 2.32,-1.93 4.3,-1.93c1.95,0 3.43,0.63 4.45,1.88c1.02,1.26 1.61,3.14 1.75,5.65l0.15,3.1" fill="#ffffff" fill-rule="nonzero" id="svg_194"/>
  <path d="m310.54,570.03c-0.08,-1.68 -0.37,-2.92 -0.86,-3.7c-0.5,-0.79 -1.24,-1.18 -2.24,-1.18c-0.97,0 -1.67,0.37 -2.09,1.12c-0.42,0.74 -0.61,1.9 -0.56,3.48l0.19,4.06c0.09,1.68 0.38,2.92 0.88,3.75c0.51,0.82 1.26,1.23 2.25,1.23c0.96,0 1.64,-0.38 2.07,-1.14c0.42,-0.76 0.6,-1.95 0.55,-3.56l-0.19,-4.06zm3.13,3.35c0.12,2.58 -0.26,4.53 -1.16,5.83c-0.9,1.31 -2.33,1.97 -4.28,1.97c-1.93,0 -3.41,-0.64 -4.45,-1.92c-1.03,-1.28 -1.62,-3.17 -1.77,-5.67l-0.15,-3.1c-0.12,-2.58 0.27,-4.52 1.17,-5.81c0.9,-1.29 2.33,-1.93 4.3,-1.93c1.95,0 3.44,0.63 4.45,1.88c1.02,1.26 1.6,3.14 1.75,5.65l0.14,3.1" fill="#ffffff" fill-rule="nonzero" id="svg_195"/>
  <path d="m324.72,580.93l-2.96,0l-0.68,-14.41l-4.3,1.5l-0.12,-2.51l6.84,-2.58l0.38,0l0.84,18" fill="#ffffff" fill-rule="nonzero" id="svg_196"/>
  <path d="m339.05,570.03c-0.07,-1.68 -0.36,-2.92 -0.85,-3.7c-0.5,-0.79 -1.24,-1.18 -2.24,-1.18c-0.97,0 -1.67,0.37 -2.09,1.12c-0.42,0.74 -0.61,1.9 -0.56,3.48l0.19,4.06c0.07,1.68 0.36,2.92 0.87,3.75c0.5,0.82 1.25,1.23 2.25,1.23c0.95,0 1.64,-0.38 2.06,-1.14c0.43,-0.76 0.61,-1.95 0.56,-3.56l-0.19,-4.06zm3.13,3.35c0.12,2.58 -0.27,4.53 -1.16,5.83c-0.9,1.31 -2.33,1.97 -4.29,1.97c-1.93,0 -3.41,-0.64 -4.44,-1.92c-1.04,-1.28 -1.63,-3.17 -1.77,-5.67l-0.14,-3.1c-0.12,-2.58 0.27,-4.52 1.17,-5.81c0.9,-1.29 2.33,-1.93 4.3,-1.93c1.95,0 3.44,0.63 4.45,1.88c1.02,1.26 1.6,3.14 1.74,5.65l0.14,3.1" fill="#ffffff" fill-rule="nonzero" id="svg_197"/>
  <path d="m240.58,608.13l-2.96,0l-0.73,-14.37l-4.29,1.5l-0.12,-2.51l6.82,-2.57l0.38,0l0.9,17.95" fill="#ffffff" fill-rule="nonzero" id="svg_198"/>
  <path d="m254.86,597.26c-0.08,-1.68 -0.37,-2.91 -0.87,-3.69c-0.49,-0.79 -1.24,-1.18 -2.23,-1.18c-0.97,0 -1.67,0.37 -2.09,1.11c-0.42,0.75 -0.6,1.91 -0.55,3.48l0.2,4.06c0.09,1.66 0.38,2.91 0.89,3.73c0.5,0.82 1.25,1.23 2.25,1.23c0.95,0 1.64,-0.38 2.06,-1.14c0.42,-0.75 0.6,-1.94 0.54,-3.56l-0.2,-4.04zm3.14,3.35c0.13,2.57 -0.25,4.51 -1.15,5.81c-0.89,1.31 -2.31,1.96 -4.27,1.96c-1.93,0 -3.41,-0.63 -4.45,-1.91c-1.03,-1.27 -1.63,-3.16 -1.78,-5.66l-0.15,-3.1c-0.13,-2.57 0.25,-4.5 1.14,-5.78c0.9,-1.29 2.33,-1.94 4.3,-1.94c1.95,0 3.43,0.63 4.45,1.89c1.02,1.25 1.61,3.12 1.76,5.62l0.15,3.11" fill="#ffffff" fill-rule="nonzero" id="svg_199"/>
  <path d="m269.05,608.13l-2.96,0l-0.71,-14.37l-4.29,1.5l-0.13,-2.51l6.83,-2.57l0.38,0l0.88,17.95" fill="#ffffff" fill-rule="nonzero" id="svg_200"/>
  <path d="m283.34,597.26c-0.07,-1.68 -0.36,-2.91 -0.86,-3.69c-0.5,-0.79 -1.24,-1.18 -2.23,-1.18c-0.98,0 -1.67,0.37 -2.09,1.11c-0.42,0.75 -0.61,1.91 -0.55,3.48l0.19,4.06c0.08,1.66 0.38,2.91 0.88,3.73c0.51,0.82 1.26,1.23 2.25,1.23c0.96,0 1.64,-0.38 2.06,-1.14c0.42,-0.75 0.6,-1.94 0.55,-3.56l-0.2,-4.04zm3.14,3.35c0.13,2.57 -0.26,4.51 -1.16,5.81c-0.89,1.31 -2.32,1.96 -4.27,1.96c-1.93,0 -3.41,-0.63 -4.44,-1.91c-1.04,-1.27 -1.63,-3.16 -1.78,-5.66l-0.15,-3.1c-0.13,-2.57 0.26,-4.5 1.16,-5.78c0.89,-1.29 2.32,-1.94 4.29,-1.94c1.95,0 3.43,0.63 4.45,1.89c1.02,1.25 1.6,3.12 1.75,5.62l0.15,3.11" fill="#ffffff" fill-rule="nonzero" id="svg_201"/>
  <path d="m297.52,608.13l-2.96,0l-0.69,-14.37l-4.3,1.5l-0.12,-2.51l6.83,-2.57l0.38,0l0.86,17.95" fill="#ffffff" fill-rule="nonzero" id="svg_202"/>
  <path d="m311.83,597.26c-0.08,-1.68 -0.37,-2.91 -0.86,-3.69c-0.5,-0.79 -1.24,-1.18 -2.24,-1.18c-0.97,0 -1.66,0.37 -2.09,1.11c-0.42,0.75 -0.6,1.91 -0.55,3.48l0.19,4.06c0.08,1.66 0.37,2.91 0.88,3.73c0.5,0.82 1.25,1.23 2.24,1.23c0.96,0 1.65,-0.38 2.06,-1.14c0.43,-0.75 0.61,-1.94 0.56,-3.56l-0.19,-4.04zm3.13,3.35c0.12,2.57 -0.27,4.51 -1.16,5.81c-0.9,1.31 -2.33,1.96 -4.28,1.96c-1.93,0 -3.41,-0.63 -4.44,-1.91c-1.04,-1.27 -1.63,-3.16 -1.77,-5.66l-0.15,-3.1c-0.12,-2.57 0.27,-4.5 1.16,-5.78c0.9,-1.29 2.33,-1.94 4.3,-1.94c1.95,0 3.43,0.63 4.45,1.89c1.02,1.25 1.6,3.12 1.74,5.62l0.15,3.11" fill="#ffffff" fill-rule="nonzero" id="svg_203"/>
  <path d="m326.07,597.26c-0.08,-1.68 -0.37,-2.91 -0.86,-3.69c-0.49,-0.79 -1.24,-1.18 -2.23,-1.18c-0.97,0 -1.67,0.37 -2.09,1.11c-0.43,0.75 -0.61,1.91 -0.56,3.48l0.19,4.06c0.08,1.66 0.37,2.91 0.87,3.73c0.51,0.82 1.25,1.23 2.25,1.23c0.95,0 1.64,-0.38 2.06,-1.14c0.43,-0.75 0.61,-1.94 0.56,-3.56l-0.19,-4.04zm3.13,3.35c0.12,2.57 -0.27,4.51 -1.17,5.81c-0.89,1.31 -2.32,1.96 -4.28,1.96c-1.92,0 -3.4,-0.63 -4.43,-1.91c-1.04,-1.27 -1.63,-3.16 -1.77,-5.66l-0.15,-3.1c-0.12,-2.57 0.27,-4.5 1.17,-5.78c0.9,-1.29 2.33,-1.94 4.3,-1.94c1.95,0 3.43,0.63 4.45,1.89c1.01,1.25 1.59,3.12 1.73,5.62l0.15,3.11" fill="#ffffff" fill-rule="nonzero" id="svg_204"/>
  <path d="m340.23,608.13l-2.96,0l-0.67,-14.37l-4.3,1.5l-0.12,-2.51l6.84,-2.57l0.37,0l0.84,17.95" fill="#ffffff" fill-rule="nonzero" id="svg_205"/>
  <path d="m241.95,635.28l-2.96,0l-0.72,-14.35l-4.29,1.5l-0.13,-2.5l6.81,-2.57l0.38,0l0.91,17.92" fill="#ffffff" fill-rule="nonzero" id="svg_206"/>
  <path d="m256.21,624.43c-0.08,-1.68 -0.37,-2.91 -0.87,-3.69c-0.49,-0.78 -1.23,-1.17 -2.23,-1.17c-0.97,0 -1.66,0.37 -2.08,1.11c-0.42,0.74 -0.6,1.89 -0.55,3.46l0.2,4.05c0.09,1.67 0.38,2.91 0.88,3.73c0.51,0.82 1.26,1.22 2.25,1.22c0.96,0 1.64,-0.37 2.06,-1.13c0.42,-0.76 0.6,-1.94 0.54,-3.55l-0.2,-4.03zm3.14,3.34c0.12,2.56 -0.26,4.5 -1.15,5.8c-0.89,1.3 -2.32,1.95 -4.27,1.95c-1.92,0 -3.4,-0.63 -4.44,-1.9c-1.03,-1.27 -1.63,-3.16 -1.78,-5.65l-0.15,-3.09c-0.13,-2.57 0.25,-4.49 1.15,-5.77c0.89,-1.29 2.32,-1.93 4.28,-1.93c1.95,0 3.43,0.62 4.45,1.87c1.02,1.25 1.61,3.13 1.76,5.62l0.15,3.1" fill="#ffffff" fill-rule="nonzero" id="svg_207"/>
  <path d="m270.38,635.28l-2.95,0l-0.71,-14.35l-4.29,1.5l-0.12,-2.5l6.82,-2.57l0.37,0l0.88,17.92" fill="#ffffff" fill-rule="nonzero" id="svg_208"/>
  <path d="m284.66,624.43c-0.08,-1.68 -0.37,-2.91 -0.86,-3.69c-0.5,-0.78 -1.24,-1.17 -2.23,-1.17c-0.97,0 -1.67,0.37 -2.09,1.11c-0.42,0.74 -0.6,1.89 -0.55,3.46l0.2,4.05c0.08,1.67 0.37,2.91 0.87,3.73c0.51,0.82 1.26,1.22 2.25,1.22c0.95,0 1.64,-0.37 2.06,-1.13c0.42,-0.76 0.6,-1.94 0.55,-3.55l-0.2,-4.03zm3.13,3.34c0.13,2.56 -0.25,4.5 -1.15,5.8c-0.89,1.3 -2.32,1.95 -4.27,1.95c-1.92,0 -3.4,-0.63 -4.44,-1.9c-1.03,-1.27 -1.63,-3.16 -1.77,-5.65l-0.15,-3.09c-0.13,-2.57 0.26,-4.49 1.15,-5.77c0.9,-1.29 2.33,-1.93 4.29,-1.93c1.95,0 3.43,0.62 4.45,1.87c1.02,1.25 1.6,3.13 1.74,5.62l0.15,3.1" fill="#ffffff" fill-rule="nonzero" id="svg_209"/>
  <path d="m298.89,624.43c-0.08,-1.68 -0.37,-2.91 -0.86,-3.69c-0.49,-0.78 -1.24,-1.17 -2.23,-1.17c-0.98,0 -1.67,0.37 -2.09,1.11c-0.42,0.74 -0.6,1.89 -0.55,3.46l0.19,4.05c0.08,1.67 0.37,2.91 0.88,3.73c0.5,0.82 1.25,1.22 2.24,1.22c0.96,0 1.64,-0.37 2.06,-1.13c0.42,-0.76 0.6,-1.94 0.55,-3.55l-0.19,-4.03zm3.13,3.34c0.12,2.56 -0.27,4.5 -1.16,5.8c-0.9,1.3 -2.32,1.95 -4.27,1.95c-1.93,0 -3.4,-0.63 -4.44,-1.9c-1.03,-1.27 -1.62,-3.16 -1.77,-5.65l-0.15,-3.09c-0.12,-2.57 0.27,-4.49 1.16,-5.77c0.9,-1.29 2.32,-1.93 4.29,-1.93c1.95,0 3.43,0.62 4.45,1.87c1.01,1.25 1.6,3.13 1.74,5.62l0.15,3.1" fill="#ffffff" fill-rule="nonzero" id="svg_210"/>
  <path d="m313.04,635.28l-2.95,0l-0.69,-14.35l-4.29,1.5l-0.12,-2.5l6.82,-2.57l0.38,0l0.85,17.92" fill="#ffffff" fill-rule="nonzero" id="svg_211"/>
  <path d="m327.34,624.43c-0.08,-1.68 -0.36,-2.91 -0.86,-3.69c-0.49,-0.78 -1.23,-1.17 -2.23,-1.17c-0.97,0 -1.66,0.37 -2.09,1.11c-0.42,0.74 -0.6,1.89 -0.55,3.46l0.19,4.05c0.08,1.67 0.36,2.91 0.87,3.73c0.5,0.82 1.25,1.22 2.24,1.22c0.96,0 1.64,-0.37 2.06,-1.13c0.42,-0.76 0.61,-1.94 0.56,-3.55l-0.19,-4.03zm3.12,3.34c0.13,2.56 -0.26,4.5 -1.16,5.8c-0.9,1.3 -2.32,1.95 -4.27,1.95c-1.93,0 -3.4,-0.63 -4.44,-1.9c-1.03,-1.27 -1.62,-3.16 -1.76,-5.65l-0.15,-3.09c-0.12,-2.57 0.27,-4.49 1.17,-5.77c0.9,-1.29 2.33,-1.93 4.29,-1.93c1.95,0 3.43,0.62 4.45,1.87c1.01,1.25 1.59,3.13 1.73,5.62l0.14,3.1" fill="#ffffff" fill-rule="nonzero" id="svg_212"/>
  <path d="m341.48,635.28l-2.96,0l-0.66,-14.35l-4.29,1.5l-0.12,-2.5l6.82,-2.57l0.38,0l0.83,17.92" fill="#ffffff" fill-rule="nonzero" id="svg_213"/>
  <path d="m243.35,651.54c-0.08,-1.68 -0.37,-2.91 -0.87,-3.68c-0.49,-0.79 -1.24,-1.17 -2.23,-1.17c-0.97,0 -1.66,0.36 -2.08,1.1c-0.42,0.74 -0.6,1.89 -0.54,3.46l0.2,4.04c0.08,1.66 0.38,2.9 0.88,3.72c0.5,0.81 1.25,1.22 2.25,1.22c0.95,0 1.63,-0.37 2.05,-1.13c0.42,-0.76 0.6,-1.94 0.54,-3.54l-0.2,-4.02zm3.13,3.32c0.13,2.56 -0.25,4.5 -1.14,5.79c-0.89,1.31 -2.31,1.96 -4.27,1.96c-1.91,0 -3.39,-0.64 -4.43,-1.91c-1.03,-1.27 -1.63,-3.14 -1.78,-5.63l-0.15,-3.08c-0.14,-2.56 0.25,-4.49 1.14,-5.77c0.89,-1.28 2.32,-1.92 4.28,-1.92c1.94,0 3.42,0.62 4.45,1.87c1.01,1.25 1.6,3.12 1.75,5.61l0.15,3.08" fill="#ffffff" fill-rule="nonzero" id="svg_214"/>
  <path d="m257.51,662.36l-2.95,0l-0.71,-14.31l-4.29,1.49l-0.12,-2.5l6.81,-2.56l0.37,0l0.89,17.88" fill="#ffffff" fill-rule="nonzero" id="svg_215"/>
  <path d="m271.77,651.54c-0.08,-1.68 -0.37,-2.91 -0.86,-3.68c-0.5,-0.79 -1.24,-1.17 -2.23,-1.17c-0.97,0 -1.67,0.36 -2.09,1.1c-0.42,0.74 -0.6,1.89 -0.55,3.46l0.2,4.04c0.08,1.66 0.38,2.9 0.88,3.72c0.51,0.81 1.25,1.22 2.25,1.22c0.95,0 1.63,-0.37 2.05,-1.13c0.42,-0.76 0.6,-1.94 0.55,-3.54l-0.2,-4.02zm3.13,3.32c0.12,2.56 -0.26,4.5 -1.15,5.79c-0.89,1.31 -2.32,1.96 -4.27,1.96c-1.92,0 -3.39,-0.64 -4.43,-1.91c-1.03,-1.27 -1.62,-3.14 -1.77,-5.63l-0.15,-3.08c-0.13,-2.56 0.25,-4.49 1.14,-5.77c0.9,-1.28 2.32,-1.92 4.29,-1.92c1.94,0 3.42,0.62 4.44,1.87c1.02,1.25 1.6,3.12 1.75,5.61l0.15,3.08" fill="#ffffff" fill-rule="nonzero" id="svg_216"/>
  <path d="m285.98,651.54c-0.08,-1.68 -0.37,-2.91 -0.86,-3.68c-0.5,-0.79 -1.24,-1.17 -2.23,-1.17c-0.97,0 -1.67,0.36 -2.09,1.1c-0.42,0.74 -0.6,1.89 -0.55,3.46l0.2,4.04c0.08,1.66 0.37,2.9 0.87,3.72c0.51,0.81 1.26,1.22 2.25,1.22c0.95,0 1.64,-0.37 2.06,-1.13c0.41,-0.76 0.6,-1.94 0.55,-3.54l-0.2,-4.02zm3.13,3.32c0.12,2.56 -0.26,4.5 -1.16,5.79c-0.89,1.31 -2.31,1.96 -4.26,1.96c-1.92,0 -3.4,-0.64 -4.44,-1.91c-1.03,-1.27 -1.62,-3.14 -1.77,-5.63l-0.15,-3.08c-0.12,-2.56 0.26,-4.49 1.15,-5.77c0.9,-1.28 2.33,-1.92 4.29,-1.92c1.94,0 3.43,0.62 4.44,1.87c1.02,1.25 1.6,3.12 1.75,5.61l0.15,3.08" fill="#ffffff" fill-rule="nonzero" id="svg_217"/>
  <path d="m300.12,662.36l-2.95,0l-0.69,-14.31l-4.29,1.49l-0.12,-2.5l6.82,-2.56l0.38,0l0.85,17.88" fill="#ffffff" fill-rule="nonzero" id="svg_218"/>
  <path d="m314.32,662.36l-2.95,0l-0.68,-14.31l-4.28,1.49l-0.12,-2.5l6.81,-2.56l0.38,0l0.84,17.88" fill="#ffffff" fill-rule="nonzero" id="svg_219"/>
  <path d="m328.61,651.54c-0.08,-1.68 -0.36,-2.91 -0.86,-3.68c-0.49,-0.79 -1.23,-1.17 -2.23,-1.17c-0.97,0 -1.66,0.36 -2.08,1.1c-0.42,0.74 -0.61,1.89 -0.56,3.46l0.19,4.04c0.08,1.66 0.37,2.9 0.87,3.72c0.51,0.81 1.25,1.22 2.24,1.22c0.95,0 1.64,-0.37 2.06,-1.13c0.42,-0.76 0.61,-1.94 0.56,-3.54l-0.19,-4.02zm3.12,3.32c0.12,2.56 -0.27,4.5 -1.16,5.79c-0.9,1.31 -2.32,1.96 -4.28,1.96c-1.91,0 -3.39,-0.64 -4.42,-1.91c-1.03,-1.27 -1.62,-3.14 -1.76,-5.63l-0.15,-3.08c-0.12,-2.56 0.27,-4.49 1.17,-5.77c0.89,-1.28 2.32,-1.92 4.28,-1.92c1.95,0 3.43,0.62 4.44,1.87c1.02,1.25 1.6,3.12 1.74,5.61l0.14,3.08" fill="#ffffff" fill-rule="nonzero" id="svg_220"/>
  <path d="m342.73,662.36l-2.95,0l-0.67,-14.31l-4.29,1.49l-0.11,-2.5l6.82,-2.56l0.38,0l0.82,17.88" fill="#ffffff" fill-rule="nonzero" id="svg_221"/>
  <path d="m244.67,689.38l-2.95,0l-0.72,-14.28l-4.28,1.49l-0.13,-2.49l6.8,-2.56l0.38,0l0.9,17.84" fill="#ffffff" fill-rule="nonzero" id="svg_222"/>
  <path d="m258.86,689.38l-2.95,0l-0.71,-14.28l-4.29,1.49l-0.12,-2.49l6.8,-2.56l0.38,0l0.89,17.84" fill="#ffffff" fill-rule="nonzero" id="svg_223"/>
  <path d="m273.1,678.58c-0.08,-1.67 -0.37,-2.89 -0.87,-3.67c-0.49,-0.78 -1.23,-1.17 -2.22,-1.17c-0.97,0 -1.67,0.37 -2.08,1.11c-0.42,0.74 -0.61,1.88 -0.55,3.45l0.2,4.03c0.08,1.65 0.37,2.89 0.87,3.71c0.51,0.81 1.26,1.22 2.25,1.22c0.95,0 1.63,-0.38 2.05,-1.13c0.42,-0.75 0.6,-1.93 0.54,-3.53l-0.19,-4.02zm3.12,3.32c0.13,2.56 -0.26,4.48 -1.15,5.78c-0.89,1.3 -2.31,1.95 -4.26,1.95c-1.92,0 -3.39,-0.64 -4.42,-1.9c-1.04,-1.27 -1.63,-3.14 -1.78,-5.62l-0.15,-3.08c-0.12,-2.56 0.26,-4.48 1.15,-5.75c0.89,-1.28 2.32,-1.92 4.28,-1.92c1.94,0 3.42,0.62 4.44,1.87c1.02,1.25 1.6,3.11 1.74,5.59l0.15,3.08" fill="#ffffff" fill-rule="nonzero" id="svg_224"/>
  <path d="m287.23,689.38l-2.95,0l-0.69,-14.28l-4.29,1.49l-0.12,-2.49l6.81,-2.56l0.37,0l0.87,17.84" fill="#ffffff" fill-rule="nonzero" id="svg_225"/>
  <path d="m301.42,689.38l-2.95,0l-0.69,-14.28l-4.28,1.49l-0.12,-2.49l6.8,-2.56l0.38,0l0.86,17.84" fill="#ffffff" fill-rule="nonzero" id="svg_226"/>
  <path d="m315.61,689.38l-2.95,0l-0.68,-14.28l-4.28,1.49l-0.13,-2.49l6.81,-2.56l0.38,0l0.85,17.84" fill="#ffffff" fill-rule="nonzero" id="svg_227"/>
  <path d="m329.87,678.58c-0.08,-1.67 -0.36,-2.89 -0.85,-3.67c-0.5,-0.78 -1.23,-1.17 -2.23,-1.17c-0.97,0 -1.66,0.37 -2.08,1.11c-0.42,0.74 -0.61,1.88 -0.56,3.45l0.19,4.03c0.08,1.65 0.37,2.89 0.87,3.71c0.5,0.81 1.25,1.22 2.24,1.22c0.95,0 1.64,-0.38 2.06,-1.13c0.42,-0.75 0.6,-1.93 0.55,-3.53l-0.19,-4.02zm3.12,3.32c0.12,2.56 -0.27,4.48 -1.16,5.78c-0.9,1.3 -2.32,1.95 -4.27,1.95c-1.92,0 -3.39,-0.64 -4.42,-1.9c-1.03,-1.27 -1.62,-3.14 -1.76,-5.62l-0.15,-3.08c-0.11,-2.56 0.27,-4.48 1.17,-5.75c0.89,-1.28 2.32,-1.92 4.28,-1.92c1.95,0 3.42,0.62 4.44,1.87c1.01,1.25 1.59,3.11 1.73,5.59l0.14,3.08" fill="#ffffff" fill-rule="nonzero" id="svg_228"/>
  <path d="m343.98,689.38l-2.95,0l-0.66,-14.28l-4.28,1.49l-0.12,-2.49l6.81,-2.56l0.37,0l0.83,17.84" fill="#ffffff" fill-rule="nonzero" id="svg_229"/>
  <g fill="#ffffff" id="svg_240">
   <g id="svg_241" transform="translate(149.213816, 181.418682)">
    <g id="svg_242">
     <path d="m28,-39.09l0,6.32l-16.3,0l0,10.04l12.49,0l0,6.21l-12.49,0l0,16.52l-7.84,0l0,-39.09l24.14,0zm0,0" id="svg_243"/>
    </g>
   </g>
  </g>
  <g fill="#ffffff" id="svg_244">
   <g id="svg_245" transform="translate(177.09767, 181.418682)">
    <g id="svg_246">
     <path d="m32.7,-16.19c0,1.13 -0.07,2.14 -0.22,3.03l-22.68,0c0.18,2.25 0.97,4 2.34,5.27c1.38,1.27 3.09,1.91 5.11,1.91c2.91,0 4.98,-1.26 6.22,-3.77l8.45,0c-0.9,2.99 -2.62,5.45 -5.15,7.37c-2.55,1.92 -5.66,2.88 -9.35,2.88c-2.99,0 -5.67,-0.66 -8.04,-1.98c-2.37,-1.32 -4.22,-3.2 -5.55,-5.63c-1.33,-2.43 -1.99,-5.23 -1.99,-8.41c0,-3.2 0.65,-6.02 1.96,-8.45c1.31,-2.42 3.14,-4.29 5.5,-5.59c2.35,-1.32 5.06,-1.97 8.12,-1.97c2.95,0 5.59,0.64 7.92,1.9c2.34,1.28 4.14,3.08 5.43,5.41c1.28,2.34 1.93,5.01 1.93,8.03zm-8.12,-2.23c-0.03,-2.02 -0.76,-3.63 -2.19,-4.85c-1.42,-1.21 -3.15,-1.82 -5.2,-1.82c-1.94,0 -3.58,0.59 -4.91,1.76c-1.32,1.18 -2.13,2.81 -2.42,4.91l14.72,0zm0,0" id="svg_247"/>
    </g>
   </g>
  </g>
  <g fill="#ffffff" id="svg_248">
   <g id="svg_249" transform="translate(209.852851, 181.418682)">
    <g id="svg_250">
     <path d="m1.84,-15.63c0,-3.13 0.63,-5.91 1.88,-8.34c1.25,-2.42 2.94,-4.29 5.09,-5.59c2.16,-1.32 4.56,-1.97 7.21,-1.97c2.31,0 4.33,0.47 6.07,1.4c1.74,0.93 3.13,2.11 4.18,3.54l0,-4.44l7.89,0l0,31.03l-7.89,0l0,-4.53c-1.02,1.45 -2.41,2.65 -4.18,3.61c-1.77,0.94 -3.82,1.42 -6.14,1.42c-2.6,0 -4.98,-0.67 -7.14,-2.02c-2.15,-1.34 -3.84,-3.23 -5.09,-5.67c-1.25,-2.44 -1.88,-5.26 -1.88,-8.44zm24.43,0.11c0,-1.9 -0.38,-3.53 -1.13,-4.89c-0.74,-1.36 -1.75,-2.41 -3.01,-3.14c-1.28,-0.72 -2.64,-1.09 -4.1,-1.09c-1.46,0 -2.8,0.35 -4.03,1.06c-1.23,0.71 -2.23,1.75 -3,3.11c-0.76,1.37 -1.14,2.98 -1.14,4.84c0,1.87 0.38,3.5 1.14,4.91c0.77,1.4 1.78,2.47 3.03,3.22c1.25,0.74 2.58,1.11 4,1.11c1.46,0 2.82,-0.36 4.1,-1.08c1.26,-0.73 2.27,-1.77 3.01,-3.14c0.75,-1.36 1.13,-3 1.13,-4.91zm0,0" id="svg_251"/>
    </g>
   </g>
  </g>
  <g fill="#ffffff" id="svg_252">
   <g id="svg_253" transform="translate(246.023549, 181.418682)">
    <g id="svg_254">
     <path d="m12.98,-24.58l0,15c0,1.04 0.25,1.8 0.75,2.27c0.51,0.47 1.37,0.7 2.57,0.7l3.64,0l0,6.61l-4.92,0c-6.62,0 -9.93,-3.21 -9.93,-9.63l0,-14.95l-3.68,0l0,-6.45l3.68,0l0,-7.67l7.89,0l0,7.67l6.96,0l0,6.45l-6.96,0zm0,0" id="svg_255"/>
    </g>
   </g>
  </g>
  <g fill="#ffffff" id="svg_256">
   <g id="svg_257" transform="translate(265.956524, 181.418682)">
    <g id="svg_258">
     <path d="m33.16,-31.03l0,31.03l-7.91,0l0,-3.92c-1,1.34 -2.31,2.4 -3.94,3.17c-1.62,0.76 -3.39,1.14 -5.29,1.14c-2.43,0 -4.58,-0.51 -6.44,-1.53c-1.87,-1.03 -3.34,-2.55 -4.41,-4.55c-1.06,-2 -1.59,-4.38 -1.59,-7.14l0,-18.2l7.84,0l0,17.09c0,2.46 0.62,4.36 1.85,5.69c1.23,1.32 2.92,1.98 5.04,1.98c2.17,0 3.87,-0.66 5.1,-1.98c1.22,-1.33 1.84,-3.23 1.84,-5.69l0,-17.09l7.91,0zm0,0" id="svg_259"/>
    </g>
   </g>
  </g>
  <g fill="#ffffff" id="svg_260">
   <g id="svg_261" transform="translate(301.175348, 181.418682)">
    <g id="svg_262">
     <path d="m11.7,-26.2c1.01,-1.65 2.33,-2.93 3.96,-3.86c1.62,-0.94 3.47,-1.41 5.56,-1.41l0,8.24l-2.06,0c-2.47,0 -4.33,0.57 -5.58,1.73c-1.25,1.16 -1.88,3.17 -1.88,6.05l0,15.45l-7.84,0l0,-31.03l7.84,0l0,4.83zm0,0" id="svg_263"/>
    </g>
   </g>
  </g>
  <g fill="#ffffff" id="svg_264">
   <g id="svg_265" transform="translate(322.00419, 181.418682)">
    <g id="svg_266">
     <path d="m32.7,-16.19c0,1.13 -0.07,2.14 -0.22,3.03l-22.68,0c0.18,2.25 0.97,4 2.34,5.27c1.38,1.27 3.09,1.91 5.11,1.91c2.91,0 4.98,-1.26 6.22,-3.77l8.45,0c-0.9,2.99 -2.62,5.45 -5.15,7.37c-2.55,1.92 -5.66,2.88 -9.35,2.88c-2.99,0 -5.67,-0.66 -8.04,-1.98c-2.37,-1.32 -4.22,-3.2 -5.55,-5.63c-1.33,-2.43 -1.99,-5.23 -1.99,-8.41c0,-3.2 0.65,-6.02 1.96,-8.45c1.31,-2.42 3.14,-4.29 5.5,-5.59c2.35,-1.32 5.06,-1.97 8.12,-1.97c2.95,0 5.59,0.64 7.92,1.9c2.34,1.28 4.14,3.08 5.43,5.41c1.28,2.34 1.93,5.01 1.93,8.03zm-8.12,-2.23c-0.03,-2.02 -0.76,-3.63 -2.19,-4.85c-1.42,-1.21 -3.15,-1.82 -5.2,-1.82c-1.94,0 -3.58,0.59 -4.91,1.76c-1.32,1.18 -2.13,2.81 -2.42,4.91l14.72,0zm0,0" id="svg_267"/>
    </g>
   </g>
  </g>
  <g fill="#ffffff" id="svg_268">
   <g id="svg_269" transform="translate(354.759376, 181.418682)">
    <g id="svg_270">
     <path d="m1.84,-15.63c0,-3.13 0.63,-5.91 1.88,-8.34c1.25,-2.42 2.96,-4.29 5.12,-5.59c2.17,-1.32 4.58,-1.97 7.24,-1.97c2.01,0 3.92,0.44 5.75,1.33c1.83,0.87 3.29,2.04 4.37,3.48l0,-14.72l7.96,0l0,41.44l-7.96,0l0,-4.59c-0.97,1.53 -2.33,2.76 -4.09,3.7c-1.75,0.93 -3.78,1.39 -6.09,1.39c-2.62,0 -5.01,-0.67 -7.18,-2.02c-2.16,-1.34 -3.87,-3.23 -5.12,-5.67c-1.25,-2.44 -1.88,-5.26 -1.88,-8.44zm24.43,0.11c0,-1.9 -0.38,-3.53 -1.13,-4.89c-0.74,-1.36 -1.75,-2.41 -3.01,-3.14c-1.28,-0.72 -2.64,-1.09 -4.1,-1.09c-1.46,0 -2.8,0.35 -4.03,1.06c-1.23,0.71 -2.23,1.75 -3,3.11c-0.76,1.37 -1.14,2.98 -1.14,4.84c0,1.87 0.38,3.5 1.14,4.91c0.77,1.4 1.78,2.47 3.03,3.22c1.25,0.74 2.58,1.11 4,1.11c1.46,0 2.82,-0.36 4.1,-1.08c1.26,-0.73 2.27,-1.77 3.01,-3.14c0.75,-1.36 1.13,-3 1.13,-4.91zm0,0" id="svg_271"/>
    </g>
   </g>
  </g>
  <g fill="#ffffff" id="svg_272">
   <g id="svg_273" transform="translate(390.930074, 181.418682)">
    <g id="svg_274"/>
   </g>
  </g>
  <g fill="#ffffff" id="svg_275">
   <g id="svg_276" transform="translate(402.464207, 181.418682)">
    <g id="svg_277">
     <path d="m17.36,0.39c-2.73,0 -5.19,-0.46 -7.38,-1.39c-2.18,-0.94 -3.9,-2.28 -5.17,-4.03c-1.27,-1.76 -1.92,-3.83 -1.95,-6.22l8.39,0c0.11,1.61 0.68,2.87 1.7,3.81c1.03,0.93 2.44,1.39 4.24,1.39c1.83,0 3.27,-0.43 4.31,-1.31c1.05,-0.88 1.58,-2.03 1.58,-3.45c0,-1.16 -0.36,-2.1 -1.08,-2.85c-0.71,-0.75 -1.59,-1.33 -2.66,-1.76c-1.06,-0.44 -2.52,-0.92 -4.39,-1.44c-2.54,-0.74 -4.6,-1.47 -6.18,-2.2c-1.59,-0.73 -2.95,-1.83 -4.1,-3.3c-1.13,-1.48 -1.7,-3.45 -1.7,-5.92c0,-2.31 0.58,-4.33 1.73,-6.05c1.16,-1.72 2.78,-3.03 4.88,-3.94c2.09,-0.91 4.48,-1.37 7.17,-1.37c4.03,0 7.3,0.98 9.83,2.94c2.52,1.96 3.91,4.69 4.17,8.2l-8.62,0c-0.08,-1.34 -0.65,-2.45 -1.72,-3.33c-1.07,-0.88 -2.47,-1.33 -4.22,-1.33c-1.53,0 -2.76,0.4 -3.67,1.19c-0.92,0.78 -1.38,1.92 -1.38,3.41c0,1.05 0.34,1.92 1.03,2.61c0.7,0.68 1.56,1.25 2.58,1.68c1.03,0.43 2.48,0.92 4.34,1.47c2.54,0.75 4.62,1.5 6.22,2.25c1.6,0.75 2.99,1.86 4.14,3.36c1.16,1.49 1.74,3.45 1.74,5.88c0,2.09 -0.55,4.04 -1.63,5.83c-1.08,1.79 -2.67,3.21 -4.76,4.28c-2.09,1.06 -4.57,1.59 -7.44,1.59zm0,0" id="svg_278"/>
    </g>
   </g>
  </g>
  <g fill="#ffffff" id="svg_279">
   <g id="svg_280" transform="translate(434.771449, 181.418682)">
    <g id="svg_281">
     <path d="m12.98,-24.58l0,15c0,1.04 0.25,1.8 0.75,2.27c0.51,0.47 1.37,0.7 2.57,0.7l3.64,0l0,6.61l-4.92,0c-6.62,0 -9.93,-3.21 -9.93,-9.63l0,-14.95l-3.68,0l0,-6.45l3.68,0l0,-7.67l7.89,0l0,7.67l6.96,0l0,6.45l-6.96,0zm0,0" id="svg_282"/>
    </g>
   </g>
  </g>
  <g fill="#ffffff" id="svg_283">
   <g id="svg_284" transform="translate(454.704424, 181.418682)">
    <g id="svg_285">
     <path d="m1.84,-15.63c0,-3.13 0.63,-5.91 1.88,-8.34c1.25,-2.42 2.94,-4.29 5.09,-5.59c2.16,-1.32 4.56,-1.97 7.21,-1.97c2.31,0 4.33,0.47 6.07,1.4c1.74,0.93 3.13,2.11 4.18,3.54l0,-4.44l7.89,0l0,31.03l-7.89,0l0,-4.53c-1.02,1.45 -2.41,2.65 -4.18,3.61c-1.77,0.94 -3.82,1.42 -6.14,1.42c-2.6,0 -4.98,-0.67 -7.14,-2.02c-2.15,-1.34 -3.84,-3.23 -5.09,-5.67c-1.25,-2.44 -1.88,-5.26 -1.88,-8.44zm24.43,0.11c0,-1.9 -0.38,-3.53 -1.13,-4.89c-0.74,-1.36 -1.75,-2.41 -3.01,-3.14c-1.28,-0.72 -2.64,-1.09 -4.1,-1.09c-1.46,0 -2.8,0.35 -4.03,1.06c-1.23,0.71 -2.23,1.75 -3,3.11c-0.76,1.37 -1.14,2.98 -1.14,4.84c0,1.87 0.38,3.5 1.14,4.91c0.77,1.4 1.78,2.47 3.03,3.22c1.25,0.74 2.58,1.11 4,1.11c1.46,0 2.82,-0.36 4.1,-1.08c1.26,-0.73 2.27,-1.77 3.01,-3.14c0.75,-1.36 1.13,-3 1.13,-4.91zm0,0" id="svg_286"/>
    </g>
   </g>
  </g>
  <g fill="#ffffff" id="svg_287">
   <g id="svg_288" transform="translate(490.875122, 181.418682)">
    <g id="svg_289">
     <path d="m11.7,-26.2c1.01,-1.65 2.33,-2.93 3.96,-3.86c1.62,-0.94 3.47,-1.41 5.56,-1.41l0,8.24l-2.06,0c-2.47,0 -4.33,0.57 -5.58,1.73c-1.25,1.16 -1.88,3.17 -1.88,6.05l0,15.45l-7.84,0l0,-31.03l7.84,0l0,4.83zm0,0" id="svg_290"/>
    </g>
   </g>
  </g>
  <g fill="#ffffff" id="svg_291">
   <g id="svg_292" transform="translate(511.703963, 181.418682)">
    <g id="svg_293">
     <path d="m12.98,-24.58l0,15c0,1.04 0.25,1.8 0.75,2.27c0.51,0.47 1.37,0.7 2.57,0.7l3.64,0l0,6.61l-4.92,0c-6.62,0 -9.93,-3.21 -9.93,-9.63l0,-14.95l-3.68,0l0,-6.45l3.68,0l0,-7.67l7.89,0l0,7.67l6.96,0l0,6.45l-6.96,0zm0,0" id="svg_294"/>
    </g>
   </g>
  </g>
  <g fill="#ffffff" id="svg_295">
   <g id="svg_296" transform="translate(531.636938, 181.418682)">
    <g id="svg_297">
     <path d="m33.16,-31.03l0,31.03l-7.91,0l0,-3.92c-1,1.34 -2.31,2.4 -3.94,3.17c-1.62,0.76 -3.39,1.14 -5.29,1.14c-2.43,0 -4.58,-0.51 -6.44,-1.53c-1.87,-1.03 -3.34,-2.55 -4.41,-4.55c-1.06,-2 -1.59,-4.38 -1.59,-7.14l0,-18.2l7.84,0l0,17.09c0,2.46 0.62,4.36 1.85,5.69c1.23,1.32 2.92,1.98 5.04,1.98c2.17,0 3.87,-0.66 5.1,-1.98c1.22,-1.33 1.84,-3.23 1.84,-5.69l0,-17.09l7.91,0zm0,0" id="svg_298"/>
    </g>
   </g>
  </g>
  <g fill="#ffffff" id="svg_299">
   <g id="svg_300" transform="translate(566.855762, 181.418682)">
    <g id="svg_301">
     <path d="m11.7,-26.55c1.01,-1.41 2.4,-2.59 4.18,-3.54c1.76,-0.96 3.79,-1.44 6.07,-1.44c2.65,0 5.04,0.65 7.19,1.97c2.16,1.3 3.86,3.15 5.11,5.56c1.25,2.41 1.88,5.2 1.88,8.37c0,3.18 -0.63,6 -1.88,8.44c-1.25,2.44 -2.95,4.33 -5.11,5.67c-2.15,1.35 -4.54,2.02 -7.19,2.02c-2.28,0 -4.29,-0.46 -6.03,-1.39c-1.73,-0.94 -3.13,-2.11 -4.22,-3.53l0,19.2l-7.84,0l0,-45.81l7.84,0l0,4.48zm16.41,10.92c0,-1.86 -0.39,-3.47 -1.16,-4.84c-0.76,-1.36 -1.76,-2.4 -3.01,-3.11c-1.25,-0.71 -2.61,-1.06 -4.06,-1.06c-1.42,0 -2.75,0.37 -4,1.09c-1.25,0.73 -2.27,1.79 -3.04,3.17c-0.76,1.38 -1.14,3 -1.14,4.86c0,1.87 0.38,3.5 1.14,4.88c0.77,1.39 1.79,2.44 3.04,3.17c1.25,0.72 2.58,1.08 4,1.08c1.45,0 2.81,-0.37 4.06,-1.11c1.25,-0.75 2.25,-1.81 3.01,-3.19c0.77,-1.38 1.16,-3.03 1.16,-4.94zm0,0" id="svg_302"/>
    </g>
   </g>
  </g>
  <g fill="#ffffff" id="svg_303">
   <g id="svg_304" transform="translate(149.213816, 99.000015)">
    <g id="svg_305">
     <path d="m9.42,-13.94l0,1.49l-6.06,0l0,4.68l4.92,0l0,1.49l-4.92,0l0,6.28l-1.81,0l0,-13.94l7.87,0zm0,0" id="svg_306"/>
    </g>
   </g>
  </g>
  <g fill="#ffffff" id="svg_307">
   <g id="svg_308" transform="translate(167.089797, 99.000015)">
    <g id="svg_309">
     <path d="m3.36,-12.45l0,4.65l5.08,0l0,1.5l-5.08,0l0,4.8l5.69,0l0,1.5l-7.5,0l0,-13.95l7.5,0l0,1.5l-5.69,0zm0,0" id="svg_310"/>
    </g>
   </g>
  </g>
  <g fill="#ffffff" id="svg_311">
   <g id="svg_312" transform="translate(185.145702, 99.000015)">
    <g id="svg_313">
     <path d="m9.78,-3.09l-6.08,0l-1.12,3.09l-1.92,0l5.04,-13.86l2.1,0l5.01,13.86l-1.9,0l-1.13,-3.09zm-0.51,-1.49l-2.54,-7.05l-2.51,7.05l5.05,0zm0,0" id="svg_314"/>
    </g>
   </g>
  </g>
  <g fill="#ffffff" id="svg_315">
   <g id="svg_316" transform="translate(206.420339, 99.000015)">
    <g id="svg_317">
     <path d="m10.13,-13.94l0,1.49l-3.82,0l0,12.45l-1.81,0l0,-12.45l-3.81,0l0,-1.49l9.44,0zm0,0" id="svg_318"/>
    </g>
   </g>
  </g>
  <g fill="#ffffff" id="svg_319">
   <g id="svg_320" transform="translate(225.036019, 99.000015)">
    <g id="svg_321">
     <path d="m3.31,-13.94l0,8.81c0,1.25 0.3,2.17 0.91,2.77c0.61,0.61 1.46,0.91 2.55,0.91c1.06,0 1.89,-0.3 2.5,-0.91c0.61,-0.6 0.92,-1.52 0.92,-2.77l0,-8.81l1.81,0l0,8.8c0,1.16 -0.23,2.14 -0.7,2.94c-0.47,0.79 -1.1,1.38 -1.89,1.76c-0.8,0.39 -1.69,0.58 -2.68,0.58c-0.98,0 -1.87,-0.19 -2.67,-0.58c-0.79,-0.38 -1.42,-0.97 -1.87,-1.76c-0.46,-0.8 -0.69,-1.78 -0.69,-2.94l0,-8.8l1.81,0zm0,0" id="svg_322"/>
    </g>
   </g>
  </g>
  <g fill="#ffffff" id="svg_323">
   <g id="svg_324" transform="translate(246.330651, 99.000015)">
    <g id="svg_325">
     <path d="m8.88,0l-3.32,-5.7l-2.2,0l0,5.7l-1.81,0l0,-13.94l4.5,0c1.05,0 1.93,0.19 2.65,0.55c0.73,0.35 1.27,0.84 1.63,1.45c0.36,0.62 0.55,1.31 0.55,2.1c0,0.96 -0.28,1.8 -0.83,2.54c-0.56,0.73 -1.39,1.22 -2.49,1.46l3.5,5.84l-2.18,0zm-5.52,-7.16l2.69,0c0.97,0 1.71,-0.24 2.2,-0.73c0.5,-0.49 0.75,-1.14 0.75,-1.95c0,-0.82 -0.25,-1.46 -0.73,-1.91c-0.48,-0.46 -1.22,-0.69 -2.22,-0.69l-2.69,0l0,5.28zm0,0" id="svg_326"/>
    </g>
   </g>
  </g>
  <g fill="#ffffff" id="svg_327">
   <g id="svg_328" transform="translate(266.285805, 99.000015)">
    <g id="svg_329">
     <path d="m3.36,-12.45l0,4.65l5.08,0l0,1.5l-5.08,0l0,4.8l5.69,0l0,1.5l-7.5,0l0,-13.95l7.5,0l0,1.5l-5.69,0zm0,0" id="svg_330"/>
    </g>
   </g>
  </g>
  <g fill="#ffffff" id="svg_331">
   <g id="svg_332" transform="translate(284.341709, 99.000015)">
    <g id="svg_333">
     <path d="m5.88,-13.94c1.51,0 2.83,0.29 3.95,0.86c1.11,0.56 1.97,1.37 2.56,2.42c0.59,1.06 0.89,2.3 0.89,3.72c0,1.43 -0.3,2.67 -0.89,3.72c-0.59,1.04 -1.45,1.84 -2.56,2.39c-1.12,0.56 -2.44,0.83 -3.95,0.83l-4.33,0l0,-13.94l4.33,0zm0,12.44c1.8,0 3.17,-0.47 4.12,-1.42c0.95,-0.96 1.42,-2.3 1.42,-4.02c0,-1.74 -0.48,-3.09 -1.44,-4.06c-0.94,-0.97 -2.32,-1.45 -4.1,-1.45l-2.52,0l0,10.95l2.52,0zm0,0" id="svg_334"/>
    </g>
   </g>
  </g>
  <g fill="#216ad9" id="svg_351">
   <g id="svg_352" transform="translate(848.711609, 221.214618)">
    <g id="svg_353"/>
   </g>
  </g>
  <g fill="#216ad9" id="svg_370">
   <g id="svg_371" transform="translate(899.150445, 221.214618)">
    <g id="svg_372"/>
   </g>
  </g>
  <g fill="#216ad9" id="svg_433">
   <g id="svg_434" transform="translate(849.171433, 555.2632)">
    <g id="svg_435"/>
   </g>
  </g>
  <g fill="#216ad9" id="svg_444">
   <g id="svg_445" transform="translate(872.521465, 555.2632)">
    <g id="svg_446"/>
   </g>
  </g>
  <g fill="#216ad9" id="svg_471">
   <g id="svg_472" transform="translate(944.551267, 555.2632)">
    <g id="svg_473"/>
   </g>
  </g>
  <g fill="#216ad9" id="svg_558">
   <g id="svg_559" transform="translate(910.656135, 253.356569)">
    <g id="svg_560"/>
   </g>
  </g>
  <g fill="#216ad9" id="svg_573">
   <g id="svg_574" transform="translate(940.677946, 253.356569)">
    <g id="svg_575"/>
   </g>
  </g>
  <g fill="#216ad9" id="svg_628">
   <g id="svg_629" transform="translate(1070.61267, 253.356569)">
    <g id="svg_630"/>
   </g>
  </g>
  <g fill="#216ad9" id="svg_651">
   <g id="svg_652" transform="translate(1111.909085, 253.356569)">
    <g id="svg_653"/>
   </g>
  </g>
  <g fill="#216ad9" id="svg_670">
   <g id="svg_671" transform="translate(1147.626323, 253.356569)">
    <g id="svg_672"/>
   </g>
  </g>
  <g fill="#216ad9" id="svg_685">
   <g id="svg_686" transform="translate(1181.865923, 253.356569)">
    <g id="svg_687"/>
   </g>
  </g>
  <g fill="#216ad9" id="svg_712">
   <g id="svg_713" transform="translate(843.239943, 276.606568)">
    <g id="svg_714"/>
   </g>
  </g>
  <g fill="#216ad9" id="svg_723">
   <g id="svg_724" transform="translate(865.97216, 276.606568)">
    <g id="svg_725"/>
   </g>
  </g>
  <g fill="#216ad9" id="svg_762">
   <g id="svg_763" transform="translate(934.666708, 276.606568)">
    <g id="svg_764"/>
   </g>
  </g>
  <g fill="#216ad9" id="svg_801">
   <g id="svg_802" transform="translate(1017.226877, 276.606568)">
    <g id="svg_803"/>
   </g>
  </g>
  <g fill="#216ad9" id="svg_836">
   <g id="svg_837" transform="translate(1079.412329, 276.606568)">
    <g id="svg_838"/>
   </g>
  </g>
  <g fill="#216ad9" id="svg_851">
   <g id="svg_852" transform="translate(1114.797734, 276.606568)">
    <g id="svg_853"/>
   </g>
  </g>
  <g fill="#216ad9" id="svg_874">
   <g id="svg_875" transform="translate(1163.749331, 276.606568)">
    <g id="svg_876"/>
   </g>
  </g>
  <g fill="#216ad9" id="svg_885">
   <g id="svg_886" transform="translate(1176.717477, 276.606568)">
    <g id="svg_887"/>
   </g>
  </g>
  <g fill="#216ad9" id="svg_928">
   <g id="svg_929" transform="translate(874.391189, 299.856567)">
    <g id="svg_930"/>
   </g>
  </g>
  <g fill="#216ad9" id="svg_939">
   <g id="svg_940" transform="translate(898.485058, 299.856567)">
    <g id="svg_941"/>
   </g>
  </g>
  <g fill="#216ad9" id="svg_954">
   <g id="svg_955" transform="translate(927.759604, 299.856567)">
    <g id="svg_956"/>
   </g>
  </g>
  <g fill="#216ad9" id="svg_985">
   <g id="svg_986" transform="translate(996.803408, 299.856567)">
    <g id="svg_987"/>
   </g>
  </g>
  <g fill="#216ad9" id="svg_996">
   <g id="svg_997" transform="translate(1015.732943, 299.856567)">
    <g id="svg_998"/>
   </g>
  </g>
  <g fill="#216ad9" id="svg_1015">
   <g id="svg_1016" transform="translate(1054.306328, 299.856567)">
    <g id="svg_1017"/>
   </g>
  </g>
  <g fill="#216ad9" id="svg_1070">
   <g id="svg_1071" transform="translate(1160.544985, 299.856567)">
    <g id="svg_1072"/>
   </g>
  </g>
  <g fill="#216ad9" id="svg_1097">
   <g id="svg_1098" transform="translate(837.826791, 323.106565)">
    <g id="svg_1099"/>
   </g>
  </g>
  <g fill="#216ad9" id="svg_1112">
   <g id="svg_1113" transform="translate(870.737949, 323.106565)">
    <g id="svg_1114"/>
   </g>
  </g>
  <g fill="#216ad9" id="svg_1131">
   <g id="svg_1132" transform="translate(909.676669, 323.106565)">
    <g id="svg_1133"/>
   </g>
  </g>
  <g fill="#216ad9" id="svg_1142">
   <g id="svg_1143" transform="translate(929.187414, 323.106565)">
    <g id="svg_1144"/>
   </g>
  </g>
  <g fill="#216ad9" id="svg_1173">
   <g id="svg_1174" transform="translate(996.354823, 323.106565)">
    <g id="svg_1175"/>
   </g>
  </g>
  <g fill="#216ad9" id="svg_1188">
   <g id="svg_1189" transform="translate(1025.629358, 323.106565)">
    <g id="svg_1190"/>
   </g>
  </g>
  <g fill="#216ad9" id="svg_1223">
   <g id="svg_1224" transform="translate(1084.394057, 323.106565)">
    <g id="svg_1225"/>
   </g>
  </g>
  <g fill="#216ad9" id="svg_1278">
   <g id="svg_1279" transform="translate(1194.402169, 323.106565)">
    <g id="svg_1280"/>
   </g>
  </g>
  <g fill="#216ad9" id="svg_1345">
   <g id="svg_1346" transform="translate(930.582792, 346.356564)">
    <g id="svg_1347"/>
   </g>
  </g>
  <g fill="#216ad9" id="svg_1368">
   <g id="svg_1369" transform="translate(971.879253, 346.356564)">
    <g id="svg_1370"/>
   </g>
  </g>
  <g fill="#216ad9" id="svg_1387">
   <g id="svg_1388" transform="translate(1007.596513, 346.356564)">
    <g id="svg_1389"/>
   </g>
  </g>
  <g fill="#216ad9" id="svg_1402">
   <g id="svg_1403" transform="translate(1041.836113, 346.356564)">
    <g id="svg_1404"/>
   </g>
  </g>
  <g fill="#216ad9" id="svg_1413">
   <g id="svg_1414" transform="translate(1066.195685, 346.356564)">
    <g id="svg_1415"/>
   </g>
  </g>
  <g fill="#216ad9" id="svg_1432">
   <g id="svg_1433" transform="translate(1108.787617, 346.356564)">
    <g id="svg_1434"/>
   </g>
  </g>
  <g fill="#216ad9" id="svg_1443">
   <g id="svg_1444" transform="translate(1131.519839, 346.356564)">
    <g id="svg_1445"/>
   </g>
  </g>
  <g fill="#216ad9" id="svg_1530">
   <g id="svg_1531" transform="translate(910.656135, 587.40491)">
    <g id="svg_1532"/>
   </g>
  </g>
  <g fill="#216ad9" id="svg_1545">
   <g id="svg_1546" transform="translate(940.677946, 587.40491)">
    <g id="svg_1547"/>
   </g>
  </g>
  <g fill="#216ad9" id="svg_1600">
   <g id="svg_1601" transform="translate(1070.61267, 587.40491)">
    <g id="svg_1602"/>
   </g>
  </g>
  <g fill="#216ad9" id="svg_1623">
   <g id="svg_1624" transform="translate(1111.909085, 587.40491)">
    <g id="svg_1625"/>
   </g>
  </g>
  <g fill="#216ad9" id="svg_1642">
   <g id="svg_1643" transform="translate(1147.626323, 587.40491)">
    <g id="svg_1644"/>
   </g>
  </g>
  <g fill="#216ad9" id="svg_1657">
   <g id="svg_1658" transform="translate(1181.865923, 587.40491)">
    <g id="svg_1659"/>
   </g>
  </g>
  <g fill="#216ad9" id="svg_1684">
   <g id="svg_1685" transform="translate(843.239943, 610.654909)">
    <g id="svg_1686"/>
   </g>
  </g>
  <g fill="#216ad9" id="svg_1695">
   <g id="svg_1696" transform="translate(865.97216, 610.654909)">
    <g id="svg_1697"/>
   </g>
  </g>
  <g fill="#216ad9" id="svg_1734">
   <g id="svg_1735" transform="translate(934.666708, 610.654909)">
    <g id="svg_1736"/>
   </g>
  </g>
  <g fill="#216ad9" id="svg_1773">
   <g id="svg_1774" transform="translate(1017.226877, 610.654909)">
    <g id="svg_1775"/>
   </g>
  </g>
  <g fill="#216ad9" id="svg_1808">
   <g id="svg_1809" transform="translate(1079.412329, 610.654909)">
    <g id="svg_1810"/>
   </g>
  </g>
  <g fill="#216ad9" id="svg_1823">
   <g id="svg_1824" transform="translate(1114.797734, 610.654909)">
    <g id="svg_1825"/>
   </g>
  </g>
  <g fill="#216ad9" id="svg_1846">
   <g id="svg_1847" transform="translate(1163.749331, 610.654909)">
    <g id="svg_1848"/>
   </g>
  </g>
  <g fill="#216ad9" id="svg_1857">
   <g id="svg_1858" transform="translate(1176.717477, 610.654909)">
    <g id="svg_1859"/>
   </g>
  </g>
  <g fill="#216ad9" id="svg_1900">
   <g id="svg_1901" transform="translate(874.391189, 633.904908)">
    <g id="svg_1902"/>
   </g>
  </g>
  <g fill="#216ad9" id="svg_1911">
   <g id="svg_1912" transform="translate(898.485058, 633.904908)">
    <g id="svg_1913"/>
   </g>
  </g>
  <g fill="#216ad9" id="svg_1926">
   <g id="svg_1927" transform="translate(927.759604, 633.904908)">
    <g id="svg_1928"/>
   </g>
  </g>
  <g fill="#216ad9" id="svg_1957">
   <g id="svg_1958" transform="translate(996.803408, 633.904908)">
    <g id="svg_1959"/>
   </g>
  </g>
  <g fill="#216ad9" id="svg_1968">
   <g id="svg_1969" transform="translate(1015.732943, 633.904908)">
    <g id="svg_1970"/>
   </g>
  </g>
  <g fill="#216ad9" id="svg_1987">
   <g id="svg_1988" transform="translate(1054.306328, 633.904908)">
    <g id="svg_1989"/>
   </g>
  </g>
  <g fill="#216ad9" id="svg_2042">
   <g id="svg_2043" transform="translate(1160.544985, 633.904908)">
    <g id="svg_2044"/>
   </g>
  </g>
  <g fill="#216ad9" id="svg_2069">
   <g id="svg_2070" transform="translate(837.826791, 657.154907)">
    <g id="svg_2071"/>
   </g>
  </g>
  <g fill="#216ad9" id="svg_2084">
   <g id="svg_2085" transform="translate(870.737949, 657.154907)">
    <g id="svg_2086"/>
   </g>
  </g>
  <g fill="#216ad9" id="svg_2103">
   <g id="svg_2104" transform="translate(909.676669, 657.154907)">
    <g id="svg_2105"/>
   </g>
  </g>
  <g fill="#216ad9" id="svg_2114">
   <g id="svg_2115" transform="translate(929.187414, 657.154907)">
    <g id="svg_2116"/>
   </g>
  </g>
  <g fill="#216ad9" id="svg_2145">
   <g id="svg_2146" transform="translate(996.354823, 657.154907)">
    <g id="svg_2147"/>
   </g>
  </g>
  <g fill="#216ad9" id="svg_2160">
   <g id="svg_2161" transform="translate(1025.629358, 657.154907)">
    <g id="svg_2162"/>
   </g>
  </g>
  <g fill="#216ad9" id="svg_2195">
   <g id="svg_2196" transform="translate(1084.394057, 657.154907)">
    <g id="svg_2197"/>
   </g>
  </g>
  <g fill="#216ad9" id="svg_2250">
   <g id="svg_2251" transform="translate(1194.402169, 657.154907)">
    <g id="svg_2252"/>
   </g>
  </g>
  <g fill="#216ad9" id="svg_2317">
   <g id="svg_2318" transform="translate(930.582792, 680.404906)">
    <g id="svg_2319"/>
   </g>
  </g>
  <g fill="#216ad9" id="svg_2340">
   <g id="svg_2341" transform="translate(971.879253, 680.404906)">
    <g id="svg_2342"/>
   </g>
  </g>
  <g fill="#216ad9" id="svg_2359">
   <g id="svg_2360" transform="translate(1007.596513, 680.404906)">
    <g id="svg_2361"/>
   </g>
  </g>
  <g fill="#216ad9" id="svg_2374">
   <g id="svg_2375" transform="translate(1041.836113, 680.404906)">
    <g id="svg_2376"/>
   </g>
  </g>
  <g fill="#216ad9" id="svg_2385">
   <g id="svg_2386" transform="translate(1066.195685, 680.404906)">
    <g id="svg_2387"/>
   </g>
  </g>
  <g fill="#216ad9" id="svg_2404">
   <g id="svg_2405" transform="translate(1108.787617, 680.404906)">
    <g id="svg_2406"/>
   </g>
  </g>
  <g fill="#216ad9" id="svg_2415">
   <g id="svg_2416" transform="translate(1131.519839, 680.404906)">
    <g id="svg_2417"/>
   </g>
  </g>
 </g>
</svg>